# Blender v2.79 (sub 0) OBJ File: 'barrier.blend'
# www.blender.org
mtllib Barrier_3.mtl
o Cube.001_Cube.000
v -0.034326 -0.018288 -0.032370
v 0.008465 0.012934 -0.042991
v -0.004261 -0.048067 0.001216
v 0.038530 -0.016845 -0.009406
v -0.047881 0.014225 0.008593
v -0.005090 0.045447 -0.002029
v -0.017816 -0.015555 0.042178
v 0.024975 0.015667 0.031557
v -0.034382 0.158038 0.210929
v -0.077173 0.126816 0.221550
v -0.107238 0.156596 0.187964
v -0.064447 0.187818 0.177343
v 0.055096 -0.190438 -0.178156
v 0.025031 -0.160659 -0.211742
v 0.067822 -0.129437 -0.222363
v 0.097887 -0.159216 -0.188777
v 0.170183 -0.147249 0.137664
v 0.127391 -0.178471 0.148286
v 0.113836 -0.145958 0.189248
v 0.156628 -0.114736 0.178627
v -0.165979 0.112116 -0.179440
v -0.123187 0.143338 -0.190061
v -0.136742 0.175851 -0.149099
v -0.179534 0.144629 -0.138477
v 0.195845 0.149654 -0.089502
v 0.225910 0.119875 -0.055916
v 0.212355 0.152387 -0.014954
v 0.182290 0.182167 -0.048539
v -0.191641 -0.184788 0.047726
v -0.221706 -0.155008 0.014141
v -0.205197 -0.152275 0.088689
v -0.235261 -0.122495 0.055103
v 0.085375 0.061189 -0.000301
v 0.055310 0.090969 -0.033887
v 0.068865 0.058456 -0.074849
v 0.098930 0.028677 -0.041264
v 0.077635 -0.079026 -0.082147
v 0.047570 -0.049246 -0.115732
v 0.004779 -0.080468 -0.105111
v 0.034844 -0.110248 -0.071525
v 0.080845 -0.086604 0.144352
v 0.123637 -0.055381 0.133731
v 0.094400 -0.119116 0.103390
v 0.137192 -0.087894 0.092768
v -0.024536 0.103772 0.064393
v 0.005529 0.073992 0.097979
v -0.037262 0.042770 0.108600
v -0.067327 0.072550 0.075015
v -0.056634 0.097632 -0.112948
v -0.070189 0.130145 -0.071986
v -0.112981 0.098923 -0.061365
v -0.099426 0.066410 -0.102327
v -0.110646 -0.092494 0.052407
v -0.097091 -0.125006 0.011445
v -0.127156 -0.095227 -0.022141
v -0.140711 -0.062714 0.018822
vn 0.8076 0.5347 -0.2488
vn -0.1793 0.5281 0.8300
vn 0.7826 0.5991 -0.1693
vn 0.7321 0.6304 -0.2581
vn 0.5760 -0.5367 0.6166
vn -0.3104 0.5561 0.7710
vn -0.2509 0.6018 0.7582
vn 0.5593 -0.5581 0.6129
vn -0.5593 0.5581 -0.6129
vn -0.7826 -0.5991 0.1693
vn 0.2509 -0.6018 -0.7582
vn -0.8076 -0.5347 0.2488
vn 0.5749 -0.5978 0.5587
vn -0.5749 0.5978 -0.5587
vn 0.5565 -0.5512 0.6217
vn -0.8914 -0.4490 0.0614
vn 0.8914 0.4490 -0.0614
vn 0.1793 -0.5281 -0.8300
vn -0.5565 0.5512 -0.6217
vn -0.3203 0.6676 0.6721
vn 0.3203 -0.6676 -0.6721
vn -0.7321 -0.6304 0.2581
vn 0.7921 0.5779 -0.1966
vn 0.3104 -0.5561 -0.7710
vn -0.4980 0.5914 -0.6342
vn 0.4980 -0.5914 0.6342
vn -0.7921 -0.5779 0.1966
vn 0.1460 -0.6717 -0.7263
vn -0.1460 0.6717 0.7263
vn -0.5760 0.5367 -0.6166
vn 0.6612 -0.4655 0.5883
vn -0.6612 0.4655 -0.5883
vn 0.1321 -0.6800 -0.7212
vn -0.1321 0.6800 0.7212
vn -0.5271 0.4849 -0.6979
vn 0.5271 -0.4849 0.6979
vn -0.7660 -0.6302 0.1269
vn 0.7660 0.6302 -0.1269
vn 0.2855 -0.6354 -0.7175
vn 0.7278 0.6337 -0.2621
vn -0.7278 -0.6337 0.2621
vn -0.2855 0.6354 0.7175
vn -0.8053 -0.5421 0.2402
vn -0.5517 0.5399 -0.6356
vn 0.5517 -0.5399 0.6356
vn 0.8053 0.5421 -0.2402
vn -0.8379 -0.5273 0.1413
vn 0.1869 -0.5362 -0.8231
vn -0.1869 0.5362 0.8231
vn 0.8379 0.5273 -0.1413
vn -0.5373 0.5650 -0.6262
vn -0.3488 0.5241 0.7769
vn 0.3488 -0.5241 -0.7769
vn 0.5373 -0.5650 0.6262
usemtl Material.002
s off
f 38//1 37//1 16//1 15//1
f 42//2 41//2 19//2 20//2
f 46//3 45//3 12//3 9//3
f 50//4 49//4 22//4 23//4
f 54//5 53//5 31//5 29//5
f 34//6 33//6 27//6 28//6
f 10//7 9//7 12//7 11//7
f 47//8 46//8 9//8 10//8
f 45//9 48//9 11//9 12//9
f 48//10 47//10 10//10 11//10
f 14//11 15//11 16//11 13//11
f 40//12 39//12 14//12 13//12
f 37//13 40//13 13//13 16//13
f 39//14 38//14 15//14 14//14
f 18//15 17//15 20//15 19//15
f 41//16 43//16 18//16 19//16
f 44//17 42//17 20//17 17//17
f 43//18 44//18 17//18 18//18
f 24//19 23//19 22//19 21//19
f 51//20 50//20 23//20 24//20
f 49//21 52//21 21//21 22//21
f 52//22 51//22 24//22 21//22
f 27//23 26//23 25//23 28//23
f 36//24 35//24 25//24 26//24
f 35//25 34//25 28//25 25//25
f 33//26 36//26 26//26 27//26
f 29//27 31//27 32//27 30//27
f 55//28 54//28 29//28 30//28
f 53//29 56//29 32//29 31//29
f 56//30 55//30 30//30 32//30
f 8//31 4//31 36//31 33//31
f 2//32 6//32 34//32 35//32
f 4//33 2//33 35//33 36//33
f 6//34 8//34 33//34 34//34
f 1//35 2//35 38//35 39//35
f 4//36 3//36 40//36 37//36
f 3//37 1//37 39//37 40//37
f 2//38 4//38 37//38 38//38
f 3//39 4//39 44//39 43//39
f 4//40 8//40 42//40 44//40
f 7//41 3//41 43//41 41//41
f 8//42 7//42 41//42 42//42
f 5//43 7//43 47//43 48//43
f 6//44 5//44 48//44 45//44
f 7//45 8//45 46//45 47//45
f 8//46 6//46 45//46 46//46
f 1//47 5//47 51//47 52//47
f 2//48 1//48 52//48 49//48
f 5//49 6//49 50//49 51//49
f 6//50 2//50 49//50 50//50
f 5//51 1//51 55//51 56//51
f 7//52 5//52 56//52 53//52
f 1//53 3//53 54//53 55//53
f 3//54 7//54 53//54 54//54
