# Blender v2.79 (sub 0) OBJ File: 'TANKGAME-HANGAR.blend'
# www.blender.org
mtllib Hangar_1.mtl
o Cylinder.000_Cylinder.002
v 0.000001 9.379799 -12.732115
v 0.000001 9.379797 12.732115
v 6.632520 6.632519 -12.732115
v 6.632520 6.632518 12.732115
v -6.632519 6.632518 -12.732115
v -6.632519 6.632517 12.732115
v 5.875747 5.875746 12.732113
v 5.875747 5.875747 -12.732115
v 0.000001 8.309559 12.732115
v 0.000001 8.309561 -12.732115
v -5.875746 5.875745 12.732115
v -5.875746 5.875746 -12.732115
v 9.239551 0.338588 -12.732115
v -8.169313 0.338587 -12.732115
v -9.239552 0.338587 -9.239552
v -9.239551 0.338587 -12.732114
v 9.239552 0.338587 9.239552
v 8.169312 0.338587 -12.732115
v 8.169312 0.338586 12.732115
v -8.169312 0.338587 12.732115
v 9.239551 0.338588 12.732115
v -9.239551 0.338587 12.732116
v 7.022530 3.107166 12.732114
v 7.022530 3.107167 -12.732115
v -7.022530 3.107166 -12.732115
v -7.022530 3.107166 12.732115
v -5.875746 5.875745 9.094368
v -5.875746 5.875745 5.456621
v -5.875746 5.875745 1.818874
v -5.875746 5.875745 -1.818873
v -5.875746 5.875746 -5.456621
v -5.875746 5.875746 -9.094368
v 0.000001 8.309560 -9.094368
v 0.000001 8.309560 -5.456620
v 0.000001 8.309560 -1.818873
v 0.000001 8.309560 1.818874
v 0.000001 8.309560 5.456622
v 0.000001 8.309560 9.094368
v 5.875747 5.875746 9.094366
v 5.875747 5.875746 5.456620
v 5.875747 5.875746 1.818873
v 5.875747 5.875746 -1.818874
v 5.875747 5.875747 -5.456621
v 5.875747 5.875747 -9.094368
v 8.169312 0.338586 9.094368
v 8.169312 0.338586 5.456621
v 8.169312 0.338586 1.818873
v 8.169312 0.338587 -1.818874
v 8.169312 0.338587 -5.456621
v 8.169312 0.338587 -9.094368
v -8.169313 0.338587 -9.094368
v -8.169313 0.338587 -5.456621
v -8.169313 0.338587 -1.818873
v -8.169313 0.338587 1.818874
v -8.169313 0.338587 5.456621
v -8.169313 0.338587 9.094368
v 7.022530 3.107166 9.094366
v 7.022530 3.107166 5.456619
v 7.022530 3.107167 1.818873
v 7.022530 3.107167 -1.818874
v 7.022530 3.107167 -5.456621
v 7.022530 3.107167 -9.094368
v -7.022530 3.107166 9.094368
v -7.022530 3.107166 5.456621
v -7.022530 3.107166 1.818874
v -7.022530 3.107166 -1.818874
v -7.022530 3.107166 -5.456621
v -7.022530 3.107166 -9.094368
v -5.875746 5.875746 -6.853223
v -5.875746 5.875746 -7.697766
v 0.000001 8.309560 -7.697766
v 0.000001 8.309560 -6.853223
v 5.875747 5.875747 -6.853223
v 5.875747 5.875747 -7.697766
v 8.169312 0.338587 -6.853224
v 8.169312 0.338587 -7.697766
v -8.169313 0.338587 -7.697766
v -8.169313 0.338587 -6.853223
v 7.022530 3.107167 -6.853224
v 7.022530 3.107167 -7.697766
v -7.022530 3.107166 -6.853224
v -7.022530 3.107166 -7.697766
v -5.875746 5.875745 0.422272
v -5.875746 5.875745 -0.422271
v 0.000001 8.309560 -0.422271
v 0.000001 8.309560 0.422272
v 5.875747 5.875746 0.422271
v 5.875747 5.875746 -0.422272
v 8.169312 0.338586 0.422271
v 8.169312 0.338586 -0.422272
v -8.169313 0.338587 -0.422271
v -8.169313 0.338587 0.422272
v 7.022530 3.107167 0.422271
v 7.022530 3.107167 -0.422272
v -7.022530 3.107166 0.422272
v -7.022530 3.107166 -0.422271
v -5.875746 5.875745 7.697767
v -5.875746 5.875745 6.853223
v 0.000001 8.309560 6.853224
v 0.000001 8.309560 7.697767
v 5.875747 5.875746 7.697765
v 5.875747 5.875746 6.853222
v 8.169312 0.338586 7.697766
v 8.169312 0.338587 6.853223
v -8.169313 0.338587 6.853224
v -8.169313 0.338587 7.697767
v 7.022530 3.107166 7.697765
v 7.022530 3.107166 6.853222
v -7.022530 3.107166 7.697766
v -7.022530 3.107166 6.853223
v -5.571780 5.052778 -6.853224
v -5.571780 5.052778 -7.697766
v 0.000000 7.360685 -7.697766
v 0.000000 7.360685 -6.853223
v 5.571781 5.052779 -6.853224
v 5.571781 5.052779 -7.697766
v 6.659237 2.427424 -6.853224
v 6.659237 2.427424 -7.697766
v -6.659237 2.427423 -6.853224
v -6.659237 2.427423 -7.697766
v -5.571780 5.052777 0.422272
v -5.571780 5.052777 -0.422271
v 0.000000 7.360685 -0.422271
v 0.000000 7.360685 0.422272
v 5.571781 5.052778 0.422271
v 5.571781 5.052778 -0.422272
v 6.659237 2.427424 0.422271
v 6.659237 2.427424 -0.422272
v -6.659237 2.427423 0.422271
v -6.659237 2.427423 -0.422272
v -5.571780 5.052777 7.697766
v -5.571780 5.052777 6.853223
v 0.000000 7.360684 6.853224
v 0.000000 7.360684 7.697767
v 5.571781 5.052778 7.697765
v 5.571781 5.052778 6.853222
v 6.659237 2.427423 7.697765
v 6.659237 2.427423 6.853222
v -6.659237 2.427423 7.697766
v -6.659237 2.427423 6.853223
v 0.000001 9.379798 -9.094368
v 0.000001 9.379798 -5.456620
v 0.000001 9.379798 -1.818873
v 0.000001 9.379798 1.818874
v 0.000001 9.379798 5.456622
v 0.000001 9.379798 9.094368
v 6.632520 6.632518 9.094368
v 6.632520 6.632518 5.456621
v 6.632520 6.632519 1.818874
v 6.632520 6.632519 -1.818873
v 6.632520 6.632519 -5.456621
v 6.632520 6.632519 -9.094368
v -6.632519 6.632517 9.094368
v -6.632519 6.632517 5.456621
v -6.632519 6.632518 1.818874
v -6.632519 6.632518 -1.818873
v -6.632519 6.632518 -5.456621
v -6.632519 6.632518 -9.094368
v 0.000001 9.379798 -7.697766
v 0.000001 9.379798 -6.853223
v 6.632520 6.632519 -6.853223
v 6.632520 6.632519 -7.697766
v -6.632519 6.632518 -6.853223
v -6.632519 6.632518 -7.697766
v 0.000001 9.379798 -0.422271
v 0.000001 9.379798 0.422272
v 6.632520 6.632519 0.422272
v 6.632520 6.632519 -0.422271
v -6.632519 6.632518 0.422272
v -6.632519 6.632518 -0.422271
v 0.000001 9.379798 6.853224
v 0.000001 9.379798 7.697767
v 6.632520 6.632518 7.697767
v 6.632520 6.632518 6.853223
v -6.632519 6.632517 7.697767
v -6.632519 6.632517 6.853223
v 0.000001 9.916525 -7.697766
v 0.000001 9.916525 -6.853223
v 6.632520 7.169246 -6.853223
v 6.632520 7.169246 -7.697766
v -6.632519 7.169245 -6.853223
v -6.632519 7.169245 -7.697766
v 0.000001 9.916525 -0.422271
v 0.000001 9.916525 0.422272
v 6.632520 7.169246 0.422272
v 6.632520 7.169246 -0.422271
v -6.632519 7.169245 0.422272
v -6.632519 7.169245 -0.422271
v 0.000001 9.916525 6.853224
v 0.000001 9.916525 7.697767
v 6.632520 7.169245 7.697767
v 6.632520 7.169245 6.853223
v -6.632519 7.169244 7.697767
v -6.632519 7.169244 6.853223
v -0.000000 7.499346 6.853224
v -0.000000 7.499346 7.697770
v -0.000000 7.499347 0.422271
v -0.000000 7.499347 -0.422270
v -0.000000 7.499347 -6.853223
v -0.000000 7.499347 -7.697766
v 0.204976 7.584250 6.853224
v 0.204976 7.584250 7.697770
v 0.204976 7.584251 0.422275
v 0.204976 7.584251 -0.422270
v 0.204976 7.584251 -6.853223
v 0.204976 7.584251 -7.697766
v 0.204976 7.994203 6.853224
v 0.204976 7.994203 7.697769
v 0.204976 7.994203 0.422275
v 0.204976 7.994203 -0.422270
v 0.204976 7.994204 -6.853223
v 0.204976 7.994204 -7.697766
v 0.000000 8.079107 6.853224
v 0.000000 8.079107 7.697770
v 0.000000 8.079107 0.422271
v 0.000000 8.079107 -0.422270
v 0.000000 8.079107 -6.853223
v 0.000000 8.079107 -7.697766
v -0.204976 7.584250 7.697769
v -0.204976 7.584250 6.853220
v -0.204976 7.584251 0.422273
v -0.204976 7.584250 -0.422272
v -0.204976 7.584251 -6.853223
v -0.204976 7.584251 -7.697766
v -0.204976 7.994203 7.697769
v -0.204976 7.994203 6.853226
v -0.204976 7.994203 0.422273
v -0.204976 7.994203 -0.422272
v -0.204976 7.994204 -6.853223
v -0.204976 7.994204 -7.697766
v -0.289880 7.789227 7.697769
v -0.289880 7.789227 6.853220
v -0.289880 7.789227 0.422273
v -0.289880 7.789227 -0.422272
v -0.289880 7.789227 -6.853223
v -0.289880 7.789227 -7.697766
v 0.289880 7.789227 6.853224
v 0.289880 7.789227 7.697770
v 0.289880 7.789227 0.422275
v 0.289880 7.789227 -0.422270
v 0.289880 7.789227 -6.853223
v 0.289880 7.789228 -7.697766
v 5.385820 5.303185 7.697767
v 5.385820 5.303185 6.853223
v 5.385820 5.303185 0.422271
v 5.385819 5.303185 -0.422272
v 5.385820 5.303186 -6.853224
v 5.385820 5.303186 -7.697767
v 5.590796 5.388089 7.697767
v 5.590796 5.388089 6.853223
v 5.590796 5.388090 0.422271
v 5.590796 5.388089 -0.422272
v 5.590796 5.388090 -6.853224
v 5.590796 5.388090 -7.697767
v 5.590796 5.798041 7.697767
v 5.590796 5.798041 6.853224
v 5.590796 5.798042 0.422271
v 5.590796 5.798042 -0.422272
v 5.590796 5.798043 -6.853223
v 5.590796 5.798042 -7.697766
v 5.385820 5.882946 7.697767
v 5.385820 5.882946 6.853224
v 5.385820 5.882946 0.422271
v 5.385819 5.882946 -0.422272
v 5.385820 5.882946 -6.853223
v 5.385820 5.882946 -7.697766
v 5.180844 5.388089 7.697767
v 5.180844 5.388089 6.853223
v 5.180844 5.388090 0.422271
v 5.180843 5.388089 -0.422272
v 5.180844 5.388090 -6.853224
v 5.180844 5.388090 -7.697767
v 5.180844 5.798041 7.697767
v 5.180844 5.798041 6.853224
v 5.180844 5.798042 0.422271
v 5.180843 5.798042 -0.422272
v 5.180844 5.798043 -6.853223
v 5.180844 5.798042 -7.697766
v 5.095940 5.593065 7.697767
v 5.095940 5.593066 6.853224
v 5.095940 5.593066 0.422271
v 5.095940 5.593066 -0.422272
v 5.095940 5.593066 -6.853223
v 5.095940 5.593066 -7.697766
v 5.675700 5.593065 7.697767
v 5.675700 5.593066 6.853224
v 5.675700 5.593066 0.422271
v 5.675700 5.593066 -0.422272
v 5.675701 5.593066 -6.853223
v 5.675700 5.593066 -7.697766
v -5.385820 5.303185 7.697767
v -5.385820 5.303185 6.853226
v -5.385820 5.303185 0.422271
v -5.385820 5.303185 -0.422270
v -5.385820 5.303185 -6.853224
v -5.385820 5.303186 -7.697767
v -5.180844 5.388089 7.697767
v -5.180844 5.388089 6.853226
v -5.180844 5.388090 0.422271
v -5.180844 5.388090 -0.422270
v -5.180843 5.388090 -6.853224
v -5.180844 5.388090 -7.697767
v -5.180844 5.798041 7.697767
v -5.180844 5.798041 6.853226
v -5.180844 5.798042 0.422271
v -5.180844 5.798042 -0.422270
v -5.180843 5.798042 -6.853223
v -5.180844 5.798042 -7.697766
v -5.385820 5.882946 7.697767
v -5.385820 5.882946 6.853226
v -5.385820 5.882946 0.422271
v -5.385820 5.882946 -0.422270
v -5.385820 5.882946 -6.853223
v -5.385820 5.882946 -7.697766
v -5.590796 5.388089 7.697767
v -5.590796 5.388089 6.853226
v -5.590796 5.388090 0.422271
v -5.590796 5.388090 -0.422270
v -5.590796 5.388090 -6.853224
v -5.590796 5.388090 -7.697767
v -5.590796 5.798041 7.697767
v -5.590796 5.798041 6.853226
v -5.590796 5.798042 0.422271
v -5.590796 5.798042 -0.422270
v -5.590796 5.798042 -6.853223
v -5.590796 5.798042 -7.697766
v -5.675700 5.593065 7.697767
v -5.675700 5.593065 6.853226
v -5.675700 5.593066 0.422271
v -5.675700 5.593066 -0.422270
v -5.675700 5.593066 -6.853223
v -5.675700 5.593066 -7.697766
v -5.095940 5.593065 7.697767
v -5.095940 5.593065 6.853226
v -5.095940 5.593066 0.422271
v -5.095940 5.593066 -0.422270
v -5.095940 5.593066 -6.853223
v -5.095940 5.593066 -7.697766
vn 0.9239 0.3827 0.0000
vn -0.0000 -0.0000 1.0000
vn -0.3827 0.9239 0.0000
vn 0.0000 0.0000 -1.0000
vn 0.9239 -0.3827 -0.0000
vn -0.3827 -0.9239 -0.0000
vn -0.9239 -0.3827 0.0000
vn 0.0000 -1.0000 -0.0000
vn -0.9239 0.3827 0.0000
vn 0.3827 -0.9239 0.0000
vn 0.3827 0.9239 0.0000
vn 1.0000 0.0000 0.0000
vn -1.0000 0.0000 0.0000
vn 0.8819 -0.4714 0.0000
vn -0.8819 -0.4714 0.0000
usemtl Material.006
s off
f 3//1 152//1 162//1 161//1 151//1 150//1 168//1 167//1 149//1 148//1 174//1 173//1 147//1 4//1 21//1 17//1 13//1
f 4//2 2//2 6//2 22//2 20//2 26//2 11//2 9//2 7//2 23//2 19//2 21//2
f 153//3 6//3 2//3 146//3
f 1//4 3//4 13//4 18//4 24//4 8//4 10//4 12//4 25//4 14//4 16//4 5//4
f 63//5 26//5 20//5 56//5
f 39//6 7//6 9//6 38//6
f 57//7 23//7 7//7 39//7
f 22//8 15//8 16//8 14//8 51//8 77//8 78//8 52//8 53//8 91//8 92//8 54//8 55//8 105//8 106//8 56//8 20//8
f 19//8 45//8 103//8 104//8 46//8 47//8 89//8 90//8 48//8 49//8 75//8 76//8 50//8 18//8 13//8 17//8 21//8
f 16//9 15//9 22//9 6//9 153//9 175//9 176//9 154//9 155//9 169//9 170//9 156//9 157//9 163//9 164//9 158//9 5//9
f 45//7 19//7 23//7 57//7
f 27//5 11//5 26//5 63//5
f 12//5 32//5 68//5 25//5
f 69//5 31//5 67//5 81//5
f 31//5 30//5 66//5 67//5
f 83//5 29//5 65//5 95//5
f 29//5 28//5 64//5 65//5
f 97//5 27//5 63//5 109//5
f 18//7 50//7 62//7 24//7
f 75//7 49//7 61//7 79//7
f 49//7 48//7 60//7 61//7
f 89//7 47//7 59//7 93//7
f 47//7 46//7 58//7 59//7
f 103//7 45//7 57//7 107//7
f 24//7 62//7 44//7 8//7
f 79//7 61//7 43//7 73//7
f 61//7 60//7 42//7 43//7
f 93//7 59//7 41//7 87//7
f 59//7 58//7 40//7 41//7
f 107//7 57//7 39//7 101//7
f 8//6 44//6 33//6 10//6
f 73//6 43//6 34//6 72//6
f 87//6 41//6 36//6 86//6
f 41//6 40//6 37//6 36//6
f 72//10 34//10 31//10 69//10
f 34//10 35//10 30//10 31//10
f 86//10 36//10 29//10 83//10
f 100//10 38//10 27//10 97//10
f 25//5 68//5 51//5 14//5
f 81//5 67//5 52//5 78//5
f 67//5 66//5 53//5 52//5
f 95//5 65//5 54//5 92//5
f 65//5 64//5 55//5 54//5
f 109//5 63//5 56//5 106//5
f 82//5 81//5 78//5 77//5
f 33//10 71//10 70//10 32//10
f 44//6 74//6 71//6 33//6
f 50//7 76//7 80//7 62//7
f 76//7 75//7 79//7 80//7
f 32//5 70//5 82//5 68//5
f 66//5 96//5 91//5 53//5
f 96//5 95//5 92//5 91//5
f 35//10 85//10 84//10 30//10
f 42//6 88//6 85//6 35//6
f 60//7 94//7 88//7 42//7
f 90//7 89//7 93//7 94//7
f 64//5 110//5 105//5 55//5
f 110//5 109//5 106//5 105//5
f 37//10 99//10 98//10 28//10
f 40//6 102//6 99//6 37//6
f 46//7 104//7 108//7 58//7
f 104//7 103//7 107//7 108//7
f 28//5 98//5 110//5 64//5
f 163//3 157//3 142//3 160//3
f 157//3 156//3 143//3 142//3
f 169//3 155//3 144//3 166//3
f 155//3 154//3 145//3 144//3
f 175//3 153//3 146//3 172//3
f 1//11 141//11 152//11 3//11
f 160//11 142//11 151//11 161//11
f 142//11 143//11 150//11 151//11
f 166//11 144//11 149//11 167//11
f 172//11 146//11 147//11 173//11
f 141//11 159//11 162//11 152//11
f 158//3 164//3 159//3 141//3
f 156//3 170//3 165//3 143//3
f 145//11 171//11 174//11 148//11
usemtl Material.007
f 169//2 166//2 184//2 187//2
f 174//4 171//4 189//4 192//4
f 165//4 170//4 188//4 183//4
f 161//12 162//12 180//12 179//12
f 176//13 175//13 193//13 194//13
f 166//2 167//2 185//2 184//2
f 177//11 178//11 179//11 180//11
f 182//3 181//3 178//3 177//3
f 183//11 184//11 185//11 186//11
f 188//3 187//3 184//3 183//3
f 189//11 190//11 191//11 192//11
f 194//3 193//3 190//3 189//3
f 172//2 173//2 191//2 190//2
f 164//13 163//13 181//13 182//13
f 167//12 168//12 186//12 185//12
f 171//4 176//4 194//4 189//4
f 162//4 159//4 177//4 180//4
f 175//2 172//2 190//2 193//2
f 160//2 161//2 179//2 178//2
f 170//13 169//13 187//13 188//13
f 159//4 164//4 182//4 177//4
f 173//12 174//12 192//12 191//12
f 168//4 165//4 183//4 186//4
f 163//2 160//2 178//2 181//2
usemtl Material.008
f 83//2 95//2 129//2 121//2
f 82//4 70//4 112//4 120//4
f 94//14 93//14 127//14 128//14
f 97//2 109//2 139//2 131//2
f 96//4 84//4 122//4 130//4
f 108//14 107//14 137//14 138//14
f 110//4 98//4 132//4 140//4
f 79//2 73//2 115//2 117//2
f 93//2 87//2 125//2 127//2
f 74//4 80//4 118//4 116//4
f 107//2 101//2 135//2 137//2
f 88//4 94//4 128//4 126//4
f 113//10 114//10 111//10 112//10
f 116//6 115//6 114//6 113//6
f 118//7 117//7 115//7 116//7
f 112//5 111//5 119//5 120//5
f 123//10 124//10 121//10 122//10
f 126//6 125//6 124//6 123//6
f 128//7 127//7 125//7 126//7
f 122//5 121//5 129//5 130//5
f 133//10 134//10 131//10 132//10
f 136//6 135//6 134//6 133//6
f 138//7 137//7 135//7 136//7
f 132//5 131//5 139//5 140//5
f 80//14 79//14 117//14 118//14
f 109//15 110//15 140//15 139//15
f 69//2 81//2 119//2 111//2
f 95//15 96//15 130//15 129//15
f 81//15 82//15 120//15 119//15
f 98//4 328//4 316//4 292//4 298//4 334//4 133//4 132//4
f 84//4 330//4 318//4 294//4 300//4 336//4 123//4 122//4
f 100//2 97//2 327//2 321//2 309//2 303//2 333//2 134//2 196//2 219//2 231//2 225//2 214//2
f 70//4 332//4 320//4 296//4 302//4 338//4 113//4 112//4
f 86//2 83//2 329//2 323//2 311//2 305//2 335//2 124//2 197//2 221//2 233//2 227//2 215//2
f 99//4 102//4 286//4 256//4 262//4 274//4 280//4 133//4 195//4 201//4 237//4 207//4 213//4
f 72//2 69//2 331//2 325//2 313//2 307//2 337//2 114//2 199//2 223//2 235//2 229//2 217//2
f 85//4 88//4 288//4 258//4 264//4 276//4 282//4 123//4 198//4 204//4 240//4 210//4 216//4
f 101//2 100//2 214//2 208//2 238//2 202//2 196//2 134//2 279//2 273//2 261//2 255//2 285//2
f 71//4 74//4 290//4 260//4 266//4 278//4 284//4 113//4 200//4 206//4 242//4 212//4 218//4
f 87//2 86//2 215//2 209//2 239//2 203//2 197//2 124//2 281//2 275//2 263//2 257//2 287//2
f 102//4 108//4 138//4 136//4
f 73//2 72//2 217//2 211//2 241//2 205//2 199//2 114//2 283//2 277//2 265//2 259//2 289//2
f 236//1 235//1 223//1 224//1
f 234//1 233//1 221//1 222//1
f 232//1 231//1 219//1 220//1
f 230//5 229//5 235//5 236//5
f 228//5 227//5 233//5 234//5
f 226//5 225//5 231//5 232//5
f 206//9 205//9 241//9 242//9
f 204//9 203//9 239//9 240//9
f 201//9 202//9 238//9 237//9
f 200//3 199//3 205//3 206//3
f 198//3 197//3 203//3 204//3
f 195//3 196//3 202//3 201//3
f 218//10 217//10 229//10 230//10
f 216//10 215//10 227//10 228//10
f 213//10 214//10 225//10 226//10
f 212//6 211//6 217//6 218//6
f 210//6 209//6 215//6 216//6
f 207//6 208//6 214//6 213//6
f 242//7 241//7 211//7 212//7
f 240//7 239//7 209//7 210//7
f 237//7 238//7 208//7 207//7
f 224//11 223//11 199//11 200//11
f 222//11 221//11 197//11 198//11
f 220//11 219//11 196//11 195//11
f 284//1 283//1 271//1 272//1
f 282//1 281//1 269//1 270//1
f 280//1 279//1 267//1 268//1
f 254//9 253//9 289//9 290//9
f 252//9 251//9 287//9 288//9
f 250//9 249//9 285//9 286//9
f 278//5 277//5 283//5 284//5
f 276//5 275//5 281//5 282//5
f 274//5 273//5 279//5 280//5
f 248//3 247//3 253//3 254//3
f 246//3 245//3 251//3 252//3
f 244//3 243//3 249//3 250//3
f 285//2 249//2 243//2 267//2 279//2 134//2 135//2 101//2
f 266//10 265//10 277//10 278//10
f 264//10 263//10 275//10 276//10
f 262//10 261//10 273//10 274//10
f 289//2 253//2 247//2 271//2 283//2 114//2 115//2 73//2
f 260//6 259//6 265//6 266//6
f 258//6 257//6 263//6 264//6
f 256//6 255//6 261//6 262//6
f 113//4 284//4 272//4 248//4 254//4 290//4 74//4 116//4
f 123//4 282//4 270//4 246//4 252//4 288//4 88//4 126//4
f 290//7 289//7 259//7 260//7
f 288//7 287//7 257//7 258//7
f 286//7 285//7 255//7 256//7
f 272//11 271//11 247//11 248//11
f 270//11 269//11 245//11 246//11
f 268//11 267//11 243//11 244//11
f 287//2 251//2 245//2 269//2 281//2 124//2 125//2 87//2
f 133//4 280//4 268//4 244//4 250//4 286//4 102//4 136//4
f 332//1 331//1 319//1 320//1
f 330//1 329//1 317//1 318//1
f 328//1 327//1 315//1 316//1
f 302//9 301//9 337//9 338//9
f 300//9 299//9 335//9 336//9
f 298//9 297//9 333//9 334//9
f 326//5 325//5 331//5 332//5
f 324//5 323//5 329//5 330//5
f 322//5 321//5 327//5 328//5
f 296//3 295//3 301//3 302//3
f 294//3 293//3 299//3 300//3
f 292//3 291//3 297//3 298//3
f 123//4 336//4 306//4 312//4 324//4 330//4 84//4 85//4 216//4 228//4 234//4 222//4 198//4
f 113//4 338//4 308//4 314//4 326//4 332//4 70//4 71//4 218//4 230//4 236//4 224//4 200//4
f 314//10 313//10 325//10 326//10
f 312//10 311//10 323//10 324//10
f 310//10 309//10 321//10 322//10
f 134//2 333//2 297//2 291//2 315//2 327//2 97//2 131//2
f 114//2 337//2 301//2 295//2 319//2 331//2 69//2 111//2
f 133//4 334//4 304//4 310//4 322//4 328//4 98//4 99//4 213//4 226//4 232//4 220//4 195//4
f 308//6 307//6 313//6 314//6
f 306//6 305//6 311//6 312//6
f 304//6 303//6 309//6 310//6
f 124//2 335//2 299//2 293//2 317//2 329//2 83//2 121//2
f 338//7 337//7 307//7 308//7
f 336//7 335//7 305//7 306//7
f 334//7 333//7 303//7 304//7
f 320//11 319//11 295//11 296//11
f 318//11 317//11 293//11 294//11
f 316//11 315//11 291//11 292//11
usemtl Material.012
f 146//11 2//11 4//11 147//11
f 38//10 9//10 11//10 27//10
f 43//6 42//6 35//6 34//6
f 101//6 39//6 38//6 100//6
f 10//10 33//10 32//10 12//10
f 36//10 37//10 28//10 29//10
f 68//5 82//5 77//5 51//5
f 62//7 80//7 74//7 44//7
f 48//7 90//7 94//7 60//7
f 30//5 84//5 96//5 66//5
f 58//7 108//7 102//7 40//7
f 5//3 158//3 141//3 1//3
f 144//11 145//11 148//11 149//11
f 143//11 165//11 168//11 150//11
f 154//3 176//3 171//3 145//3
o Cylinder_Cylinder.005
v -0.000000 6.778376 -11.550242
v 0.000000 8.795816 -12.450443
v 4.971642 4.719054 -11.550242
v 6.219581 6.219581 -12.450443
v -4.971643 4.719054 -11.550242
v -6.219583 6.219581 -12.450443
v 8.684722 0.268206 -12.450444
v 6.548657 0.911801 -11.550242
v -8.684722 0.268205 -12.450444
v -6.548659 0.911801 -11.550242
v 0.000000 8.795816 -11.550242
v 6.219581 6.219581 -11.550242
v -8.684722 0.268205 -11.550242
v -6.219583 6.219581 -11.550242
v 8.684722 0.268206 -11.550242
v -0.000000 6.778376 -12.008425
v 4.971642 4.719054 -12.008425
v -6.548659 0.911801 -12.008425
v -4.971643 4.719054 -12.008425
v 6.548657 0.911801 -12.008425
vn 0.3827 0.9239 0.0000
vn 0.9239 0.3827 0.0000
vn -0.0000 0.0000 -1.0000
vn -0.3827 0.9239 0.0000
vn -0.9239 0.3827 0.0000
vn 0.0000 -1.0000 -0.0000
vn -0.0000 0.0000 1.0000
vn 0.3827 -0.9239 0.0000
vn -0.3827 -0.9239 0.0000
vn -0.0000 1.0000 0.0000
vn 0.9239 -0.3827 0.0000
vn -0.9239 -0.3827 0.0000
usemtl Material.010
s off
f 349//16 350//16 342//16 340//16
f 350//17 353//17 345//17 342//17
f 342//18 345//18 347//18 344//18 340//18
f 352//19 349//19 340//19 344//19
f 351//20 352//20 344//20 347//20
f 353//21 351//21 347//21 345//21
f 341//22 350//22 349//22 339//22
f 343//22 352//22 351//22 348//22
f 339//22 349//22 352//22 343//22
f 348//22 351//22 353//22 346//22
f 346//22 353//22 350//22 341//22
usemtl Material.011
f 343//23 357//23 354//23 339//23
f 354//22 357//22 356//22 358//22 355//22
f 339//24 354//24 355//24 341//24
f 346//25 358//25 356//25 348//25
f 348//26 356//26 357//26 343//26
f 341//27 355//27 358//27 346//27
