# Blender v2.79 (sub 0) OBJ File: 'TANKGAME-DECORATION_2.blend'
# www.blender.org
mtllib Decoration_2.mtl
o Cube.001
v -0.006138 0.069540 0.160953
v 0.116166 0.136551 0.030435
v 0.104993 -0.042508 0.091967
v 0.092852 -0.061953 0.122880
v 0.043836 -0.143592 0.083271
v -0.124733 -0.166313 0.041751
v -0.047055 0.011310 0.161221
v -0.031457 -0.054170 0.160970
v -0.080352 -0.077638 0.133934
v -0.080809 0.002913 0.118843
v 0.124317 0.157237 -0.009122
v 0.118511 0.075098 -0.049808
v 0.065168 0.180606 -0.033288
v -0.147710 -0.107861 -0.024532
v -0.086721 0.003072 0.116682
v -0.087428 0.123483 -0.115432
v -0.170701 -0.088494 -0.137155
v 0.105230 -0.103112 -0.088937
v 0.035559 -0.156570 -0.128997
v -0.045538 -0.125636 -0.221909
v 0.013747 -0.025422 -0.186688
v 0.006533 0.194754 -0.032750
v -0.026505 0.076735 0.133963
v -0.051188 0.163284 -0.068086
v -0.062309 0.035988 0.138059
v 0.100646 -0.003417 -0.103985
v 0.030172 -0.025190 -0.175988
v 0.090915 -0.048696 -0.118253
vn -0.6422 0.6731 0.3668
vn -0.6447 0.0068 0.7644
vn -0.9167 0.0394 0.3977
vn 0.0154 -0.6519 0.7581
vn 0.5432 0.1452 0.8269
vn 0.4719 0.3643 -0.8028
vn -0.3460 0.3189 -0.8824
vn -0.1981 -0.9733 -0.1157
vn 0.7532 -0.6502 0.0999
vn 0.7017 0.0725 -0.7087
vn -0.9080 0.3631 0.2088
vn -0.6271 0.3471 0.6973
vn 0.3668 0.5098 -0.7782
vn 0.0707 0.8460 0.5285
vn 0.6523 -0.2183 -0.7258
vn 0.9979 -0.0628 -0.0134
usemtl Material.001
s off
f 23//1 22//1 24//1 25//1
f 8//2 7//2 10//2 9//2
f 15//3 14//3 6//3 9//3 10//3
f 6//4 5//4 4//4 8//4 9//4
f 4//5 3//5 2//5 1//5 7//5 8//5
f 12//6 13//6 11//6
f 21//7 20//7 17//7 16//7
f 20//8 19//8 5//8 6//8 14//8 17//8
f 5//9 19//9 18//9 3//9 4//9
f 28//10 27//10 26//10
f 17//11 14//11 15//11 25//11 24//11 16//11
f 7//12 1//12 23//12 25//12 15//12 10//12
f 27//13 21//13 16//13 24//13 22//13 13//13 12//13 26//13
f 11//14 13//14 22//14 23//14 1//14 2//14
f 18//15 19//15 20//15 21//15 27//15 28//15
f 3//16 18//16 28//16 26//16 12//16 11//16 2//16
