# Blender v2.79 (sub 0) OBJ File: 'TANKGAME-DECORATION_1.blend'
# www.blender.org
mtllib Decoration_1.mtl
o Cube.001
v -0.025693 -0.082745 -0.144171
v 0.127494 -0.123384 -0.088027
v 0.122805 0.075200 -0.058163
v 0.105343 0.098613 -0.088198
v 0.049322 0.181837 -0.036475
v -0.156495 0.140143 -0.000326
v -0.067091 -0.039252 -0.121138
v -0.042098 0.033771 -0.119083
v -0.101724 0.056719 -0.105315
v -0.110478 -0.025063 -0.087841
v 0.134908 -0.154068 -0.049304
v 0.146687 -0.079381 0.010079
v 0.053761 -0.172013 -0.029084
v -0.180390 0.071514 0.045374
v -0.117850 -0.024287 -0.087339
v -0.106295 -0.097325 0.082654
v -0.199503 0.101049 0.115904
v 0.140106 0.123867 0.086044
v 0.057878 0.176709 0.133032
v -0.035529 0.134513 0.230375
v 0.064663 0.016624 0.191448
v -0.021581 -0.173131 -0.030375
v -0.053713 -0.091812 -0.133948
v -0.079099 -0.135709 0.018846
v -0.091033 -0.062027 -0.118088
v 0.152246 -0.006913 0.089179
v 0.082964 0.015092 0.178568
v 0.150395 0.041460 0.115373
vn -0.6809 -0.6660 -0.3045
vn -0.4156 -0.0000 -0.9096
vn -0.8754 0.0334 -0.4823
vn -0.1417 0.5989 -0.7882
vn 0.3128 0.1082 -0.9436
vn 0.3161 -0.6205 0.7177
vn -0.3705 -0.4161 0.8305
vn -0.3102 0.9453 0.1013
vn 0.6914 0.7084 -0.1420
vn 0.7117 -0.3132 0.6287
vn -0.8962 -0.4278 -0.1177
vn -0.3597 0.2583 -0.8966
vn 0.2285 -0.7569 0.6123
vn 0.0211 -0.7828 -0.6219
vn 0.6070 0.3029 0.7347
vn 0.9832 0.0714 -0.1683
usemtl Material.001
s off
f 23//1 22//1 24//1 25//1
f 8//2 7//2 10//2 9//2
f 15//3 14//3 6//3 9//3 10//3
f 6//4 5//4 4//4 8//4 9//4
f 4//5 3//5 2//5 1//5 7//5 8//5
f 12//6 13//6 11//6
f 21//7 20//7 17//7 16//7
f 20//8 19//8 5//8 6//8 14//8 17//8
f 5//9 19//9 18//9 3//9 4//9
f 28//10 27//10 26//10
f 17//11 14//11 15//11 25//11 24//11 16//11
f 7//12 1//12 23//12 25//12 15//12 10//12
f 27//13 21//13 16//13 24//13 22//13 13//13 12//13 26//13
f 11//14 13//14 22//14 23//14 1//14 2//14
f 18//15 19//15 20//15 21//15 27//15 28//15
f 3//16 18//16 28//16 26//16 12//16 11//16 2//16
