# Blender v2.79 (sub 0) OBJ File: 'TANKGAME-DECORATION_2.blend'
# www.blender.org
mtllib Decoration_4.mtl
o Cube.001
v -0.025447 -0.023920 -0.130470
v 0.150996 -0.066300 -0.029826
v 0.129889 0.087172 -0.033624
v 0.123820 0.105208 -0.050321
v 0.073055 0.140742 -0.023070
v -0.120155 0.109158 -0.073160
v -0.055910 0.009312 -0.140510
v -0.013074 0.065105 -0.130782
v -0.059818 0.073048 -0.126380
v -0.087785 0.014961 -0.128231
v 0.153094 -0.112174 -0.009303
v 0.132099 -0.054447 0.079655
v 0.110153 -0.137093 -0.011865
v -0.157174 0.062972 -0.060545
v -0.091777 0.014869 -0.128590
v -0.139317 -0.124810 -0.017513
v -0.192331 0.030107 -0.010283
v 0.093803 0.058294 0.180554
v 0.032249 0.075461 0.198154
v -0.034701 0.030454 0.227491
v 0.024894 -0.016157 0.201512
v -0.035606 -0.159160 -0.038987
v -0.051456 -0.032704 -0.122199
v -0.108943 -0.143330 -0.036168
v -0.075892 -0.007186 -0.133472
v 0.101074 -0.005627 0.165091
v 0.038012 -0.012640 0.198985
v 0.086250 0.018684 0.183858
vn -0.1626 -0.5517 -0.8181
vn -0.1694 0.2034 -0.9643
vn -0.5473 0.2860 -0.7866
vn 0.0725 0.7964 -0.6004
vn 0.5179 -0.0331 -0.8548
vn 0.3889 -0.7282 0.5643
vn -0.6660 -0.4679 0.5809
vn -0.3847 0.8743 0.2960
vn 0.5473 0.7900 0.2764
vn 0.4744 -0.3381 0.8128
vn -0.7283 -0.2475 -0.6390
vn -0.1415 -0.2945 -0.9451
vn 0.0566 -0.8382 0.5424
vn 0.2598 -0.5055 -0.8228
vn 0.3258 0.0157 0.9453
vn 0.9712 0.1351 0.1964
usemtl Material.001
s off
f 23//1 22//1 24//1 25//1
f 8//2 7//2 10//2 9//2
f 15//3 14//3 6//3 9//3 10//3
f 6//4 5//4 4//4 8//4 9//4
f 4//5 3//5 2//5 1//5 7//5 8//5
f 12//6 13//6 11//6
f 21//7 20//7 17//7 16//7
f 20//8 19//8 5//8 6//8 14//8 17//8
f 5//9 19//9 18//9 3//9 4//9
f 28//10 27//10 26//10
f 17//11 14//11 15//11 25//11 24//11 16//11
f 7//12 1//12 23//12 25//12 15//12 10//12
f 27//13 21//13 16//13 24//13 22//13 13//13 12//13 26//13
f 11//14 13//14 22//14 23//14 1//14 2//14
f 18//15 19//15 20//15 21//15 27//15 28//15
f 3//16 18//16 28//16 26//16 12//16 11//16 2//16
