# Blender v2.79 (sub 0) OBJ File: 'Crosshair.blend'
# www.blender.org
mtllib Crosshair.mtl
v -2.576802 -0.082501 0.200548
v -2.576802 0.082501 0.200548
v -2.576802 -0.082501 -0.200548
v -2.576802 0.082501 -0.200548
v 2.576802 -0.082501 0.200548
v 2.576802 0.082501 0.200548
v 2.576802 -0.082501 -0.200548
v 2.576802 0.082501 -0.200548
v -0.200548 -0.082501 -2.576800
v -0.200548 -0.082501 2.576800
v -0.200548 0.082501 2.576800
v -0.200548 0.082501 -2.576800
v 0.200548 0.082501 -2.576800
v 0.200548 -0.082501 -2.576800
v 0.200548 -0.082501 2.576800
v 0.200548 0.082501 2.576800
v 0.955679 0.082501 -0.200548
v 0.955679 -0.082501 -0.200548
v 0.955679 -0.082501 0.200548
v 0.955679 0.082501 0.200548
v -0.200548 0.082501 -0.955679
v -0.200548 -0.082501 -0.955679
v 0.200548 -0.082501 -0.955679
v 0.200548 0.082501 -0.955679
v -0.955679 -0.082501 0.200548
v -0.955679 -0.082501 -0.200548
v -0.955679 0.082501 0.200548
v -0.955679 0.082501 -0.200548
v -0.200548 -0.082501 0.955678
v -0.200548 0.082501 0.955678
v 0.200548 0.082501 0.955678
v 0.200548 -0.082501 0.955678
vn -1.0000 0.0000 0.0000
vn 0.0000 0.0000 -1.0000
vn 1.0000 0.0000 0.0000
vn 0.0000 0.0000 1.0000
vn 0.0000 1.0000 0.0000
vn 0.0000 -1.0000 0.0000
usemtl Material.007
s off
f 1//1 2//1 4//1 3//1
f 9//2 12//2 13//2 14//2
f 7//3 8//3 6//3 5//3
f 15//4 16//4 11//4 10//4
f 5//4 6//4 20//4 19//4
f 6//5 8//5 17//5 20//5
f 7//6 5//6 19//6 18//6
f 8//2 7//2 18//2 17//2
f 14//3 13//3 24//3 23//3
f 13//5 12//5 21//5 24//5
f 9//6 14//6 23//6 22//6
f 12//1 9//1 22//1 21//1
f 3//2 4//2 28//2 26//2
f 4//5 2//5 27//5 28//5
f 2//4 1//4 25//4 27//4
f 1//6 3//6 26//6 25//6
f 11//5 16//5 31//5 30//5
f 15//6 10//6 29//6 32//6
f 16//3 15//3 32//3 31//3
f 10//1 11//1 30//1 29//1
f 31//2 32//2 29//2 30//2
f 20//1 17//1 18//1 19//1
f 24//4 21//4 22//4 23//4
f 28//3 27//3 25//3 26//3
