# Blender v2.79 (sub 0) OBJ File: ''
# www.blender.org
mtllib Shell.mtl
o Cube.014_Cube.010
v 0.005696 -0.005696 0.016048
v -0.005696 -0.005696 0.016048
v -0.007652 -0.007652 -0.036538
v 0.007652 -0.007652 -0.036538
v 0.005696 0.005696 0.016048
v -0.005696 0.005696 0.016048
v -0.007652 0.007652 -0.036538
v 0.007652 0.007652 -0.036538
v 0.006415 -0.006415 0.016048
v -0.006415 -0.006415 0.016048
v 0.006415 0.006415 0.016048
v -0.006415 0.006415 0.016048
v 0.000955 -0.000955 0.049586
v -0.000955 -0.000955 0.049586
v 0.000955 0.000955 0.049586
v -0.000955 0.000955 0.049586
v 0.007652 -0.007652 0.006591
v -0.007652 -0.007652 0.006591
v 0.007652 0.007652 0.006591
v -0.007652 0.007652 0.006591
v 0.007652 -0.007652 -0.025302
v 0.007652 -0.007652 -0.028064
v -0.007652 -0.007652 -0.025302
v -0.007652 -0.007652 -0.028064
v 0.007652 0.007652 -0.025302
v 0.007652 0.007652 -0.028064
v -0.007652 0.007652 -0.025302
v -0.007652 0.007652 -0.028064
v 0.000000 -0.008848 0.016048
v 0.000000 -0.010555 -0.036538
v 0.000000 0.008848 0.016048
v 0.000000 0.010555 -0.036538
v 0.000000 -0.007856 0.016048
v 0.000000 0.007856 0.016048
v -0.000000 -0.001317 0.049586
v -0.000000 0.001317 0.049586
v 0.000000 0.010555 0.006591
v 0.000000 -0.010555 0.006591
v 0.000000 0.010555 -0.025302
v 0.000000 0.010555 -0.028064
v 0.000000 -0.010555 -0.025302
v 0.000000 -0.010555 -0.028064
v 0.008848 -0.000000 0.016048
v -0.008848 -0.000000 0.016048
v -0.010555 -0.000000 -0.036538
v 0.010555 -0.000000 -0.036538
v 0.007856 -0.000000 0.016048
v -0.007856 -0.000000 0.016048
v 0.001317 0.000000 0.049586
v -0.001317 0.000000 0.049586
v 0.010555 -0.000000 0.006591
v -0.010555 -0.000000 0.006591
v 0.010555 -0.000000 -0.025302
v 0.010555 -0.000000 -0.028064
v -0.010555 -0.000000 -0.025302
v -0.010555 -0.000000 -0.028064
v -0.000000 0.000000 0.049586
v 0.000000 -0.000000 -0.036538
vn -0.3547 -0.9350 0.0000
vn -0.3547 0.9350 -0.0000
vn -0.9350 0.3547 -0.0000
vn 0.0000 0.0000 -1.0000
vn 0.9350 -0.3547 0.0000
vn 0.0001 -0.0000 1.0000
vn 0.3547 -0.9350 0.0000
vn 0.3547 0.9350 0.0000
vn -0.9350 -0.3547 -0.0000
vn 0.9350 0.3547 0.0000
vn -0.9198 -0.3489 0.1793
vn 0.3489 -0.9198 0.1793
vn -0.3489 0.9198 0.1793
vn 0.9198 0.3489 0.1793
vn 0.3489 0.9198 0.1793
vn -0.3489 -0.9198 0.1793
vn 0.9198 -0.3489 0.1794
vn -0.9198 0.3489 0.1793
vn -0.0000 -0.0000 1.0000
vn 0.9220 -0.3497 0.1664
vn -0.9220 0.3497 0.1664
vn -0.3497 0.9220 0.1664
vn -0.3497 -0.9220 0.1664
vn 0.3497 -0.9220 0.1664
vn 0.3497 0.9220 0.1664
vn -0.9220 -0.3497 0.1664
vn 0.9220 0.3497 0.1664
usemtl Material.045
s off
f 42//1 24//1 3//1 30//1
f 40//2 32//2 7//2 28//2
f 56//3 28//3 7//3 45//3
f 58//4 32//4 8//4 46//4
f 54//5 22//5 4//5 46//5
f 57//6 36//6 16//6 50//6
f 51//5 17//5 21//5 53//5
f 52//3 20//3 27//3 55//3
f 37//2 39//2 27//2 20//2
f 38//1 18//1 23//1 41//1
f 17//7 38//7 41//7 21//7
f 19//8 25//8 39//8 37//8
f 49//6 15//6 36//6 57//6
f 45//4 7//4 32//4 58//4
f 26//8 8//8 32//8 40//8
f 22//7 42//7 30//7 4//7
f 3//4 45//4 58//4 30//4
f 13//6 49//6 57//6 35//6
f 18//9 52//9 55//9 23//9
f 19//10 51//10 53//10 25//10
f 35//6 57//6 50//6 14//6
f 26//10 54//10 46//10 8//10
f 30//4 58//4 46//4 4//4
f 24//9 56//9 45//9 3//9
usemtl Material.044
f 53//5 21//5 22//5 54//5
f 55//3 27//3 28//3 56//3
f 39//2 40//2 28//2 27//2
f 41//1 23//1 24//1 42//1
f 21//7 41//7 42//7 22//7
f 25//8 26//8 40//8 39//8
f 23//9 55//9 56//9 24//9
f 25//10 53//10 54//10 26//10
usemtl Material.043
f 48//11 2//11 14//11 50//11
f 33//12 1//12 13//12 35//12
f 34//13 6//13 16//13 36//13
f 47//14 5//14 15//14 49//14
f 5//15 34//15 36//15 15//15
f 2//16 33//16 35//16 14//16
f 1//17 47//17 49//17 13//17
f 6//18 48//18 50//18 16//18
usemtl Material.042
f 33//19 2//19 10//19 29//19
f 47//19 1//19 9//19 43//19
f 48//19 6//19 12//19 44//19
f 34//19 5//19 11//19 31//19
f 43//20 9//20 17//20 51//20
f 44//21 12//21 20//21 52//21
f 31//22 37//22 20//22 12//22
f 29//23 10//23 18//23 38//23
f 9//24 29//24 38//24 17//24
f 11//25 19//25 37//25 31//25
f 6//19 34//19 31//19 12//19
f 1//19 33//19 29//19 9//19
f 10//26 44//26 52//26 18//26
f 11//27 43//27 51//27 19//27
f 2//19 48//19 44//19 10//19
f 5//19 47//19 43//19 11//19
