# Blender v2.79 (sub 0) OBJ File: 'TankGameTileTemplate.blend'
# www.blender.org
mtllib Snowtile_3.mtl
o Cube
v 1.000000 -0.600000 -1.000000
v 1.000000 -0.600000 1.000000
v -1.000000 -0.600000 1.000000
v -1.000000 -0.600000 -1.000000
v 1.000000 0.000000 -0.999999
v 0.999999 0.000000 1.000001
v -1.000000 0.000000 1.000000
v -1.000000 0.000000 -1.000000
v 1.000000 -0.600000 0.000000
v 0.000000 -0.600000 -1.000000
v 1.000000 -0.300000 -1.000000
v 0.000000 -0.600000 1.000000
v 1.000000 -0.300000 1.000000
v -1.000000 -0.600000 -0.000000
v -1.000000 -0.300000 1.000000
v -1.000000 -0.300000 -1.000000
v 1.000000 0.000000 0.000001
v 0.000000 0.000000 -1.000000
v -0.000001 0.000000 1.000000
v -1.000000 0.000000 -0.000000
v 0.000000 -0.300000 -1.000000
v -1.000000 -0.300000 -0.000000
v -0.000000 -0.300000 1.000000
v 1.000000 -0.300000 0.000000
v -0.000000 0.000000 0.000000
v 0.000000 -0.600000 -0.000000
v 1.000000 -0.600000 0.500000
v -0.500000 -0.600000 -1.000000
v 1.000000 -0.150000 -1.000000
v -0.500000 -0.600000 1.000000
v 1.000000 -0.150000 1.000000
v -1.000000 -0.600000 -0.500000
v -1.000000 -0.150000 1.000000
v -1.000000 -0.150000 -1.000000
v 1.000000 0.000000 0.500001
v -0.500000 0.000000 -1.000000
v -0.500000 0.000000 1.000000
v -1.000000 0.000000 -0.500000
v 1.000000 -0.600000 -0.500000
v 0.500000 -0.600000 -1.000000
v 1.000000 -0.450000 -1.000000
v 0.500000 -0.600000 1.000000
v 1.000000 -0.450000 1.000000
v -1.000000 -0.600000 0.500000
v -1.000000 -0.450000 1.000000
v -1.000000 -0.450000 -1.000000
v 1.000000 0.000000 -0.499999
v 0.500000 0.000000 -1.000000
v 0.499999 0.000000 1.000000
v -1.000000 0.000000 0.500000
v -0.500000 -0.300000 -1.000000
v 0.500000 -0.300000 -1.000000
v 0.000000 -0.150000 -1.000000
v 0.000000 -0.450000 -1.000000
v -1.000000 -0.300000 -0.500000
v -1.000000 -0.300000 0.500000
v -1.000000 -0.450000 -0.000000
v -1.000000 -0.150000 -0.000000
v -0.500000 -0.300000 1.000000
v 0.500000 -0.300000 1.000000
v -0.000000 -0.450000 1.000000
v -0.000000 -0.150000 1.000000
v 1.000000 -0.300000 0.500000
v 1.000000 -0.300000 -0.500000
v 1.000000 -0.450000 0.000000
v 1.000000 -0.150000 0.000000
v -0.000000 -0.005456 0.500000
v 0.000000 0.000000 -0.500000
v 0.500000 -0.073484 0.000000
v -0.500000 0.020984 0.000000
v -0.500000 -0.600000 -0.000000
v 0.500000 -0.600000 -0.000000
v 0.000000 -0.600000 -0.500000
v 0.000000 -0.600000 0.500000
v 0.500000 -0.600000 0.500000
v 0.500000 -0.600000 -0.500000
v -0.500000 -0.600000 -0.500000
v -0.500000 0.023111 -0.500000
v 0.500000 0.033398 -0.500000
v 0.500000 0.029614 0.500000
v 1.000000 -0.150000 -0.500000
v 1.000000 -0.450000 -0.500000
v 1.000000 -0.450000 0.500000
v 0.500000 -0.150000 1.000000
v 0.500000 -0.450000 1.000000
v -0.500000 -0.450000 1.000000
v -1.000000 -0.150000 0.500000
v -1.000000 -0.450000 0.500000
v -1.000000 -0.450000 -0.500000
v 0.500000 -0.450000 -1.000000
v 0.500000 -0.150000 -1.000000
v -0.500000 -0.150000 -1.000000
v -0.500000 -0.450000 -1.000000
v -1.000000 -0.150000 -0.500000
v -0.500000 -0.150000 1.000000
v 1.000000 -0.150000 0.500000
v -0.500000 0.000000 0.500000
v -0.500000 -0.600000 0.500000
vn 0.0000 -1.0000 0.0000
vn 0.0000 1.0000 0.0000
vn 1.0000 0.0000 0.0000
vn -0.0000 0.0000 1.0000
vn -1.0000 -0.0000 -0.0000
vn 0.0000 0.0000 -1.0000
vn -0.0000 0.9983 0.0591
vn 0.1423 0.9680 0.2069
vn -0.0419 0.9991 0.0042
vn 0.0419 0.9991 0.0000
vn 0.0462 0.9989 0.0000
vn -0.0461 0.9979 -0.0461
vn -0.1454 0.9894 -0.0000
vn 0.0666 0.9978 0.0000
vn -0.0665 0.9956 -0.0665
vn 0.0591 0.9983 0.0000
vn -0.0685 0.9771 -0.2015
vn 0.0000 0.9999 -0.0109
vn 0.0109 0.9999 0.0109
vn -0.0000 0.9991 0.0419
vn -0.0700 0.9975 -0.0109
vn -0.0666 0.9978 -0.0000
vn -0.0462 0.9989 -0.0000
vn 0.0462 0.9989 0.0042
vn 0.0000 0.9989 -0.0462
vn 0.0652 0.9758 0.2086
vn 0.0000 0.9978 -0.0666
vn 0.0590 0.9965 0.0590
vn -0.1425 0.9694 -0.1999
vn 0.1454 0.9893 0.0108
vn 0.0109 0.9999 0.0000
vn 0.0419 0.9982 0.0419
vn -0.0419 0.9991 -0.0000
usemtl Material.001
s off
f 98//1 3//1 44//1
f 97//2 7//2 37//2
f 96//3 6//3 31//3
f 95//4 7//4 33//4
f 94//5 8//5 34//5
f 93//6 4//6 46//6
f 92//6 16//6 34//6
f 91//6 21//6 53//6
f 90//6 10//6 54//6
f 89//5 16//5 46//5
f 88//5 22//5 57//5
f 87//5 20//5 58//5
f 86//4 15//4 45//4
f 85//4 23//4 61//4
f 84//4 19//4 62//4
f 83//3 13//3 43//3
f 82//3 24//3 65//3
f 81//3 17//3 66//3
f 80//7 19//7 49//7
f 79//8 25//8 69//8
f 78//9 20//9 70//9
f 77//1 14//1 32//1
f 76//1 26//1 73//1
f 75//1 12//1 74//1
f 72//1 74//1 26//1
f 9//1 75//1 72//1
f 27//1 42//1 75//1
f 40//1 73//1 10//1
f 1//1 76//1 40//1
f 39//1 72//1 76//1
f 28//1 32//1 4//1
f 10//1 77//1 28//1
f 73//1 71//1 77//1
f 68//10 70//10 25//10
f 18//11 78//11 68//11
f 36//12 38//12 78//12
f 47//13 69//13 17//13
f 5//14 79//14 47//14
f 48//15 68//15 79//15
f 35//2 49//2 6//2
f 17//16 80//16 35//16
f 69//17 67//17 80//17
f 64//3 66//3 24//3
f 11//3 81//3 64//3
f 29//3 47//3 81//3
f 39//3 65//3 9//3
f 1//3 82//3 39//3
f 41//3 64//3 82//3
f 27//3 43//3 2//3
f 9//3 83//3 27//3
f 65//3 63//3 83//3
f 60//4 62//4 23//4
f 13//4 84//4 60//4
f 31//4 49//4 84//4
f 42//4 61//4 12//4
f 2//4 85//4 42//4
f 43//4 60//4 85//4
f 30//4 45//4 3//4
f 12//4 86//4 30//4
f 61//4 59//4 86//4
f 56//5 58//5 22//5
f 15//5 87//5 56//5
f 33//5 50//5 87//5
f 44//5 57//5 14//5
f 3//5 88//5 44//5
f 45//5 56//5 88//5
f 32//5 46//5 4//5
f 14//5 89//5 32//5
f 57//5 55//5 89//5
f 52//6 54//6 21//6
f 11//6 90//6 52//6
f 41//6 40//6 90//6
f 48//6 53//6 18//6
f 5//6 91//6 48//6
f 29//6 52//6 91//6
f 36//6 34//6 8//6
f 18//6 92//6 36//6
f 53//6 51//6 92//6
f 51//6 46//6 16//6
f 21//6 93//6 51//6
f 54//6 28//6 93//6
f 55//5 34//5 16//5
f 22//5 94//5 55//5
f 58//5 38//5 94//5
f 59//4 33//4 15//4
f 23//4 95//4 59//4
f 62//4 37//4 95//4
f 63//3 31//3 13//3
f 24//3 96//3 63//3
f 66//3 35//3 96//3
f 67//18 37//18 19//18
f 25//19 97//19 67//19
f 70//20 50//20 97//20
f 71//1 44//1 14//1
f 26//1 98//1 71//1
f 74//1 30//1 98//1
f 98//1 30//1 3//1
f 97//2 50//2 7//2
f 96//3 35//3 6//3
f 95//4 37//4 7//4
f 94//5 38//5 8//5
f 93//6 28//6 4//6
f 92//6 51//6 16//6
f 91//6 52//6 21//6
f 90//6 40//6 10//6
f 89//5 55//5 16//5
f 88//5 56//5 22//5
f 87//5 50//5 20//5
f 86//4 59//4 15//4
f 85//4 60//4 23//4
f 84//4 49//4 19//4
f 83//3 63//3 13//3
f 82//3 64//3 24//3
f 81//3 47//3 17//3
f 80//21 67//21 19//21
f 79//22 68//22 25//22
f 78//23 38//23 20//23
f 77//1 71//1 14//1
f 76//1 72//1 26//1
f 75//1 42//1 12//1
f 72//1 75//1 74//1
f 9//1 27//1 75//1
f 27//1 2//1 42//1
f 40//1 76//1 73//1
f 1//1 39//1 76//1
f 39//1 9//1 72//1
f 28//1 77//1 32//1
f 10//1 73//1 77//1
f 73//1 26//1 71//1
f 68//24 78//24 70//24
f 18//25 36//25 78//25
f 36//2 8//2 38//2
f 47//26 79//26 69//26
f 5//27 48//27 79//27
f 48//2 18//2 68//2
f 35//28 80//28 49//28
f 17//29 69//29 80//29
f 69//30 25//30 67//30
f 64//3 81//3 66//3
f 11//3 29//3 81//3
f 29//3 5//3 47//3
f 39//3 82//3 65//3
f 1//3 41//3 82//3
f 41//3 11//3 64//3
f 27//3 83//3 43//3
f 9//3 65//3 83//3
f 65//3 24//3 63//3
f 60//4 84//4 62//4
f 13//4 31//4 84//4
f 31//4 6//4 49//4
f 42//4 85//4 61//4
f 2//4 43//4 85//4
f 43//4 13//4 60//4
f 30//4 86//4 45//4
f 12//4 61//4 86//4
f 61//4 23//4 59//4
f 56//5 87//5 58//5
f 15//5 33//5 87//5
f 33//5 7//5 50//5
f 44//5 88//5 57//5
f 3//5 45//5 88//5
f 45//5 15//5 56//5
f 32//5 89//5 46//5
f 14//5 57//5 89//5
f 57//5 22//5 55//5
f 52//6 90//6 54//6
f 11//6 41//6 90//6
f 41//6 1//6 40//6
f 48//6 91//6 53//6
f 5//6 29//6 91//6
f 29//6 11//6 52//6
f 36//6 92//6 34//6
f 18//6 53//6 92//6
f 53//6 21//6 51//6
f 51//6 93//6 46//6
f 21//6 54//6 93//6
f 54//6 10//6 28//6
f 55//5 94//5 34//5
f 22//5 58//5 94//5
f 58//5 20//5 38//5
f 59//4 95//4 33//4
f 23//4 62//4 95//4
f 62//4 19//4 37//4
f 63//3 96//3 31//3
f 24//3 66//3 96//3
f 66//3 17//3 35//3
f 67//31 97//31 37//31
f 25//32 70//32 97//32
f 70//33 20//33 50//33
f 71//1 98//1 44//1
f 26//1 74//1 98//1
f 74//1 12//1 30//1
