# Blender v2.79 (sub 0) OBJ File: 'TANKGAME-CRATE_2.blend'
# www.blender.org
mtllib Crate_2.mtl
o Cube.001_Cube.006
v -0.158459 -0.061394 0.312213
v -0.158459 0.097395 0.312213
v -0.158459 -0.061394 -0.312213
v -0.158459 0.097395 -0.312213
v 0.158459 -0.061394 0.312213
v 0.158459 0.097395 0.312213
v 0.158459 -0.061394 -0.312213
v 0.158459 0.097395 -0.312213
v -0.158459 0.053799 0.312213
v -0.158459 0.053799 -0.312213
v 0.158459 0.053799 -0.312213
v 0.158459 0.053799 0.312213
v -0.185057 0.053799 0.312213
v -0.185057 0.097395 0.312213
v -0.185057 0.097395 -0.312213
v -0.185057 0.053799 -0.312213
v -0.158459 0.053799 -0.312213
v -0.158459 0.097395 -0.312213
v 0.158459 0.097395 -0.312213
v 0.158459 0.053799 -0.312213
v 0.185057 0.053799 -0.312213
v 0.185057 0.097395 -0.312213
v 0.185057 0.097395 0.312213
v 0.185057 0.053799 0.312213
v 0.158459 0.053799 0.312213
v 0.158459 0.097395 0.312213
v -0.158459 0.097395 0.312213
v -0.158459 0.053799 0.312213
v -0.158459 -0.097395 -0.179405
v -0.158459 -0.097395 0.179405
v -0.158459 0.097395 0.179405
v -0.158459 0.097395 -0.179405
v 0.158459 -0.097395 0.179405
v 0.158459 -0.097395 -0.179405
v 0.158459 0.097395 -0.179405
v 0.158459 0.097395 0.179405
v 0.158459 0.053799 -0.179405
v 0.158459 0.053799 0.179405
v -0.158459 0.053799 0.179405
v -0.158459 0.053799 -0.179405
v -0.185057 0.053799 0.179405
v -0.185057 0.053799 -0.179405
v -0.185057 0.097395 0.179405
v -0.185057 0.097395 -0.179405
v 0.185057 0.053799 -0.179405
v 0.185057 0.053799 0.179405
v 0.185057 0.097395 -0.179405
v 0.185057 0.097395 0.179405
v -0.158459 -0.097395 -0.133217
v -0.158459 -0.097395 0.133217
v -0.158459 0.097395 0.133217
v -0.158459 0.097395 -0.133217
v 0.158459 -0.097395 0.133217
v 0.158459 -0.097395 -0.133217
v 0.158459 0.097395 -0.133217
v 0.158459 0.097395 0.133217
v 0.158459 0.053799 -0.133217
v 0.158459 0.053799 0.133217
v -0.158459 0.053799 0.133217
v -0.158459 0.053799 -0.133217
v -0.185057 0.053799 0.133217
v -0.185057 0.053799 -0.133217
v -0.185057 0.097395 0.133217
v -0.185057 0.097395 -0.133217
v 0.185057 0.053799 -0.133217
v 0.185057 0.053799 0.133217
v 0.185057 0.097395 -0.133217
v 0.185057 0.097395 0.133217
v -0.176025 -0.097395 -0.133217
v -0.176025 0.053799 -0.133217
v -0.176025 0.053799 -0.179405
v -0.176025 -0.097395 -0.179405
v 0.176025 -0.097395 0.133217
v 0.176025 0.053799 0.133217
v 0.176025 0.053799 0.179405
v 0.176025 -0.097395 0.179405
v 0.176025 -0.097395 -0.179405
v 0.176025 0.053799 -0.179405
v 0.176025 0.053799 -0.133217
v 0.176025 -0.097395 -0.133217
v -0.176025 -0.097395 0.179405
v -0.176025 0.053799 0.179405
v -0.176025 0.053799 0.133217
v -0.176025 -0.097395 0.133217
v -0.158459 0.053799 -0.332620
v -0.158459 0.097395 -0.332620
v 0.158459 0.097395 -0.332620
v 0.158459 0.053799 -0.332620
v 0.158459 0.053799 0.332620
v 0.158459 0.097395 0.332620
v -0.158459 0.097395 0.332620
v -0.158459 0.053799 0.332620
v -0.158459 0.053799 0.332620
v -0.158459 0.097395 0.332620
v -0.185057 0.097395 0.332620
v -0.185057 0.053799 0.332620
v -0.158459 0.097395 -0.332620
v -0.158459 0.053799 -0.332620
v -0.185057 0.053799 -0.332620
v -0.185057 0.097395 -0.332620
v 0.158459 0.053799 -0.332620
v 0.158459 0.097395 -0.332620
v 0.185057 0.097395 -0.332620
v 0.185057 0.053799 -0.332620
v 0.158459 0.097395 0.332620
v 0.158459 0.053799 0.332620
v 0.185057 0.053799 0.332620
v 0.185057 0.097395 0.332620
v -0.158459 -0.109394 0.133217
v -0.158459 -0.109394 0.179405
v 0.158459 -0.109394 -0.133217
v 0.158459 -0.109394 -0.179405
v -0.158459 -0.109394 -0.179405
v 0.158459 -0.109394 0.179405
v -0.158459 -0.109394 -0.133217
v 0.158459 -0.109394 0.133217
v -0.176025 -0.109394 -0.179405
v -0.176025 -0.109394 -0.133217
v 0.176025 -0.109394 0.179405
v 0.176025 -0.109394 0.133217
v 0.176025 -0.109394 -0.133217
v 0.176025 -0.109394 -0.179405
v -0.176025 -0.109394 0.133217
v -0.176025 -0.109394 0.179405
v -0.158459 0.124468 -0.179405
v -0.158459 0.124468 -0.312213
v 0.158459 0.124468 -0.312213
v 0.158459 0.124468 0.179405
v 0.158459 0.124468 0.312213
v -0.158459 0.124468 0.312213
v -0.158459 0.124468 0.179405
v -0.158459 0.124468 -0.133217
v 0.158459 0.124468 -0.179405
v 0.158459 0.124468 0.133217
v -0.158459 0.124468 0.133217
v 0.158459 0.124468 -0.133217
v 0.052820 -0.061394 -0.312213
v -0.052820 -0.061394 -0.312213
v -0.052820 0.097395 -0.312213
v 0.052820 0.097395 -0.312213
v -0.052820 -0.061394 0.312213
v 0.052820 -0.061394 0.312213
v 0.052820 0.097395 0.312213
v -0.052820 0.097395 0.312213
v 0.052820 0.053799 0.312213
v -0.052820 0.053799 0.312213
v -0.052820 0.053799 -0.312213
v 0.052820 0.053799 -0.312213
v -0.052820 0.053799 -0.312213
v 0.052820 0.053799 -0.312213
v -0.052820 0.097395 -0.312213
v 0.052820 0.097395 -0.312213
v 0.052820 0.053799 0.312213
v -0.052820 0.053799 0.312213
v 0.052820 0.097395 0.312213
v -0.052820 0.097395 0.312213
v 0.052820 -0.097395 -0.179405
v -0.052820 -0.097395 -0.179405
v 0.052820 -0.097395 0.179405
v -0.052820 -0.097395 0.179405
v 0.052820 -0.097395 -0.133217
v -0.052820 -0.097395 -0.133217
v 0.052820 -0.097395 0.133217
v -0.052820 -0.097395 0.133217
v -0.052820 0.053799 -0.332620
v 0.052820 0.053799 -0.332620
v -0.052820 0.097395 -0.332620
v 0.052820 0.097395 -0.332620
v 0.052820 0.053799 0.332620
v -0.052820 0.053799 0.332620
v 0.052820 0.097395 0.332620
v -0.052820 0.097395 0.332620
v 0.052820 -0.109394 -0.179405
v -0.052820 -0.109394 -0.179405
v 0.052820 -0.109394 0.179405
v -0.052820 -0.109394 0.179405
v 0.052820 -0.109394 -0.133217
v -0.052820 -0.109394 -0.133217
v 0.052820 -0.109394 0.133217
v -0.052820 -0.109394 0.133217
v -0.052820 0.124468 -0.312213
v 0.052820 0.124468 -0.312213
v 0.052820 0.124468 0.312213
v -0.052820 0.124468 0.312213
v -0.052820 0.124468 -0.179405
v 0.052820 0.124468 -0.179405
v -0.052820 0.124468 0.179405
v 0.052820 0.124468 0.179405
v -0.052820 0.124468 -0.133217
v 0.052820 0.124468 -0.133217
v -0.052820 0.124468 0.133217
v 0.052820 0.124468 0.133217
v -0.052820 -0.097395 -0.326685
v -0.052820 0.053799 -0.326685
v 0.052820 0.053799 -0.326685
v 0.052820 -0.097395 -0.326685
v 0.052820 -0.097395 0.326685
v 0.052820 0.053799 0.326685
v -0.052820 0.053799 0.326685
v -0.052820 -0.097395 0.326685
v 0.052820 -0.109516 -0.312213
v -0.052820 -0.109516 -0.312213
v -0.052820 -0.109516 0.312213
v 0.052820 -0.109516 0.312213
v 0.052820 -0.109516 -0.326685
v -0.052820 -0.109516 -0.326685
v -0.052820 -0.109516 0.326685
v 0.052820 -0.109516 0.326685
vn 0.0000 -0.9652 0.2616
vn -1.0000 0.0000 0.0000
vn 0.0000 0.0000 1.0000
vn 1.0000 0.0000 0.0000
vn 0.0000 0.0000 -1.0000
vn 0.0000 -1.0000 0.0000
vn 0.0000 -0.9652 -0.2616
vn 0.0000 1.0000 0.0000
usemtl Material.008
s off
f 159//1 33//1 5//1 142//1
f 51//2 31//2 131//2 135//2
f 141//3 146//3 9//3 1//3
f 33//4 38//4 12//4 5//4
f 137//5 148//5 11//5 7//5
f 29//2 40//2 10//2 3//2
f 39//6 9//6 13//6 41//6
f 140//3 8//3 19//3 152//3
f 147//3 10//3 17//3 149//3
f 37//6 11//6 21//6 45//6
f 144//3 2//3 27//3 156//3
f 145//3 12//3 25//3 153//3
f 12//6 38//6 46//6 24//6
f 57//6 37//6 45//6 65//6
f 10//6 40//6 42//6 16//6
f 59//6 39//6 41//6 61//6
f 1//2 9//2 39//2 30//2
f 7//4 11//4 37//4 34//4
f 4//2 32//2 125//2 126//2
f 139//5 4//5 126//5 181//5
f 137//7 7//7 34//7 157//7
f 161//6 54//6 53//6 163//6
f 6//4 36//4 128//4 129//4
f 36//4 56//4 134//4 128//4
f 54//4 57//4 58//4 53//4
f 50//2 59//2 60//2 49//2
f 40//6 60//6 62//6 42//6
f 60//6 59//6 61//6 62//6
f 38//6 58//6 66//6 46//6
f 58//6 57//6 65//6 66//6
f 149//6 17//6 85//6 165//6
f 153//6 25//6 89//6 169//6
f 13//6 9//6 93//6 96//6
f 10//6 16//6 99//6 98//6
f 21//6 11//6 101//6 104//6
f 12//6 24//6 107//6 106//6
f 187//8 131//8 130//8 184//8
f 181//8 126//8 125//8 185//8
f 191//8 135//8 131//8 187//8
f 185//8 125//8 132//8 189//8
f 189//8 132//8 135//8 191//8
f 55//4 35//4 133//4 136//4
f 31//2 2//2 130//2 131//2
f 52//2 51//2 135//2 132//2
f 35//4 8//4 127//4 133//4
f 56//4 55//4 136//4 134//4
f 32//2 52//2 132//2 125//2
f 143//3 6//3 129//3 183//3
f 2//3 144//3 184//3 130//3
f 144//3 143//3 183//3 184//3
f 136//8 190//8 192//8 134//8
f 190//8 189//8 191//8 192//8
f 133//8 186//8 190//8 136//8
f 186//8 185//8 189//8 190//8
f 134//8 192//8 188//8 128//8
f 192//8 191//8 187//8 188//8
f 127//8 182//8 186//8 133//8
f 182//8 181//8 185//8 186//8
f 128//8 188//8 183//8 129//8
f 188//8 187//8 184//8 183//8
f 28//6 154//6 170//6 92//6
f 154//6 153//6 169//6 170//6
f 20//6 150//6 166//6 88//6
f 150//6 149//6 165//6 166//6
f 49//6 162//6 164//6 50//6
f 162//6 161//6 163//6 164//6
f 3//7 138//7 158//7 29//7
f 138//7 137//7 157//7 158//7
f 8//5 140//5 182//5 127//5
f 140//5 139//5 181//5 182//5
f 9//3 146//3 154//3 28//3
f 146//3 145//3 153//3 154//3
f 6//3 143//3 155//3 26//3
f 143//3 144//3 156//3 155//3
f 11//3 148//3 150//3 20//3
f 148//3 147//3 149//3 150//3
f 4//3 139//3 151//3 18//3
f 139//3 140//3 152//3 151//3
f 3//5 10//5 147//5 138//5
f 5//3 12//3 145//3 142//3
f 30//1 160//1 141//1 1//1
f 160//1 159//1 142//1 141//1
f 147//8 148//8 195//8 194//8
f 145//8 146//8 199//8 198//8
f 141//5 142//5 204//5 203//5
f 137//3 138//3 202//3 201//3
usemtl Material.009
f 69//2 70//2 71//2 72//2
f 73//4 74//4 75//4 76//4
f 157//5 34//5 112//5 173//5
f 30//3 81//3 124//3 110//3
f 77//4 78//4 79//4 80//4
f 81//2 82//2 83//2 84//2
f 49//3 60//3 70//3 69//3
f 60//8 40//8 71//8 70//8
f 40//5 29//5 72//5 71//5
f 34//5 77//5 122//5 112//5
f 53//5 58//5 74//5 73//5
f 58//8 38//8 75//8 74//8
f 38//3 33//3 76//3 75//3
f 53//5 73//5 120//5 116//5
f 34//5 37//5 78//5 77//5
f 37//8 57//8 79//8 78//8
f 57//3 54//3 80//3 79//3
f 49//3 69//3 118//3 115//3
f 30//3 39//3 82//3 81//3
f 39//8 59//8 83//8 82//8
f 59//5 50//5 84//5 83//5
f 81//2 84//2 123//2 124//2
f 179//6 116//6 114//6 175//6
f 173//6 112//6 111//6 177//6
f 113//6 115//6 118//6 117//6
f 114//6 116//6 120//6 119//6
f 111//6 112//6 122//6 121//6
f 109//6 110//6 124//6 123//6
f 162//3 49//3 115//3 178//3
f 160//3 30//3 110//3 176//3
f 72//5 29//5 113//5 117//5
f 163//5 53//5 116//5 179//5
f 76//3 33//3 114//3 119//3
f 80//3 54//3 111//3 121//3
f 69//2 72//2 117//2 118//2
f 84//5 50//5 109//5 123//5
f 73//4 76//4 119//4 120//4
f 77//4 80//4 121//4 122//4
f 50//5 164//5 180//5 109//5
f 164//5 163//5 179//5 180//5
f 33//3 159//3 175//3 114//3
f 159//3 160//3 176//3 175//3
f 54//3 161//3 177//3 111//3
f 161//3 162//3 178//3 177//3
f 113//6 174//6 178//6 115//6
f 174//6 173//6 177//6 178//6
f 109//6 180//6 176//6 110//6
f 180//6 179//6 175//6 176//6
f 29//5 158//5 174//5 113//5
f 158//5 157//5 173//5 174//5
f 193//5 194//5 195//5 196//5
f 197//3 198//3 199//3 200//3
f 138//2 147//2 194//2 193//2
f 148//4 137//4 196//4 195//4
f 196//4 137//4 201//4 205//4
f 142//4 145//4 198//4 197//4
f 146//2 141//2 200//2 199//2
f 197//3 200//3 207//3 208//3
f 201//6 202//6 206//6 205//6
f 203//6 204//6 208//6 207//6
f 142//4 197//4 208//4 204//4
f 193//5 196//5 205//5 206//5
f 200//2 141//2 203//2 207//2
f 138//2 193//2 206//2 202//2
usemtl Material.010
f 42//2 44//2 15//2 16//2
f 166//5 168//5 87//5 88//5
f 46//4 48//4 23//4 24//4
f 170//3 172//3 91//3 92//3
f 93//3 94//3 95//3 96//3
f 32//8 4//8 15//8 44//8
f 97//5 98//5 99//5 100//5
f 10//3 4//3 18//3 17//3
f 8//3 11//3 20//3 19//3
f 101//5 102//5 103//5 104//5
f 36//8 6//8 23//8 48//8
f 105//3 106//3 107//3 108//3
f 12//3 6//3 26//3 25//3
f 2//3 9//3 28//3 27//3
f 8//8 35//8 47//8 22//8
f 56//8 36//8 48//8 68//8
f 2//8 31//8 43//8 14//8
f 52//8 32//8 44//8 64//8
f 21//4 22//4 47//4 45//4
f 66//4 68//4 48//4 46//4
f 13//2 14//2 43//2 41//2
f 62//2 64//2 44//2 42//2
f 41//2 43//2 63//2 61//2
f 61//2 63//2 64//2 62//2
f 45//4 47//4 67//4 65//4
f 65//4 67//4 68//4 66//4
f 31//8 51//8 63//8 43//8
f 51//8 52//8 64//8 63//8
f 35//8 55//8 67//8 47//8
f 55//8 56//8 68//8 67//8
f 17//2 18//2 86//2 85//2
f 152//8 19//8 87//8 168//8
f 19//4 20//4 88//4 87//4
f 25//4 26//4 90//4 89//4
f 156//8 27//8 91//8 172//8
f 27//2 28//2 92//2 91//2
f 9//4 2//4 94//4 93//4
f 2//8 14//8 95//8 94//8
f 14//2 13//2 96//2 95//2
f 4//4 10//4 98//4 97//4
f 16//2 15//2 100//2 99//2
f 15//8 4//8 97//8 100//8
f 11//2 8//2 102//2 101//2
f 8//8 22//8 103//8 102//8
f 22//4 21//4 104//4 103//4
f 6//2 12//2 106//2 105//2
f 24//4 23//4 108//4 107//4
f 23//8 6//8 105//8 108//8
f 26//8 155//8 171//8 90//8
f 155//8 156//8 172//8 171//8
f 18//8 151//8 167//8 86//8
f 151//8 152//8 168//8 167//8
f 89//3 90//3 171//3 169//3
f 169//3 171//3 172//3 170//3
f 85//5 86//5 167//5 165//5
f 165//5 167//5 168//5 166//5
