# Blender v2.79 (sub 0) OBJ File: ''
# www.blender.org
mtllib Log.mtl
o Cube.013_Cube.011
v 0.075169 0.054791 0.000776
v 0.071971 0.057654 0.003049
v -0.004496 -0.053855 0.025533
v -0.006021 -0.052208 0.027850
v -0.049678 0.122154 -0.008468
v -0.048083 0.124966 0.009008
v -0.161179 0.059896 0.020538
v -0.160914 0.060363 0.023444
v -0.070637 -0.007337 0.016838
v -0.069268 -0.004921 0.031847
v -0.001156 0.087421 -0.004755
v 0.000158 0.089738 0.009638
v 0.041427 -0.003962 0.013312
v 0.041643 -0.003582 0.015673
v -0.087126 0.077305 0.004719
v -0.086007 0.079280 0.016989
v -0.034411 0.042662 0.022322
v -0.035822 0.040174 0.006864
v 0.138273 0.333387 -0.059896
v 0.140142 0.336683 -0.039418
v -0.017645 0.120747 -0.011442
v -0.015777 0.124043 0.009036
v 0.121435 0.345634 -0.060331
v 0.123304 0.348930 -0.039853
v -0.034483 0.132994 -0.011877
v -0.032615 0.136290 0.008601
v 0.018504 0.164805 -0.021832
v 0.093773 0.279789 -0.045350
v 0.095478 0.282796 -0.026669
v 0.020045 0.167523 -0.004948
v 0.076935 0.292037 -0.045784
v 0.004971 0.174648 -0.022182
v 0.006512 0.177366 -0.005298
v 0.078640 0.295043 -0.027104
v -0.037567 -0.030596 0.021185
v 0.037771 0.072454 0.006388
v -0.036774 -0.029198 0.029871
v 0.037006 0.071106 -0.001989
v 0.011504 0.019769 0.009026
v 0.009998 0.025960 0.017382
v -0.192860 -0.399699 0.002198
v -0.145601 0.019115 0.004502
v -0.129345 -0.395021 -0.130378
v -0.097330 0.008554 -0.101331
v -0.001712 -0.388291 -0.179539
v -0.000181 0.004777 -0.140438
v 0.114385 -0.387045 -0.130230
v 0.088000 0.010163 -0.099401
v 0.171221 -0.392387 0.000395
v 0.125970 0.004301 -0.000598
v 0.118562 -0.389273 0.125156
v 0.090571 0.018480 0.106237
v -0.007010 -0.392383 0.186248
v -0.003972 0.012324 0.146438
v -0.135290 -0.394726 0.131696
v -0.101885 0.016871 0.107147
v -0.167373 -0.182667 0.005016
v -0.104534 -0.191029 -0.116867
v 0.004554 -0.185815 -0.158179
v 0.096435 -0.189840 -0.115988
v 0.140644 -0.185580 -0.007336
v 0.104717 -0.179903 0.120865
v -0.003761 -0.181763 0.166133
v -0.115571 -0.180126 0.120664
v -0.124638 0.015852 -0.129332
v -0.187166 0.018076 0.003962
v 0.000518 -0.004762 -0.176690
v 0.111215 -0.001650 -0.126355
v 0.161124 0.005056 -0.001821
v 0.116536 0.015661 0.131524
v -0.004010 0.021235 0.184777
v -0.129419 0.017228 0.134146
v -0.099157 -0.023128 -0.100866
v -0.146693 -0.017306 0.005194
v -0.001611 -0.025672 -0.140366
v 0.088766 -0.024629 -0.098499
v 0.126733 -0.026640 0.000717
v 0.090328 -0.023287 0.104292
v -0.004162 -0.019682 0.147106
v -0.101997 -0.018139 0.107108
vn 0.7762 -0.6297 0.0305
vn -0.5816 -0.7932 0.1807
vn -0.7732 0.6334 -0.0314
vn 0.5816 0.7932 -0.1807
vn -0.1047 -0.1786 -0.9783
vn 0.0897 0.1583 0.9833
vn 0.1262 0.2080 0.9700
vn 0.0744 0.1374 0.9877
vn -0.0897 -0.1583 -0.9833
vn -0.0821 -0.1478 -0.9856
vn -0.7306 0.6814 -0.0430
vn -0.8531 0.5217 -0.0061
vn 0.7732 -0.6334 0.0314
vn 0.8377 -0.5460 0.0114
vn -0.7718 0.6351 -0.0318
vn -0.0845 -0.1969 -0.9768
vn 0.0633 0.1696 0.9835
vn -0.0318 -0.2052 -0.9782
vn -0.0280 -0.1976 -0.9799
vn 0.0339 0.1802 0.9830
vn -0.1327 -0.1658 -0.9772
vn -0.2533 0.9584 -0.1312
vn 0.1413 0.0988 0.9850
vn 0.1568 0.1428 0.9772
vn 0.3977 0.8995 -0.1811
vn 0.7032 -0.5592 0.4391
vn 0.3792 0.8868 -0.2640
vn 0.1610 0.1277 0.9787
vn 0.1448 0.1021 0.9842
vn 0.7240 -0.2519 0.6421
vn -0.0254 -0.2134 -0.9766
vn -0.0166 -0.2006 -0.9795
vn -0.5903 0.8037 -0.0755
vn -0.0002 0.0221 0.9998
vn -0.0998 -0.2245 -0.9693
vn 0.8979 0.4144 -0.1486
vn -0.8945 -0.1020 -0.4352
vn -0.3579 -0.0964 -0.9288
vn 0.4137 -0.0829 -0.9066
vn 0.9250 -0.0908 -0.3691
vn 0.9501 -0.0919 0.2982
vn 0.3929 -0.0788 0.9162
vn 0.3751 -0.0104 -0.9269
vn -0.3733 -0.0873 0.9236
vn -0.9095 -0.0895 0.4059
vn 0.0236 -0.9997 -0.0068
vn -0.9096 0.1029 0.4026
vn -0.3833 0.0881 0.9194
vn 0.4118 0.0632 0.9091
vn 0.9393 0.1096 0.3251
vn 0.9152 0.1161 -0.3860
vn 0.4020 0.0929 -0.9109
vn -0.3597 0.1070 -0.9269
vn -0.8881 0.1233 -0.4428
vn 0.0944 0.9955 -0.0095
vn 0.0823 0.9942 -0.0688
vn 0.0914 0.9534 -0.2875
vn 0.1554 0.9857 -0.0649
vn 0.0654 0.9946 -0.0808
vn -0.0375 0.9961 -0.0801
vn 0.0505 0.9916 -0.1194
vn -0.0041 0.9999 0.0151
vn -0.9465 -0.0040 -0.3227
vn -0.4216 0.0178 0.9066
vn 0.9098 -0.0320 0.4138
vn 0.9177 -0.0191 -0.3969
vn -0.4022 0.0182 -0.9154
vn -0.9338 -0.0097 0.3577
vn 0.3740 -0.0116 0.9273
vn 0.0258 0.9995 -0.0181
usemtl Material.421
s off
f 27//1 30//1 22//1 21//1
f 21//2 22//2 26//2 25//2
f 31//3 34//3 24//3 23//3
f 23//4 24//4 20//4 19//4
f 28//5 31//5 23//5 19//5
f 34//6 29//6 20//6 24//6
f 26//7 22//7 30//7 33//7
f 33//8 30//8 29//8 34//8
f 21//9 25//9 32//9 27//9
f 27//10 32//10 31//10 28//10
f 25//11 26//11 33//11 32//11
f 32//12 33//12 34//12 31//12
f 19//13 20//13 29//13 28//13
f 28//14 29//14 30//14 27//14
usemtl Material.420
f 9//2 10//2 8//2 7//2
f 15//15 16//15 6//15 5//15
f 18//16 15//16 5//16 11//16
f 16//17 17//17 12//17 6//17
f 39//18 18//18 11//18 38//18
f 35//2 37//2 10//2 9//2
f 35//19 9//19 18//19 39//19
f 8//20 10//20 17//20 16//20
f 9//21 7//21 15//21 18//21
f 7//22 8//22 16//22 15//22
f 10//23 37//23 40//23 17//23
f 17//24 40//24 36//24 12//24
f 11//25 12//25 36//25 38//25
usemtl Material.419
f 13//26 14//26 4//26 3//26
f 38//27 36//27 2//27 1//27
f 40//28 14//28 2//28 36//28
f 37//29 4//29 14//29 40//29
f 1//30 2//30 14//30 13//30
f 3//31 35//31 39//31 13//31
f 3//2 4//2 37//2 35//2
f 13//32 39//32 38//32 1//32
usemtl Material.418
f 26//33 25//33 5//33 6//33
f 26//34 6//34 12//34 22//34
f 21//35 11//35 5//35 25//35
f 22//36 12//36 11//36 21//36
usemtl Material.023
f 57//37 66//37 65//37 58//37
f 58//38 65//38 67//38 59//38
f 59//39 67//39 68//39 60//39
f 60//40 68//40 69//40 61//40
f 61//41 69//41 70//41 62//41
f 62//42 70//42 71//42 63//42
f 56//43 54//43 79//43 80//43
f 63//44 71//44 72//44 64//44
f 64//45 72//45 66//45 57//45
f 41//46 43//46 45//46 47//46 49//46 51//46 53//46 55//46
f 55//47 64//47 57//47 41//47
f 53//48 63//48 64//48 55//48
f 51//49 62//49 63//49 53//49
f 49//50 61//50 62//50 51//50
f 47//51 60//51 61//51 49//51
f 45//52 59//52 60//52 47//52
f 43//53 58//53 59//53 45//53
f 41//54 57//54 58//54 43//54
f 42//55 44//55 65//55 66//55
f 44//56 46//56 67//56 65//56
f 46//57 48//57 68//57 67//57
f 48//58 50//58 69//58 68//58
f 50//59 52//59 70//59 69//59
f 52//60 54//60 71//60 70//60
f 54//61 56//61 72//61 71//61
f 56//62 42//62 66//62 72//62
f 52//63 50//63 77//63 78//63
f 48//64 46//64 75//64 76//64
f 44//65 42//65 74//65 73//65
f 42//66 56//66 80//66 74//66
f 54//67 52//67 78//67 79//67
f 50//68 48//68 76//68 77//68
f 46//69 44//69 73//69 75//69
usemtl Material.024
f 73//70 74//70 80//70 79//70 78//70 77//70 76//70 75//70
