# Blender v2.79 (sub 0) OBJ File: 'TANKGAME-ROCKTILE3.blend'
# www.blender.org
mtllib Tile_Rock_3.mtl
o Cube
v 1.499999 -0.500000 -1.499999
v 1.499999 -0.500000 1.499999
v -1.499999 -0.500000 1.499999
v -1.499999 -0.500000 -1.500000
v 1.500000 0.500000 -1.499998
v 1.499998 0.500000 1.500000
v -1.500000 0.500000 1.499999
v -1.499999 0.500000 -1.499999
vn 0.0000 -1.0000 0.0000
vn 0.0000 1.0000 0.0000
vn 1.0000 0.0000 0.0000
vn -0.0000 -0.0000 1.0000
vn -1.0000 -0.0000 -0.0000
vn 0.0000 0.0000 -1.0000
usemtl Material
s off
f 1//1 2//1 3//1 4//1
f 5//2 8//2 7//2 6//2
f 1//3 5//3 6//3 2//3
f 2//4 6//4 7//4 3//4
f 3//5 7//5 8//5 4//5
f 5//6 1//6 4//6 8//6
o Cube.008_Cube.009
v 1.246549 0.253440 0.684278
v 0.843978 0.488228 0.546754
v 0.691661 0.427626 0.563075
v 0.493952 0.512927 0.658447
v 1.357672 0.348198 0.814688
v 1.281459 0.578094 1.037250
v 0.462427 -0.076650 1.036159
v 0.284270 0.041099 1.351998
v 0.198434 0.862422 1.150718
v 0.622249 0.992780 1.343434
v 0.859672 1.046521 1.086806
v 0.683454 0.977750 1.297765
v 0.717756 1.098606 1.044757
v 1.345320 0.280470 0.966070
v 1.312474 0.342024 1.095290
v 0.944481 0.321237 1.486657
v 0.643833 0.068924 1.452581
v 1.133009 0.073678 0.720951
v 0.514742 0.225695 0.728631
v 0.697541 0.342550 0.582912
v 0.463823 -0.075663 1.031463
v 0.465766 -0.077929 1.033598
v 0.802198 -0.127767 0.999682
v 1.107352 -0.011613 0.818434
v 0.558398 0.840348 0.614225
v 0.246777 0.821285 0.704879
v 0.227174 0.946048 0.937876
v 0.698559 1.100916 1.028166
v 0.192616 0.921761 1.153960
v 0.616431 1.052119 1.346675
v 0.221355 1.005386 0.941118
v 0.677636 1.037089 1.301007
v 0.692741 1.160255 1.031408
v 0.711938 1.157944 1.047999
v 0.853854 1.105860 1.090048
v 0.240959 0.880624 0.708121
v 0.552580 0.899687 0.617467
vn -0.5451 -0.7731 -0.3244
vn -0.5059 -0.2368 -0.8295
vn -0.1708 -0.6806 -0.7124
vn -0.3259 0.1324 0.9361
vn 0.6109 0.4112 0.6766
vn 0.9723 0.1703 0.1604
vn 0.5416 -0.6910 0.4787
vn -0.0636 -0.9331 0.3538
vn 0.1156 -0.3052 -0.9453
vn 0.7970 -0.5573 -0.2328
vn -0.9056 -0.2605 -0.3348
vn -0.2912 -0.0194 -0.9565
vn 0.5316 0.5922 -0.6056
vn -0.2806 0.0249 -0.9595
vn 0.6003 0.0152 0.7996
vn 0.3107 0.0822 -0.9469
vn -0.1909 0.8586 -0.4758
vn 0.1898 0.8757 0.4440
vn -0.3145 0.9099 0.2705
vn 0.7606 0.0392 0.6481
vn 0.6575 0.1052 -0.7461
vn 0.9181 0.1108 -0.3806
vn -0.3897 -0.0883 0.9167
vn -0.9821 -0.0872 -0.1669
vn -0.9949 -0.0958 -0.0324
usemtl Material.023
s off
f 30//7 15//7 29//7
f 27//8 12//8 11//8 28//8
f 30//9 29//9 27//9 28//9 26//9 32//9 31//9
f 18//10 17//10 16//10 25//10 24//10
f 20//11 18//11 24//11 23//11 14//11 19//11
f 14//12 23//12 22//12 13//12
f 23//13 24//13 25//13 31//13 32//13 22//13
f 16//14 15//14 30//14 31//14 25//14
f 11//15 10//15 9//15 26//15 28//15
f 13//16 22//16 32//16 26//16 9//16
f 17//17 35//17 34//17 12//17 27//17 29//17 15//17 16//17
f 12//18 34//18 33//18 10//18 11//18
f 10//19 33//19 36//19 21//19 19//19 14//19 13//19 9//19
usemtl Material.004
f 33//20 34//20 44//20 45//20
f 18//21 20//21 40//21 38//21
f 19//22 21//22 42//22 43//22
f 41//23 45//23 44//23 39//23
f 42//24 40//24 43//24
f 41//25 39//25 37//25 38//25 40//25 42//25
f 20//26 19//26 43//26 40//26
f 21//27 36//27 41//27 42//27
f 36//28 33//28 45//28 41//28
f 17//29 18//29 38//29 37//29
f 35//30 17//30 37//30 39//30
f 34//31 35//31 39//31 44//31
o Cube.001
v -1.343230 0.776095 -0.456974
v -0.611332 1.659524 -0.915939
v 0.168104 1.828775 -0.840933
v -1.416414 0.157443 -0.460310
v -0.994130 -0.373055 -0.616189
v 0.349888 1.473367 0.434695
v 1.016209 0.525050 0.516960
v 1.284981 0.305025 -0.908990
v 0.679340 -0.607233 -0.930121
v 0.014958 -0.423571 -1.245756
v 0.516087 -0.572259 -0.948773
v 0.270146 -0.251061 -1.363953
v -1.286466 -0.039332 -0.205714
v -1.086672 -0.300008 -0.192081
v -0.040743 -0.627682 0.194430
v 0.414352 -0.026919 0.588507
v -1.161568 1.098762 -0.114054
v 0.093704 1.920693 -0.351041
v 0.343553 1.484197 0.428354
v 0.340653 1.477823 0.434804
v -0.356827 1.135171 0.485133
v -1.062413 0.963234 0.132911
v 0.113495 1.466693 -1.364519
v 0.788055 1.559830 -1.253605
v 1.072138 0.812053 -1.230775
v 0.293520 -0.203881 -1.382694
v -1.184374 1.162152 -0.118944
v -1.366036 0.839484 -0.461864
v -0.634139 1.722914 -0.920829
v 0.090688 1.530082 -1.369409
v -0.347535 1.938267 -0.809158
v 0.765248 1.623219 -1.258495
v 0.145298 1.892164 -0.845824
v 0.070897 1.984082 -0.355931
v -0.369805 1.967345 -0.665187
v -0.379633 1.198560 0.480242
v -1.085220 1.026623 0.128021
v 0.317847 1.541212 0.429914
v 0.320746 1.547586 0.423464
vn 0.3015 0.6069 0.7353
vn 0.1570 0.0282 -0.9872
vn 0.1803 -0.7234 -0.6665
vn 0.5108 -0.3475 -0.7863
vn 0.7058 -0.6319 0.3202
vn -0.1932 -0.9756 -0.1039
vn -0.7902 -0.6092 -0.0675
vn -0.4082 -0.2212 0.8857
vn 0.0227 0.1028 0.9944
vn -0.8986 0.0732 0.4325
vn 0.8116 0.5626 0.1573
vn -0.5038 -0.0248 -0.8635
vn -0.5573 -0.2613 -0.7881
vn -0.9272 -0.3183 0.1976
vn 0.1645 -0.0169 -0.9862
vn 0.7176 0.3064 0.6254
vn 0.0819 0.9812 -0.1748
vn -0.3901 0.7595 0.5205
vn -0.7441 0.6646 -0.0683
vn -0.0704 0.7891 -0.6102
vn 0.9362 0.3428 0.0779
vn -0.4284 -0.0847 0.8996
vn 0.9374 0.3283 -0.1167
vn -0.7573 -0.2252 0.6130
vn 0.0290 0.0872 0.9958
vn 0.6129 0.2776 0.7398
vn -0.3423 -0.1941 -0.9193
usemtl Material.006
s off
f 65//32 51//32 64//32
f 71//33 68//33 69//33 70//33
f 57//34 56//34 55//34
f 71//35 70//35 53//35 54//35 56//35 57//35
f 54//36 53//36 52//36 61//36 60//36
f 56//37 54//37 60//37 59//37 50//37 55//37
f 50//38 59//38 58//38 49//38
f 59//39 60//39 61//39 66//39 67//39 58//39
f 52//40 51//40 65//40 66//40 61//40
f 49//41 58//41 67//41 62//41 46//41
f 53//42 70//42 69//42 48//42 63//42 64//42 51//42 52//42
f 47//43 68//43 71//43 57//43 55//43 50//43 49//43 46//43
usemtl Material.005
f 68//44 47//44 74//44 75//44
f 62//45 67//45 82//45 72//45
f 69//46 68//46 75//46 77//46
f 65//47 64//47 84//47 83//47
f 79//48 78//48 76//48 80//48
f 83//49 84//49 79//49 80//49 72//49 82//49 81//49
f 76//50 74//50 73//50 72//50 80//50
f 78//51 77//51 75//51 74//51 76//51
f 63//52 48//52 78//52 79//52
f 67//53 66//53 81//53 82//53
f 64//54 63//54 79//54 84//54
f 46//55 62//55 72//55 73//55
f 66//56 65//56 83//56 81//56
f 48//57 69//57 77//57 78//57
f 47//58 46//58 73//58 74//58
o Cube.002
v -0.087152 0.028996 0.904776
v -0.057354 0.565207 0.641158
v -0.196029 0.637668 0.504559
v -0.352086 0.884969 0.490235
v -0.102088 0.014124 1.140801
v -0.221270 0.305391 1.414113
v -1.084070 0.371682 0.388120
v -1.408215 0.662566 0.600155
v -0.792748 1.471226 0.888844
v -0.661567 1.237899 1.431518
v -0.251164 1.071944 1.428869
v -0.592045 1.169709 1.429208
v -0.261146 1.238662 1.325564
v -0.297772 -0.037823 1.206126
v -0.400084 0.059094 1.330013
v -0.993280 0.374134 1.368982
v -1.292669 0.373347 0.948967
v -0.304034 -0.058244 0.724647
v -0.569104 0.615190 0.386025
v -0.259458 0.558110 0.472834
v -1.078018 0.371496 0.386180
v -1.080663 0.367244 0.387445
v -0.888484 0.030233 0.568948
v -0.471595 -0.126465 0.719613
v -0.089718 1.117849 0.700576
v -0.363563 1.370816 0.537583
v -0.524890 1.512839 0.790214
v -0.254828 1.256359 1.299803
v -0.778225 1.533098 0.888844
v -0.647044 1.299772 1.431518
v -0.510367 1.574712 0.790214
v -0.577523 1.231581 1.429208
v -0.240305 1.318232 1.299803
v -0.246624 1.300534 1.325564
v -0.236641 1.133817 1.428869
v -0.349040 1.432689 0.537583
v -0.075195 1.179721 0.700576
vn -0.3065 -0.0911 -0.9475
vn 0.2928 0.1334 -0.9468
vn 0.1832 -0.3831 -0.9053
vn -0.8004 0.3550 0.4830
vn -0.0507 -0.0801 0.9955
vn 0.3920 -0.5391 0.7455
vn -0.4303 -0.8484 0.3083
vn -0.7491 -0.6019 -0.2767
vn 0.6444 -0.3386 -0.6857
vn 0.3382 -0.9409 0.0195
vn -0.2717 0.4138 -0.8689
vn 0.5886 0.1471 -0.7949
vn 0.9745 0.0649 0.2146
vn 0.4371 -0.1026 -0.8936
vn 0.0270 -0.0063 0.9996
vn 0.8835 -0.2074 -0.4200
vn 0.6737 0.7389 0.0148
vn 0.1520 0.5272 0.8361
vn 0.0722 0.8894 0.4513
vn 0.0009 -0.0002 1.0000
vn 0.9703 -0.2278 0.0815
vn 0.9269 -0.2176 0.3057
vn -0.9235 0.2168 0.3164
vn -0.3557 0.0835 -0.9309
vn -0.7788 0.1828 -0.6001
usemtl Material.008
s off
f 106//59 91//59 105//59
f 103//60 88//60 87//60 104//60
f 106//61 105//61 103//61 104//61 102//61 108//61 107//61
f 94//62 93//62 92//62 101//62 100//62
f 96//63 94//63 100//63 99//63 90//63 95//63
f 90//64 99//64 98//64 89//64
f 99//65 100//65 101//65 107//65 108//65 98//65
f 92//66 91//66 106//66 107//66 101//66
f 87//67 86//67 85//67 102//67 104//67
f 89//68 98//68 108//68 102//68 85//68
f 93//69 111//69 110//69 88//69 103//69 105//69 91//69 92//69
f 88//70 110//70 109//70 86//70 87//70
f 86//71 109//71 112//71 97//71 95//71 90//71 89//71 85//71
usemtl Material.007
f 109//72 110//72 120//72 121//72
f 94//73 96//73 116//73 114//73
f 95//74 97//74 118//74 119//74
f 117//75 121//75 120//75 115//75
f 118//76 116//76 119//76
f 117//77 115//77 113//77 114//77 116//77 118//77
f 96//78 95//78 119//78 116//78
f 97//79 112//79 117//79 118//79
f 112//80 109//80 121//80 117//80
f 93//81 94//81 114//81 113//81
f 111//82 93//82 113//82 115//82
f 110//83 111//83 115//83 120//83
