# Blender v2.79 (sub 0) OBJ File: 'TANKGAME-ROCKTILE1.blend'
# www.blender.org
mtllib Tile_Rock_1.mtl
o Cube
v 1.499999 -0.500000 -1.499999
v 1.499999 -0.500000 1.499999
v -1.499999 -0.500000 1.499999
v -1.499999 -0.500000 -1.500000
v 1.500000 0.500000 -1.499998
v 1.499998 0.500000 1.500000
v -1.500000 0.500000 1.499999
v -1.499999 0.500000 -1.499999
vn 0.0000 -1.0000 0.0000
vn 0.0000 1.0000 0.0000
vn 1.0000 0.0000 0.0000
vn -0.0000 -0.0000 1.0000
vn -1.0000 -0.0000 -0.0000
vn 0.0000 0.0000 -1.0000
usemtl Material
s off
f 1//1 2//1 3//1 4//1
f 5//2 8//2 7//2 6//2
f 1//3 5//3 6//3 2//3
f 2//4 6//4 7//4 3//4
f 3//5 7//5 8//5 4//5
f 5//6 1//6 4//6 8//6
o Cube.003
v -1.610322 1.047266 -0.240867
v -1.383286 0.289203 -0.603027
v -0.920090 0.703695 -1.316255
v -0.901035 0.926390 -1.342762
v -0.792409 1.213121 -1.363219
v -1.178459 1.783812 -0.625596
v -1.537358 1.409383 -0.349930
v -1.330010 1.414847 -0.670911
v -1.270957 1.700259 -0.520921
v -1.438168 1.587771 -0.291928
v -1.197055 0.100475 -0.394263
v -0.586228 -0.085939 -0.377778
v -1.019402 0.219075 0.182293
v -0.936604 2.003699 -0.278934
v -1.415802 1.598189 -0.240279
v -0.389707 0.815060 0.659367
v -0.434907 1.849624 -0.072705
v -0.054028 0.425387 -1.260846
v -0.168906 0.934562 -1.318945
v 0.129987 1.148681 -0.780458
v 0.316891 0.268053 -0.338995
v -1.014962 0.463679 0.510338
v -1.520020 1.065446 -0.004390
v -0.723583 0.672985 0.658712
v -1.441645 1.341072 -0.007164
v -0.090060 -0.077786 -0.577946
v 0.269556 0.198707 -0.402289
v 0.047599 0.065376 -0.814280
v -0.194118 0.980477 -1.340665
v -0.817622 1.259036 -1.384939
v -1.203671 1.829726 -0.647316
v -1.296169 1.746174 -0.542641
v -1.441015 1.644103 -0.261999
v -1.463380 1.633685 -0.313648
v -1.355223 1.460762 -0.692631
v -1.562571 1.455297 -0.371650
v -0.961817 2.049613 -0.300654
v -0.460119 1.895538 -0.094425
v 0.104775 1.194595 -0.802178
vn -0.5693 0.1943 0.7988
vn -0.7175 0.3119 -0.6228
vn -0.8405 0.0070 -0.5418
vn -0.2873 -0.9169 0.2771
vn 0.8560 0.3415 0.3881
vn 0.0313 -0.1036 -0.9941
vn 0.6353 -0.7665 -0.0942
vn -0.2421 0.5491 0.7999
vn -0.8983 0.3051 0.3161
vn 0.2686 -0.7542 0.5992
vn -0.8383 -0.4222 0.3450
vn 0.9090 -0.0169 -0.4165
vn -0.2125 -0.7850 -0.5819
vn -0.3552 -0.5519 -0.7544
vn 0.7882 0.1505 -0.5967
vn -0.2016 0.3262 0.9236
vn -0.7772 0.4585 -0.4310
vn -0.6473 0.7614 -0.0350
vn 0.3510 0.7850 -0.5104
vn -0.2930 0.2726 0.9164
vn -0.8621 -0.5028 -0.0622
vn -0.6775 -0.5837 -0.4476
vn 0.8215 0.1981 -0.5347
vn -0.8622 -0.2710 0.4280
vn -0.5844 0.0619 0.8091
vn -0.1591 -0.4922 -0.8558
vn 0.8368 0.5280 0.1449
usemtl Material.017
s off
f 31//7 30//7 32//7 33//7
f 14//8 13//8 12//8 16//8 17//8
f 12//9 11//9 10//9 9//9 15//9 16//9
f 20//10 21//10 19//10
f 29//11 28//11 25//11 24//11
f 13//12 27//12 26//12 11//12 12//12
f 36//13 35//13 34//13
f 25//14 22//14 23//14 33//14 32//14 24//14
f 15//15 9//15 31//15 33//15 23//15 18//15
f 35//16 29//16 24//16 32//16 30//16 21//16 20//16 34//16
f 19//17 21//17 30//17 31//17 9//17 10//17
f 26//18 27//18 28//18 29//18 35//18 36//18
f 11//19 26//19 36//19 34//19 20//19 19//19 10//19
usemtl Material.003
f 14//20 17//20 40//20 39//20
f 17//21 16//21 43//21 40//21
f 23//22 22//22 45//22 41//22
f 43//23 44//23 42//23 40//23
f 41//24 45//24 39//24 40//24 42//24
f 47//25 37//25 38//25 39//25 45//25 46//25
f 22//26 25//26 46//26 45//26
f 13//27 14//27 39//27 38//27
f 16//28 15//28 44//28 43//28
f 28//29 27//29 37//29 47//29
f 18//30 23//30 41//30 42//30
f 15//31 18//31 42//31 44//31
f 27//32 13//32 38//32 37//32
f 25//33 28//33 47//33 46//33
o Cube.006
v 0.972216 1.312498 -0.933183
v 1.251828 1.136193 -0.482372
v 0.769524 1.039519 -0.194856
v 0.588937 1.041781 -0.274770
v 0.377923 0.855652 -0.271998
v 0.412520 1.121648 -0.887369
v 0.793397 1.358207 -0.981451
v 0.616586 1.277572 -0.810608
v 0.563205 1.270692 -0.927619
v 0.718779 1.348526 -1.061832
v 1.409933 0.972774 -0.490029
v 1.373573 0.577261 -0.420633
v 1.422619 0.779569 -0.865553
v 0.453111 0.904331 -1.299984
v 0.674900 1.177745 -1.274690
v 1.009506 0.503910 -1.435703
v 0.339245 0.567347 -1.375184
v 0.698352 0.400018 -0.012220
v 0.420321 0.454442 -0.165932
v 0.415490 0.236507 -0.503673
v 0.955163 0.032421 -0.492344
v 1.361680 0.760639 -1.134659
v 1.064540 1.255920 -1.044158
v 1.151438 0.668169 -1.403376
v 0.913137 1.160314 -1.276015
v 1.194481 0.284748 -0.251343
v 1.018416 0.099308 -0.472324
v 1.023906 0.262027 -0.178359
v 0.981892 1.344536 -0.970908
v 0.808485 1.388860 -1.017716
v 0.693573 1.213860 -1.302080
v 0.736125 1.379473 -1.095664
v 0.924601 1.196957 -1.303365
v 1.071422 1.289670 -1.078525
vn 0.6195 0.4740 -0.6257
vn -0.3251 0.9364 0.1322
vn -0.6903 0.6120 -0.3860
vn -0.6404 0.7168 0.2758
vn 0.0015 0.9295 0.3687
vn 0.9942 -0.0784 0.0739
vn -0.2137 -0.8944 -0.3928
vn -0.9994 0.0349 0.0057
vn -0.3599 0.2748 0.8916
vn 0.3066 -0.8352 0.4566
vn -0.0603 0.2181 -0.9741
vn 0.7619 -0.6075 -0.2248
vn 0.7696 0.6139 -0.1756
vn -0.2419 -0.8255 0.5099
vn 0.4526 0.1863 0.8720
vn -0.9159 0.3834 -0.1188
vn 0.1988 0.8460 -0.4947
vn 0.8009 0.3391 0.4934
vn -0.0475 -0.5879 -0.8075
vn 0.8071 -0.4939 -0.3234
vn 0.0187 0.7597 0.6500
vn -0.5333 0.7424 0.4056
usemtl Material.020
s off
f 70//34 69//34 71//34 72//34
f 55//35 54//35 57//35 56//35
f 62//36 61//36 53//36 56//36 57//36
f 53//37 52//37 51//37 55//37 56//37
f 51//38 50//38 49//38 48//38 54//38 55//38
f 59//39 60//39 58//39
f 68//40 67//40 64//40 63//40
f 67//41 66//41 52//41 53//41 61//41 64//41
f 52//42 66//42 65//42 50//42 51//42
f 75//43 74//43 73//43
f 64//44 61//44 62//44 72//44 71//44 63//44
f 74//45 68//45 63//45 71//45 69//45 60//45 59//45 73//45
f 58//46 60//46 69//46 70//46 48//46 49//46
f 65//47 66//47 67//47 68//47 74//47 75//47
f 50//48 65//48 75//48 73//48 59//48 58//48 49//48
usemtl Material.001
f 62//49 57//49 79//49 78//49
f 77//50 76//50 81//50 80//50 78//50 79//50
f 48//51 70//51 81//51 76//51
f 72//52 62//52 78//52 80//52
f 70//53 72//53 80//53 81//53
f 54//54 48//54 76//54 77//54
f 57//55 54//55 77//55 79//55
o Cube.007_Cube.008
v 1.006819 0.361186 0.185998
v 1.375635 0.988484 0.399955
v 0.872912 1.442354 0.025310
v 0.640158 1.358687 -0.079747
v 0.282457 1.478003 -0.043778
v 0.264198 0.571623 -0.046674
v 0.816312 0.293883 0.023014
v 0.625486 0.566450 -0.090686
v 0.517511 0.429089 -0.076511
v 0.696048 0.205582 0.009421
v 1.447045 1.048180 0.692066
v 1.175929 1.343079 1.053107
v 1.196869 0.679947 1.057724
v -0.004520 0.380747 0.218896
v 0.562301 0.209896 0.045247
v 0.414004 0.360122 1.366242
v -0.486164 0.497399 0.602527
v 0.112600 1.812395 0.363849
v -0.159893 1.506074 0.727945
v 0.326081 1.573336 1.338015
v 1.016991 0.359501 1.139164
v 1.034139 0.243298 0.358818
v 0.773672 0.285410 1.264254
v 0.896265 0.190092 0.299072
v 0.848548 1.720929 1.155565
v 0.447582 1.558280 1.308127
v 0.667626 1.839686 1.022451
v 1.454917 1.108853 0.680058
v 1.383507 1.049156 0.387946
v 0.880785 1.503026 0.013301
v 0.457856 2.066017 0.553826
v 0.648031 1.419360 -0.091756
v 0.120473 1.873068 0.351840
v 0.290330 1.538675 -0.055787
v 1.183802 1.403751 1.041098
v 0.856421 1.781602 1.143556
v -0.152020 1.566746 0.715936
v 0.333953 1.634009 1.326007
v 0.455455 1.618953 1.296118
v 0.675499 1.900358 1.010442
vn 0.3351 -0.9318 0.1397
vn 0.2165 -0.2214 -0.9508
vn -0.3694 -0.5132 -0.7747
vn -0.1097 0.0089 -0.9939
vn 0.5487 -0.0332 -0.8354
vn 0.8108 0.0297 0.5846
vn -0.7021 0.0442 0.7107
vn -0.7652 0.1543 -0.6251
vn -0.0316 0.7241 0.6890
vn -0.2031 -0.9763 0.0742
vn 0.4422 -0.8164 -0.3715
vn 0.3400 0.0411 0.9395
vn 0.8889 -0.4578 -0.0154
vn -0.1553 -0.1724 -0.9727
vn -0.4744 0.2298 0.8498
vn 0.8047 0.0131 0.5936
vn 0.0734 0.7341 -0.6751
vn -0.4613 0.8064 0.3700
vn 0.7028 0.6948 -0.1529
vn 0.2541 0.1559 0.9545
vn -0.7749 0.2180 0.5933
vn 0.9653 -0.1653 -0.2022
vn 0.4678 -0.2296 -0.8535
vn -0.7934 -0.0175 -0.6085
vn 0.7814 0.0220 0.6236
vn -0.9113 0.0371 -0.4101
vn 0.4403 -0.2290 -0.8682
vn 0.4228 0.1229 0.8979
usemtl Material.022
s off
f 103//56 102//56 104//56 105//56
f 89//57 88//57 91//57 90//57
f 96//58 95//58 87//58 90//58 91//58
f 87//59 86//59 85//59 89//59 90//59
f 85//60 84//60 83//60 82//60 88//60 89//60
f 93//61 94//61 92//61
f 101//62 100//62 98//62 97//62
f 100//63 99//63 86//63 87//63 95//63 98//63
f 108//64 107//64 106//64
f 98//65 95//65 96//65 105//65 104//65 97//65
f 88//66 82//66 103//66 105//66 96//66 91//66
f 107//67 101//67 97//67 104//67 102//67 94//67 93//67 106//67
f 92//68 94//68 102//68 103//68 82//68 83//68
usemtl Material.002
f 85//69 86//69 115//69 113//69
f 108//70 106//70 117//70 121//70
f 93//71 92//71 109//71 116//71
f 115//72 114//72 112//72 111//72 113//72
f 112//73 114//73 118//73 119//73 120//73 121//73
f 111//74 112//74 121//74 117//74 116//74 109//74 110//74
f 101//75 107//75 120//75 119//75
f 100//76 101//76 119//76 118//76
f 92//77 83//77 110//77 109//77
f 84//78 85//78 113//78 111//78
f 99//79 100//79 118//79 114//79
f 107//80 108//80 121//80 120//80
f 86//81 99//81 114//81 115//81
f 83//82 84//82 111//82 110//82
f 106//83 93//83 116//83 117//83
o Cube.008_Cube.009
v -0.717269 0.276219 1.018320
v -0.714996 0.580215 0.939916
v -0.793123 0.630084 0.882559
v -0.876980 0.756427 0.907287
v -0.716245 0.243132 1.138188
v -0.770437 0.361817 1.313757
v -1.260500 0.493427 0.825250
v -1.424243 0.615583 0.976531
v -1.096761 0.801769 1.190038
v -1.006446 0.625755 1.438428
v -0.790625 0.546585 1.404882
v -0.969689 0.591959 1.427477
v -0.800783 0.643113 1.370240
v -0.815908 0.206713 1.172900
v -0.865515 0.241800 1.250388
v -1.176660 0.391079 1.324974
v -1.348922 0.431373 1.120107
v -0.836886 0.247623 0.924193
v -0.992644 0.625962 0.832418
v -0.826971 0.591724 0.859951
v -1.257402 0.493625 0.824025
v -1.258712 0.491268 0.824307
v -1.149160 0.301484 0.874330
v -0.924326 0.210765 0.920118
v -0.733402 0.650311 1.030986
v -0.884457 0.793804 0.984252
v -0.960485 0.837459 1.134629
v -0.798548 0.655046 1.358724
vn -0.3715 0.0957 -0.9235
vn 0.2235 0.3313 -0.9167
vn 0.1237 -0.1856 -0.9748
vn 0.6637 0.7381 0.1213
vn 0.2040 0.3496 0.9144
vn 0.0927 0.7804 0.6183
vn -0.7051 0.3243 0.6306
vn -0.0119 -0.4464 0.8948
vn 0.4504 -0.6690 0.5913
vn -0.3967 -0.9046 0.1556
vn -0.7591 -0.5528 -0.3438
vn 0.5986 -0.1743 -0.7819
vn 0.3506 -0.9157 -0.1965
vn -0.2904 0.7853 -0.5468
vn 0.7152 0.6152 -0.3318
vn 0.9841 0.0714 0.1629
usemtl Material.023
s off
f 143//84 128//84 142//84
f 140//85 125//85 124//85 141//85
f 143//86 142//86 140//86 141//86 139//86 145//86 144//86
f 149//87 146//87 147//87 148//87
f 134//88 133//88 132//88
f 149//89 148//89 130//89 131//89 133//89 134//89
f 131//90 130//90 129//90 138//90 137//90
f 133//91 131//91 137//91 136//91 127//91 132//91
f 127//92 136//92 135//92 126//92
f 136//93 137//93 138//93 144//93 145//93 135//93
f 129//94 128//94 143//94 144//94 138//94
f 124//95 123//95 122//95 139//95 141//95
f 126//96 135//96 145//96 139//96 122//96
f 130//97 148//97 147//97 125//97 140//97 142//97 128//97 129//97
f 125//98 147//98 146//98 123//98 124//98
f 123//99 146//99 149//99 134//99 132//99 127//99 126//99 122//99
