# Blender v2.79 (sub 0) OBJ File: 'TANKGAME-ROCKTILE4.blend'
# www.blender.org
mtllib Tile_Rock_4.mtl
o Cube
v 1.499999 -0.500000 -1.499999
v 1.499999 -0.500000 1.499999
v -1.499999 -0.500000 1.499999
v -1.499999 -0.500000 -1.500000
v 1.500000 0.500000 -1.499998
v 1.499998 0.500000 1.500000
v -1.500000 0.500000 1.499999
v -1.499999 0.500000 -1.499999
vn 0.0000 -1.0000 0.0000
vn 0.0000 1.0000 0.0000
vn 1.0000 0.0000 0.0000
vn -0.0000 -0.0000 1.0000
vn -1.0000 -0.0000 -0.0000
vn 0.0000 0.0000 -1.0000
usemtl Material
s off
f 1//1 2//1 3//1 4//1
f 5//2 8//2 7//2 6//2
f 1//3 5//3 6//3 2//3
f 2//4 6//4 7//4 3//4
f 3//5 7//5 8//5 4//5
f 5//6 1//6 4//6 8//6
o Cube.007_Cube.008
v 0.481625 -0.180705 0.814748
v 0.463881 0.592394 1.279940
v 1.310588 0.896355 0.603699
v 1.531987 0.763106 0.222661
v 1.491191 0.947307 -0.326810
v 1.041979 -0.028518 -0.372617
v 0.722613 -0.336127 0.494029
v 1.150848 -0.095153 0.183267
v 1.047900 -0.224144 0.014714
v 0.700582 -0.428327 0.302737
v 0.103821 0.830885 1.262963
v -0.276333 1.446923 0.896057
v -0.612933 0.684817 0.912053
v 0.334974 -0.044565 -0.767445
v 0.668679 -0.388995 0.100159
v -1.440043 0.603847 0.019693
v -0.474022 0.363424 -1.502893
v 0.623821 1.915644 0.034181
v 0.803535 1.577311 -0.544259
v -0.091010 1.498960 -0.955267
v -0.811790 2.037787 -0.097776
v -0.919932 0.406104 0.813639
v 0.143290 -0.203277 0.875303
v -1.192421 0.426509 0.528401
v 0.210413 -0.284596 0.659591
v -0.294238 2.080719 0.655423
v -0.722594 2.037548 0.085468
v -0.093342 2.143174 0.397448
v -0.081728 1.569505 -0.975546
v -0.789636 2.082950 -0.136809
v 0.751305 1.646339 -0.584642
v 0.593541 1.977158 -0.016787
v -0.723005 2.073838 0.036004
v -0.101622 2.176934 0.347188
vn -0.4690 -0.8330 0.2936
vn 0.6179 -0.7472 0.2447
vn 0.2770 -0.8643 -0.4198
vn 0.8933 -0.3965 -0.2116
vn 0.6745 -0.3729 0.6371
vn -0.4649 0.2233 0.8567
vn -0.6936 0.3758 -0.6146
vn 0.4914 0.0143 -0.8708
vn 0.7502 0.6578 0.0675
vn -0.2027 0.9761 0.0784
vn -0.4054 -0.9027 -0.1443
vn -0.0440 -0.9514 0.3047
vn -0.7224 0.3472 0.5980
vn -0.2157 -0.3334 0.9178
vn 0.3984 0.5743 0.7152
vn -0.3969 0.7345 0.5505
vn 0.1026 0.9058 -0.4110
vn 0.4262 -0.2471 -0.8703
vn -0.7467 0.5707 0.3418
vn 0.8585 0.5108 -0.0454
vn 0.4762 0.7236 0.4996
vn -0.7898 -0.0959 -0.6058
usemtl Material.022
s off
f 31//7 30//7 32//7 33//7
f 16//8 15//8 18//8 17//8
f 23//9 22//9 14//9 17//9 18//9
f 14//10 13//10 12//10 16//10 17//10
f 12//11 11//11 10//11 9//11 15//11 16//11
f 20//12 21//12 19//12
f 29//13 28//13 25//13 24//13
f 28//14 27//14 13//14 14//14 22//14 25//14
f 13//15 27//15 26//15 11//15 12//15
f 36//16 35//16 34//16
f 25//17 22//17 23//17 33//17 32//17 24//17
f 15//18 9//18 31//18 33//18 23//18 18//18
f 35//19 29//19 24//19 32//19 30//19 21//19 20//19 34//19
f 19//20 21//20 30//20 31//20 9//20 10//20
f 11//21 26//21 36//21 34//21 20//21 19//21 10//21
usemtl Material.028
f 35//22 36//22 42//22 41//22
f 40//23 39//23 37//23 38//23 41//23 42//23
f 27//24 28//24 37//24 39//24
f 29//25 35//25 41//25 38//25
f 26//26 27//26 39//26 40//26
f 36//27 26//27 40//27 42//27
f 28//28 29//28 38//28 37//28
o Cube.008_Cube.009
v 1.238765 0.661550 -0.946227
v 1.009458 0.454843 -0.674013
v 0.866676 0.449287 -0.675517
v 0.734945 0.296925 -0.673120
v 1.346437 0.581686 -1.039004
v 1.356988 0.302175 -1.102249
v 0.470802 0.552391 -1.171340
v 0.360292 0.274430 -1.318276
v 0.712874 -0.040601 -1.004113
v 1.079029 -0.093172 -1.195102
v 1.299312 0.045217 -1.036710
v 1.124335 -0.046116 -1.180124
v 1.209302 -0.013192 -0.954603
v 1.300560 0.567123 -1.177227
v 1.291363 0.455515 -1.241449
v 0.972879 0.199556 -1.458956
v 0.640511 0.323533 -1.468508
v 1.075604 0.755279 -1.022507
v 0.647844 0.467143 -0.832250
v 0.840778 0.499909 -0.721815
v 0.472655 0.553837 -1.167651
v 0.473000 0.555532 -1.170756
v 0.719543 0.701455 -1.239733
v 1.012870 0.778819 -1.127459
v 1.019019 0.303580 -0.691625
v 0.763006 0.190477 -0.696780
v 0.777861 -0.000406 -0.820956
v 1.196105 -0.013186 -0.937079
vn -0.8196 0.5363 0.2015
vn -0.4991 0.4394 0.7469
vn -0.3764 0.8302 0.4112
vn 0.2135 -0.5210 0.8264
vn 0.5020 -0.8625 -0.0632
vn 0.0701 -0.9701 0.2325
vn -0.2865 -0.7570 -0.5872
vn 0.6863 -0.3174 -0.6544
vn 0.9400 0.1087 -0.3234
vn 0.2021 0.4759 -0.8560
vn -0.4861 0.5357 -0.6904
vn 0.0615 0.7451 0.6641
vn 0.5372 0.8228 -0.1852
vn -0.8531 -0.2017 0.4812
vn 0.0504 -0.1102 0.9926
vn 0.7538 -0.0437 0.6556
usemtl Material.023
s off
f 64//29 49//29 63//29
f 61//30 46//30 45//30 62//30
f 64//31 63//31 61//31 62//31 60//31 66//31 65//31
f 70//32 67//32 68//32 69//32
f 55//33 54//33 53//33
f 70//34 69//34 51//34 52//34 54//34 55//34
f 52//35 51//35 50//35 59//35 58//35
f 54//36 52//36 58//36 57//36 48//36 53//36
f 48//37 57//37 56//37 47//37
f 57//38 58//38 59//38 65//38 66//38 56//38
f 50//39 49//39 64//39 65//39 59//39
f 45//40 44//40 43//40 60//40 62//40
f 47//41 56//41 66//41 60//41 43//41
f 51//42 69//42 68//42 46//42 61//42 63//42 49//42 50//42
f 46//43 68//43 67//43 44//43 45//43
f 44//44 67//44 70//44 55//44 53//44 48//44 47//44 43//44
