# Blender v2.79 (sub 0) OBJ File: 'TANKGAME-tile.blend'
# www.blender.org
mtllib Tile_Snow_1.mtl
o Cube_Cube.002
v -3.000000 -1.000000 3.000000
v -3.000000 1.000000 3.000000
v -3.000000 -1.000000 -3.000000
v -3.000000 1.000000 -3.000000
v 3.000000 -1.000000 3.000000
v 3.000000 1.000000 3.000000
v 3.000000 -1.000000 -3.000000
v 3.000000 1.000000 -3.000000
v -3.000000 -1.000000 0.000000
v -3.000000 1.000000 0.000000
v 3.000000 -1.000000 0.000000
v 3.000000 1.000000 0.000000
v 0.000000 -1.000000 -3.000000
v 0.000000 1.000000 -3.000000
v 0.000000 -1.000000 3.000000
v 0.000000 1.000000 3.000000
v 0.000000 1.000000 0.000000
v 0.000000 -1.000000 0.000000
vn -1.0000 0.0000 0.0000
vn 0.0000 0.0000 -1.0000
vn 1.0000 0.0000 0.0000
vn 0.0000 0.0000 1.0000
vn 0.0000 -1.0000 0.0000
vn 0.0000 1.0000 0.0000
usemtl Material.001
s off
f 10//1 3//1 9//1
f 14//2 7//2 13//2
f 12//3 5//3 11//3
f 16//4 1//4 15//4
f 11//5 15//5 18//5
f 4//6 17//6 14//6
f 7//5 18//5 13//5
f 8//3 11//3 7//3
f 2//1 9//1 1//1
f 13//5 9//5 3//5
f 14//6 12//6 8//6
f 18//5 1//5 9//5
f 6//4 15//4 5//4
f 4//2 13//2 3//2
f 10//1 4//1 3//1
f 14//2 8//2 7//2
f 12//3 6//3 5//3
f 16//4 2//4 1//4
f 11//5 5//5 15//5
f 7//5 11//5 18//5
f 8//3 12//3 11//3
f 2//1 10//1 9//1
f 13//5 18//5 9//5
f 17//6 16//6 6//6
f 18//5 15//5 1//5
f 6//4 16//4 15//4
f 4//2 14//2 13//2
usemtl Material.003
f 10//6 16//6 17//6
usemtl Material.004
f 17//6 6//6 12//6
f 4//6 10//6 17//6
usemtl Material.005
f 10//6 2//6 16//6
f 14//6 17//6 12//6
