# Blender v2.79 (sub 0) OBJ File: 'TANKGAME-tile2.blend'
# www.blender.org
mtllib Tile_Tree_1.mtl
o Cube_Cube.002
v -3.000000 -1.000000 3.000000
v -3.000000 1.000000 3.000000
v -3.000000 -1.000000 -3.000000
v -3.000000 1.000000 -3.000000
v 3.000000 -1.000000 3.000000
v 3.000000 1.000000 3.000000
v 3.000000 -1.000000 -3.000000
v 3.000000 1.000000 -3.000000
v -3.000000 -1.000000 0.000000
v -3.000000 1.000000 0.000000
v 3.000000 -1.000000 0.000000
v 3.000000 1.000000 0.000000
v 0.000000 -1.000000 -3.000000
v 0.000000 1.000000 -3.000000
v 0.000000 -1.000000 3.000000
v 0.000000 1.000000 3.000000
v 0.000000 1.000000 0.000000
v 0.000000 -1.000000 0.000000
vn -1.0000 0.0000 0.0000
vn 0.0000 0.0000 -1.0000
vn 1.0000 0.0000 0.0000
vn 0.0000 0.0000 1.0000
vn 0.0000 -1.0000 0.0000
vn 0.0000 1.0000 0.0000
usemtl Material.001
s off
f 10//1 3//1 9//1
f 14//2 7//2 13//2
f 12//3 5//3 11//3
f 16//4 1//4 15//4
f 11//5 15//5 18//5
f 4//6 17//6 14//6
f 7//5 18//5 13//5
f 8//3 11//3 7//3
f 2//1 9//1 1//1
f 13//5 9//5 3//5
f 14//6 12//6 8//6
f 18//5 1//5 9//5
f 6//4 15//4 5//4
f 4//2 13//2 3//2
f 10//1 4//1 3//1
f 14//2 8//2 7//2
f 12//3 6//3 5//3
f 16//4 2//4 1//4
f 11//5 5//5 15//5
f 7//5 11//5 18//5
f 8//3 12//3 11//3
f 2//1 10//1 9//1
f 13//5 18//5 9//5
f 17//6 16//6 6//6
f 18//5 15//5 1//5
f 6//4 16//4 15//4
f 4//2 14//2 13//2
usemtl Material.003
f 10//6 16//6 17//6
usemtl Material.004
f 17//6 6//6 12//6
f 4//6 10//6 17//6
usemtl Material.005
f 10//6 2//6 16//6
f 14//6 17//6 12//6
o Cylinder.000_Cylinder.005
v 0.065121 2.332545 -0.297225
v 0.065121 10.253008 0.069369
v 0.341733 2.333437 -0.124390
v 0.116113 10.255146 0.101230
v 0.514568 2.335377 0.152221
v 0.147974 10.257334 0.152221
v 0.341733 2.337121 0.428833
v 0.116113 10.257785 0.203213
v 0.065121 2.335333 0.601668
v 0.065121 10.257334 0.235074
v -0.211490 2.333437 0.428832
v 0.014130 10.255146 0.203213
v -0.384325 2.332545 0.152221
v -0.017731 10.253008 0.152221
v -0.211490 2.331743 -0.124390
v 0.014130 10.252459 0.101230
v 0.065122 3.829696 -1.273289
v 0.065122 5.450072 -0.956242
v 0.065121 7.025949 -0.639195
v 0.065121 8.570998 -0.322148
v 0.357071 8.588703 -0.139728
v 0.552197 7.129443 -0.334854
v 0.747323 5.664852 -0.529980
v 0.942449 3.981966 -0.725106
v 0.539491 8.611288 0.152221
v 0.856538 7.248885 0.152221
v 1.173585 5.897957 0.152221
v 1.490632 4.161418 0.152222
v 0.357071 8.623353 0.444171
v 0.552197 7.295860 0.639297
v 0.747323 5.987359 0.834423
v 0.942449 4.218711 1.029549
v 0.065121 8.631116 0.626591
v 0.065121 7.278044 0.943638
v 0.065121 5.891606 1.260685
v 0.065121 4.108146 1.577732
v -0.226828 8.613692 0.444171
v -0.421954 7.173985 0.639297
v -0.617080 5.673963 0.834423
v -0.812206 3.948323 1.029549
v -0.409248 8.591315 0.152221
v -0.726295 7.066204 0.152221
v -1.043342 5.467974 0.152221
v -1.360389 3.823860 0.152221
v -0.226828 8.573253 -0.139728
v -0.421954 7.018285 -0.334854
v -0.617080 5.408559 -0.529980
v -0.812206 3.784646 -0.725106
v 0.065121 8.380501 -0.722715
v 0.603599 8.409404 -0.386256
v 0.940057 8.173002 0.152221
v 0.603599 8.469563 0.690699
v 0.065121 8.211398 1.027158
v -0.473356 8.457004 0.690699
v -0.809815 8.133448 0.152221
v -0.473356 8.379583 -0.386256
v 0.065122 6.507827 -1.269936
v 0.940385 6.949089 -0.723042
v 1.487278 6.902394 0.152222
v 0.940385 7.230783 1.027485
v 0.065121 6.925976 1.574379
v -0.810143 7.016281 1.027485
v -1.357035 6.566154 0.152221
v -0.810143 6.776034 -0.723042
v 0.065122 4.897978 -1.858388
v 1.302547 5.412999 -1.085204
v 2.075731 5.385042 0.152222
v 1.302547 5.877624 1.389647
v 0.065121 5.325397 2.162831
v -1.172304 5.413199 1.389647
v -1.945488 4.915398 0.152221
v -1.172304 5.106150 -1.085204
v 0.065122 3.410194 -2.340630
v 1.599342 3.753452 -1.381999
v 2.557972 3.541965 0.152222
v 1.599342 4.010573 1.686442
v 0.065121 3.495525 2.645073
v -1.469099 3.725114 1.686441
v -2.427730 3.410194 0.152221
v -1.469099 3.610971 -1.381999
v 1.783992 2.146226 -1.566649
v 2.857997 1.849139 0.152222
v 1.783992 2.151498 1.871092
v 0.065121 1.849139 2.945098
v -1.653749 2.146226 1.871091
v -2.727754 1.849139 0.152221
v -1.653749 2.143804 -1.566649
v 0.065122 1.849139 -2.640655
v 0.065122 -0.117863 -0.297225
v 0.341733 -0.117863 -0.124390
v 0.514568 -0.117863 0.152221
v 0.341733 -0.117863 0.428833
v 0.065122 -0.117863 0.601668
v -0.211489 -0.117863 0.428832
v -0.384325 -0.117863 0.152221
v -0.211489 -0.117863 -0.124390
v 0.307908 1.464119 0.395008
v 0.306379 0.751454 0.393479
v 0.457124 0.751454 0.152221
v 0.459609 1.464120 0.152221
v -0.329366 1.464119 0.152221
v -0.326881 0.751454 0.152221
v -0.176136 0.751454 0.393479
v -0.177665 1.464120 0.395008
v 0.065122 1.464119 0.546709
v 0.065122 0.751454 0.544224
v -0.177665 1.464119 -0.090565
v -0.176136 0.751454 -0.089036
v 0.306379 0.751454 -0.089036
v 0.307908 1.464120 -0.090565
v 0.065122 1.464119 -0.242267
v 0.065122 0.751454 -0.239781
vn 0.4852 0.3407 -0.8053
vn 0.8542 0.3281 -0.4033
vn 0.8659 0.3331 0.3732
vn 0.3888 0.3358 0.8580
vn -0.3960 0.3348 0.8550
vn -0.8717 0.3298 0.3624
vn -0.0261 0.9993 -0.0261
vn -0.8571 0.3236 -0.4007
vn -0.4994 0.3376 -0.7979
vn -0.4069 0.5427 -0.7348
vn -0.4237 0.5245 -0.7385
vn -0.4319 0.4588 -0.7765
vn -0.4218 0.3886 -0.8192
vn -0.7349 0.5434 -0.4057
vn -0.7377 0.5224 -0.4276
vn -0.7713 0.4559 -0.4442
vn -0.8081 0.3909 -0.4407
vn -0.7560 0.5283 0.3866
vn -0.7775 0.5117 0.3655
vn -0.8118 0.4741 0.3408
vn -0.8384 0.4118 0.3571
vn -0.4405 0.4977 0.7472
vn -0.4643 0.4756 0.7472
vn -0.4663 0.4862 0.7390
vn -0.4561 0.4394 0.7739
vn 0.4100 0.4768 0.7776
vn 0.3663 0.4793 0.7976
vn 0.3163 0.5301 0.7867
vn 0.3803 0.4664 0.7987
vn 0.7756 0.4718 0.4193
vn 0.7923 0.4824 0.3736
vn 0.7792 0.5402 0.3178
vn 0.8049 0.4664 0.3669
vn 0.7493 0.4895 -0.4460
vn 0.7410 0.4817 -0.4677
vn 0.7232 0.4981 -0.4783
vn 0.7683 0.4334 -0.4711
vn 0.3840 0.5245 -0.7599
vn 0.3560 0.5173 -0.7783
vn 0.3342 0.4806 -0.8108
vn 0.3650 0.4043 -0.8386
vn 0.2597 -0.8706 0.4179
vn 0.6534 -0.7278 0.2084
vn 0.6633 -0.7409 -0.1058
vn 0.1747 -0.7673 -0.6170
vn -0.1565 -0.7680 -0.6210
vn -0.6443 -0.7550 -0.1220
vn -0.6341 -0.7458 0.2041
vn -0.2142 -0.8810 0.4219
vn -0.0190 -0.8280 0.5604
vn -0.3584 -0.8932 0.2716
vn -0.3801 -0.9248 0.0173
vn -0.0142 -0.9272 -0.3742
vn 0.2351 -0.9021 -0.3618
vn 0.5435 -0.8394 0.0042
vn 0.5165 -0.8263 0.2245
vn 0.1822 -0.8200 0.5425
vn 0.0250 -0.8713 0.4902
vn -0.3461 -0.8852 0.3109
vn -0.4014 -0.9155 0.0268
vn 0.0348 -0.9015 -0.4314
vn 0.2982 -0.8745 -0.3826
vn 0.4910 -0.8711 0.0126
vn 0.4336 -0.8761 0.2110
vn 0.1979 -0.8766 0.4386
vn -0.0222 -0.9386 0.3443
vn -0.3637 -0.9063 0.2152
vn -0.4132 -0.9086 -0.0601
vn -0.0278 -0.9066 -0.4210
vn 0.2012 -0.9093 -0.3641
vn 0.3338 -0.9419 -0.0370
vn 0.2818 -0.9529 0.1123
vn 0.1156 -0.9520 0.2835
vn 0.0307 -0.9821 0.1857
vn -0.1858 -0.9821 -0.0292
vn -0.1868 -0.9818 0.0329
vn 0.0329 -0.9818 -0.1868
vn -0.0292 -0.9821 -0.1858
vn 0.1857 -0.9821 0.0307
vn 0.1852 -0.9823 -0.0289
vn -0.0289 -0.9823 0.1852
vn 0.8467 0.0560 0.5291
vn 0.0000 -1.0000 0.0000
vn -0.8467 0.0560 0.5291
vn 0.5291 0.0560 0.8467
vn -0.8467 0.0560 -0.5291
vn 0.8467 0.0560 -0.5291
vn -0.5291 0.0560 0.8467
vn -0.5291 0.0560 -0.8467
vn 0.5291 0.0560 -0.8467
vn 0.5292 -0.0536 -0.8468
vn 0.5299 -0.0030 -0.8481
vn -0.5291 -0.0536 -0.8469
vn -0.5299 -0.0030 -0.8481
vn -0.5290 -0.0535 0.8469
vn -0.5299 -0.0030 0.8481
vn 0.8469 -0.0535 -0.5290
vn 0.8481 -0.0030 -0.5299
vn -0.8469 -0.0536 -0.5291
vn -0.8481 -0.0030 -0.5299
vn 0.5293 -0.0534 0.8468
vn 0.5299 -0.0030 0.8481
vn -0.8468 -0.0536 0.5292
vn -0.8481 -0.0030 0.5299
vn 0.8468 -0.0534 0.5293
vn 0.8481 -0.0030 0.5299
usemtl Material.014
s off
f 67//7 20//7 22//7 68//7
f 68//8 22//8 24//8 69//8
f 69//9 24//9 26//9 70//9
f 70//10 26//10 28//10 71//10
f 71//11 28//11 30//11 72//11
f 72//12 30//12 32//12 73//12
f 22//13 20//13 34//13 32//13 30//13 28//13 26//13 24//13
f 73//14 32//14 34//14 74//14
f 74//15 34//15 20//15 67//15
f 105//16 66//16 35//16 106//16
f 98//17 65//17 36//17 91//17
f 90//18 64//18 37//18 83//18
f 82//19 63//19 38//19 75//19
f 104//20 62//20 66//20 105//20
f 97//21 61//21 65//21 98//21
f 89//22 60//22 64//22 90//22
f 81//23 59//23 63//23 82//23
f 103//24 58//24 62//24 104//24
f 96//25 57//25 61//25 97//25
f 88//26 56//26 60//26 89//26
f 80//27 55//27 59//27 81//27
f 102//28 54//28 58//28 103//28
f 95//29 53//29 57//29 96//29
f 87//30 52//30 56//30 88//30
f 79//31 51//31 55//31 80//31
f 101//32 50//32 54//32 102//32
f 94//33 49//33 53//33 95//33
f 86//34 48//34 52//34 87//34
f 78//35 47//35 51//35 79//35
f 100//36 46//36 50//36 101//36
f 93//37 45//37 49//37 94//37
f 85//38 44//38 48//38 86//38
f 77//39 43//39 47//39 78//39
f 99//40 42//40 46//40 100//40
f 92//41 41//41 45//41 93//41
f 84//42 40//42 44//42 85//42
f 76//43 39//43 43//43 77//43
f 106//44 35//44 42//44 99//44
f 91//45 36//45 41//45 92//45
f 83//46 37//46 40//46 84//46
f 75//47 38//47 39//47 76//47
f 63//48 74//48 67//48 38//48
f 59//49 73//49 74//49 63//49
f 55//50 72//50 73//50 59//50
f 51//51 71//51 72//51 55//51
f 47//52 70//52 71//52 51//52
f 43//53 69//53 70//53 47//53
f 39//54 68//54 69//54 43//54
f 38//55 67//55 68//55 39//55
f 37//56 75//56 76//56 40//56
f 40//57 76//57 77//57 44//57
f 44//58 77//58 78//58 48//58
f 48//59 78//59 79//59 52//59
f 52//60 79//60 80//60 56//60
f 56//61 80//61 81//61 60//61
f 60//62 81//62 82//62 64//62
f 64//63 82//63 75//63 37//63
f 36//64 83//64 84//64 41//64
f 41//65 84//65 85//65 45//65
f 45//66 85//66 86//66 49//66
f 49//67 86//67 87//67 53//67
f 53//68 87//68 88//68 57//68
f 57//69 88//69 89//69 61//69
f 61//70 89//70 90//70 65//70
f 65//71 90//71 83//71 36//71
f 35//72 91//72 92//72 42//72
f 42//73 92//73 93//73 46//73
f 46//74 93//74 94//74 50//74
f 50//75 94//75 95//75 54//75
f 54//76 95//76 96//76 58//76
f 58//77 96//77 97//77 62//77
f 62//78 97//78 98//78 66//78
f 66//79 98//79 91//79 35//79
f 19//80 106//80 99//80 21//80
f 21//81 99//81 100//81 23//81
f 23//82 100//82 101//82 25//82
f 25//83 101//83 102//83 27//83
f 27//84 102//84 103//84 29//84
f 29//85 103//85 104//85 31//85
f 31//86 104//86 105//86 33//86
f 33//87 105//87 106//87 19//87
usemtl Material.013
f 117//88 116//88 110//88 109//88
f 107//89 108//89 109//89 110//89 111//89 112//89 113//89 114//89
f 121//90 120//90 113//90 112//90
f 116//91 124//91 111//91 110//91
f 120//92 126//92 114//92 113//92
f 127//93 117//93 109//93 108//93
f 124//94 121//94 112//94 111//94
f 126//95 130//95 107//95 114//95
f 130//96 127//96 108//96 107//96
f 19//97 21//97 128//97 129//97
f 129//98 128//98 127//98 130//98
f 33//99 19//99 129//99 125//99
f 125//100 129//100 130//100 126//100
f 27//101 29//101 122//101 123//101
f 123//102 122//102 121//102 124//102
f 21//103 23//103 118//103 128//103
f 128//104 118//104 117//104 127//104
f 31//105 33//105 125//105 119//105
f 119//106 125//106 126//106 120//106
f 25//107 27//107 123//107 115//107
f 115//108 123//108 124//108 116//108
f 29//109 31//109 119//109 122//109
f 122//110 119//110 120//110 121//110
f 23//111 25//111 115//111 118//111
f 118//112 115//112 116//112 117//112
o Cylinder.001_Cylinder.002
v 0.065121 2.941967 -0.283356
v 0.065121 10.344147 0.071925
v 0.333197 2.942142 -0.115854
v 0.114540 10.346220 0.102803
v 0.500699 2.942523 0.152221
v 0.145418 10.348339 0.152221
v 0.333197 2.942865 0.420297
v 0.114540 10.348776 0.201640
v 0.065121 2.942514 0.587799
v 0.065121 10.348339 0.232518
v -0.202954 2.942142 0.420297
v 0.015703 10.346220 0.201639
v -0.370456 2.941967 0.152221
v -0.015175 10.344147 0.152221
v -0.202954 2.941810 -0.115854
v 0.015703 10.343615 0.102803
v 0.065122 4.119048 -1.229300
v 0.065122 5.689423 -0.922037
v 0.065121 7.216670 -0.614773
v 0.065121 8.714042 -0.307510
v 0.348062 8.731200 -0.130719
v 0.537167 7.316970 -0.319824
v 0.726272 5.897574 -0.508929
v 0.915376 4.266619 -0.698033
v 0.524853 8.753088 0.152221
v 0.832116 7.432727 0.152221
v 1.139379 6.123486 0.152221
v 1.446642 4.440534 0.152222
v 0.348062 8.764781 0.435162
v 0.537167 7.478252 0.624267
v 0.726272 6.210130 0.813372
v 0.915376 4.496059 1.002476
v 0.065121 8.772305 0.611953
v 0.065121 7.460985 0.919216
v 0.065121 6.117332 1.226480
v 0.065121 4.388906 1.533743
v -0.217819 8.755419 0.435162
v -0.406924 7.360138 0.624267
v -0.596029 5.906404 0.813371
v -0.785133 4.234015 1.002476
v -0.394610 8.733732 0.152221
v -0.701873 7.255683 0.152221
v -1.009137 5.706771 0.152221
v -1.316400 4.113393 0.152221
v -0.217819 8.716227 -0.130719
v -0.406924 7.209243 -0.319824
v -0.596029 5.649190 -0.508929
v -0.785133 4.075388 -0.698033
v 0.065121 8.936733 -0.695716
v 0.586983 8.557434 -0.369640
v 0.913058 8.328327 0.152221
v 0.586983 8.615737 0.674083
v 0.065121 8.365539 1.000158
v -0.456740 8.603564 0.674082
v -0.782815 8.609127 0.152221
v -0.456740 8.688101 -0.369640
v 0.065122 6.714537 -1.226050
v 0.913376 7.142182 -0.696033
v 1.443393 7.096929 0.152222
v 0.913376 7.415183 1.000476
v 0.065121 7.119782 1.530493
v -0.783133 7.207300 1.000476
v -1.313150 6.771063 0.152221
v -0.783133 7.150969 -0.696033
v 0.065122 5.377597 -1.796344
v 1.264362 5.854712 -1.047019
v 2.013686 5.908104 0.152222
v 1.264362 6.180320 1.351462
v 0.065121 5.568594 2.100787
v -1.134120 6.094277 1.351462
v -1.883444 5.171247 0.152221
v -1.134120 5.716452 -1.047019
v 0.065122 3.712492 -2.263705
v 1.551998 4.045157 -1.334655
v 2.481046 3.840197 0.152222
v 1.551998 4.294344 1.639098
v 0.065121 3.692779 2.568148
v -1.421756 4.196911 1.639098
v -2.350804 3.712492 0.152221
v -1.421756 3.907073 -1.334655
v 1.730950 2.591372 -1.513607
v 2.771813 2.368357 0.152222
v 1.730950 2.595234 1.818050
v 0.065121 2.289382 2.858915
v -1.600707 2.449124 1.818049
v -2.641570 2.289218 0.152221
v -1.600707 2.485180 -1.513607
v 0.065122 2.364038 -2.554471
v 0.065122 2.461052 -0.283356
v 0.333197 2.461052 -0.115854
v 0.500699 2.461052 0.152221
v 0.333197 2.461052 0.420297
v 0.065122 2.461052 0.587799
v -0.202954 2.461052 0.420297
v -0.370456 2.461052 0.152221
v -0.202954 2.461052 -0.115854
v 0.300416 2.771530 0.387516
v 0.298934 2.631664 0.386034
v 0.445027 2.631664 0.152221
v 0.447436 2.771531 0.152221
v -0.317193 2.771530 0.152221
v -0.314784 2.631664 0.152221
v -0.168691 2.631664 0.386034
v -0.170173 2.771531 0.387516
v 0.065122 2.771530 0.534536
v 0.065122 2.631664 0.532127
v -0.170173 2.771530 -0.083073
v -0.168691 2.631664 -0.081591
v 0.298934 2.631664 -0.081591
v 0.300416 2.771531 -0.083073
v 0.065122 2.771530 -0.230093
v 0.065122 2.631664 -0.227685
vn 0.6528 0.3559 -0.6687
vn 0.8542 0.3281 -0.4033
vn 0.8659 0.3331 0.3732
vn 0.3888 0.3358 0.8580
vn -0.3960 0.3348 0.8550
vn -0.7933 0.3505 0.4978
vn -0.0261 0.9993 -0.0261
vn -0.8124 0.3609 -0.4580
vn -0.6035 0.3775 -0.7024
vn 0.8173 0.2667 0.5107
vn -0.4269 0.5590 -0.7108
vn -0.4237 0.5245 -0.7385
vn -0.3756 0.5211 -0.7664
vn -0.3656 0.4065 -0.8373
vn -0.7221 0.5523 -0.4165
vn -0.7377 0.5224 -0.4276
vn -0.7954 0.4954 -0.3492
vn -0.8269 0.4095 -0.3854
vn -0.7433 0.5324 0.4051
vn -0.7844 0.5306 0.3211
vn -0.8316 0.5175 0.2015
vn -0.8384 0.4118 0.3571
vn -0.4579 0.5009 0.7344
vn -0.4144 0.4861 0.7694
vn -0.3416 0.5425 0.7675
vn -0.4561 0.4394 0.7739
vn 0.4008 0.4945 0.7713
vn 0.3530 0.4709 0.8085
vn 0.2909 0.5392 0.7904
vn 0.3803 0.4664 0.7987
vn 0.7604 0.4958 0.4195
vn 0.7923 0.4824 0.3736
vn 0.7331 0.5851 0.3468
vn 0.8049 0.4664 0.3669
vn 0.7314 0.5151 -0.4469
vn 0.7410 0.4817 -0.4677
vn 0.6808 0.5522 -0.4813
vn 0.7683 0.4334 -0.4711
vn 0.3807 0.5530 -0.7411
vn 0.3560 0.5173 -0.7783
vn 0.3124 0.5261 -0.7909
vn 0.3650 0.4043 -0.8386
vn 0.0855 -0.9419 -0.3248
vn 0.2147 -0.9749 0.0597
vn 0.3344 -0.9230 -0.1904
vn 0.1747 -0.7673 -0.6170
vn -0.1565 -0.7680 -0.6210
vn -0.6443 -0.7550 -0.1220
vn -0.6341 -0.7458 0.2041
vn -0.3028 -0.9343 -0.1882
vn -0.0190 -0.8280 0.5604
vn -0.3584 -0.8932 0.2716
vn -0.3801 -0.9248 0.0173
vn -0.0142 -0.9272 -0.3742
vn 0.2351 -0.9021 -0.3618
vn 0.5435 -0.8394 0.0042
vn 0.4616 -0.8847 0.0650
vn 0.0209 -0.8729 0.4874
vn 0.1607 -0.9411 0.2976
vn -0.0988 -0.9732 0.2078
vn -0.1953 -0.9785 0.0667
vn 0.0901 -0.9091 -0.4067
vn -0.0075 -0.9682 -0.2502
vn 0.3399 -0.8840 0.3211
vn 0.3288 -0.9435 -0.0419
vn -0.0415 -0.9817 0.1858
vn -0.0222 -0.9386 0.3443
vn -0.3637 -0.9063 0.2152
vn -0.4132 -0.9086 -0.0601
vn -0.0232 -0.8843 -0.4663
vn 0.0931 -0.9243 -0.3701
vn 0.2790 -0.9575 0.0736
vn 0.2818 -0.9529 0.1123
vn 0.1156 -0.9520 0.2835
vn -0.0318 -0.9717 0.2339
vn -0.2324 -0.9721 0.0333
vn -0.2324 -0.9721 -0.0310
vn -0.0094 -0.9656 -0.2598
vn 0.0874 -0.9598 -0.2665
vn 0.2666 -0.9599 -0.0871
vn 0.2649 -0.9619 0.0681
vn 0.0888 -0.9670 0.2389
vn 0.0000 -1.0000 0.0000
vn -0.8173 0.2667 0.5107
vn 0.5107 0.2667 0.8173
vn -0.8173 0.2667 -0.5107
vn 0.8173 0.2667 -0.5107
vn -0.5107 0.2667 0.8173
vn -0.5107 0.2667 -0.8173
vn 0.5107 0.2667 -0.8173
vn 0.5123 -0.2561 -0.8197
vn 0.5298 -0.0146 -0.8480
vn -0.5121 -0.2563 -0.8198
vn -0.5298 -0.0146 -0.8480
vn -0.5121 -0.2557 0.8200
vn -0.5298 -0.0146 0.8480
vn 0.8200 -0.2557 -0.5121
vn 0.8480 -0.0146 -0.5298
vn -0.8198 -0.2563 -0.5121
vn -0.8480 -0.0146 -0.5298
vn 0.5125 -0.2552 0.8199
vn 0.5298 -0.0146 0.8480
vn -0.8197 -0.2561 0.5123
vn -0.8480 -0.0146 0.5298
vn 0.8199 -0.2552 0.5125
vn 0.8480 -0.0146 0.5298
usemtl Material.007
s off
f 179//113 132//113 134//113 180//113
f 180//114 134//114 136//114 181//114
f 181//115 136//115 138//115 182//115
f 182//116 138//116 140//116 183//116
f 183//117 140//117 142//117 184//117
f 184//118 142//118 144//118 185//118
f 134//119 132//119 146//119 144//119 142//119 140//119 138//119 136//119
f 185//120 144//120 146//120 186//120
f 186//121 146//121 132//121 179//121
f 229//122 228//122 222//122 221//122
f 217//123 178//123 147//123 218//123
f 210//124 177//124 148//124 203//124
f 202//125 176//125 149//125 195//125
f 194//126 175//126 150//126 187//126
f 216//127 174//127 178//127 217//127
f 209//128 173//128 177//128 210//128
f 201//129 172//129 176//129 202//129
f 193//130 171//130 175//130 194//130
f 215//131 170//131 174//131 216//131
f 208//132 169//132 173//132 209//132
f 200//133 168//133 172//133 201//133
f 192//134 167//134 171//134 193//134
f 214//135 166//135 170//135 215//135
f 207//136 165//136 169//136 208//136
f 199//137 164//137 168//137 200//137
f 191//138 163//138 167//138 192//138
f 213//139 162//139 166//139 214//139
f 206//140 161//140 165//140 207//140
f 198//141 160//141 164//141 199//141
f 190//142 159//142 163//142 191//142
f 212//143 158//143 162//143 213//143
f 205//144 157//144 161//144 206//144
f 197//145 156//145 160//145 198//145
f 189//146 155//146 159//146 190//146
f 211//147 154//147 158//147 212//147
f 204//148 153//148 157//148 205//148
f 196//149 152//149 156//149 197//149
f 188//150 151//150 155//150 189//150
f 218//151 147//151 154//151 211//151
f 203//152 148//152 153//152 204//152
f 195//153 149//153 152//153 196//153
f 187//154 150//154 151//154 188//154
f 175//155 186//155 179//155 150//155
f 171//156 185//156 186//156 175//156
f 167//157 184//157 185//157 171//157
f 163//158 183//158 184//158 167//158
f 159//159 182//159 183//159 163//159
f 155//160 181//160 182//160 159//160
f 151//161 180//161 181//161 155//161
f 150//162 179//162 180//162 151//162
f 149//163 187//163 188//163 152//163
f 152//164 188//164 189//164 156//164
f 156//165 189//165 190//165 160//165
f 160//166 190//166 191//166 164//166
f 164//167 191//167 192//167 168//167
f 168//168 192//168 193//168 172//168
f 172//169 193//169 194//169 176//169
f 176//170 194//170 187//170 149//170
f 148//171 195//171 196//171 153//171
f 153//172 196//172 197//172 157//172
f 157//173 197//173 198//173 161//173
f 161//174 198//174 199//174 165//174
f 165//175 199//175 200//175 169//175
f 169//176 200//176 201//176 173//176
f 173//177 201//177 202//177 177//177
f 177//178 202//178 195//178 148//178
f 147//179 203//179 204//179 154//179
f 154//180 204//180 205//180 158//180
f 158//181 205//181 206//181 162//181
f 162//182 206//182 207//182 166//182
f 166//183 207//183 208//183 170//183
f 170//184 208//184 209//184 174//184
f 174//185 209//185 210//185 178//185
f 178//186 210//186 203//186 147//186
f 131//187 218//187 211//187 133//187
f 133//188 211//188 212//188 135//188
f 135//189 212//189 213//189 137//189
f 137//190 213//190 214//190 139//190
f 139//191 214//191 215//191 141//191
f 141//192 215//192 216//192 143//192
f 143//193 216//193 217//193 145//193
f 145//194 217//194 218//194 131//194
f 219//195 220//195 221//195 222//195 223//195 224//195 225//195 226//195
f 233//196 232//196 225//196 224//196
f 228//197 236//197 223//197 222//197
f 232//198 238//198 226//198 225//198
f 239//199 229//199 221//199 220//199
f 236//200 233//200 224//200 223//200
f 238//201 242//201 219//201 226//201
f 242//202 239//202 220//202 219//202
f 131//203 133//203 240//203 241//203
f 241//204 240//204 239//204 242//204
f 145//205 131//205 241//205 237//205
f 237//206 241//206 242//206 238//206
f 139//207 141//207 234//207 235//207
f 235//208 234//208 233//208 236//208
f 133//209 135//209 230//209 240//209
f 240//210 230//210 229//210 239//210
f 143//211 145//211 237//211 231//211
f 231//212 237//212 238//212 232//212
f 137//213 139//213 235//213 227//213
f 227//214 235//214 236//214 228//214
f 141//215 143//215 231//215 234//215
f 234//216 231//216 232//216 233//216
f 135//217 137//217 227//217 230//217
f 230//218 227//218 228//218 229//218
