# Blender v2.79 (sub 0) OBJ File: 'TANKGAME-MAP.blend'
# www.blender.org
mtllib Map.mtl
o BezierCurve
v -0.497715 0.356206 0.058217
v -0.479766 0.423307 0.048342
v -0.456941 0.480407 0.042190
v -0.429594 0.527425 0.039215
v -0.398075 0.564281 0.038871
v -0.362736 0.590893 0.040613
v -0.323929 0.607180 0.043894
v -0.282006 0.613062 0.048168
v -0.237318 0.608458 0.052889
v -0.190217 0.593286 0.057512
v -0.141055 0.567466 0.061489
v -0.090184 0.530917 0.064277
v -0.037954 0.483558 0.065327
v 0.014658 0.437079 0.065327
v 0.066948 0.403156 0.065327
v 0.118968 0.381690 0.065327
v 0.170770 0.372579 0.065327
v 0.222406 0.375722 0.065327
v 0.273930 0.391020 0.065327
v 0.325394 0.418372 0.065327
v 0.376849 0.457676 0.065327
v 0.428348 0.508833 0.065327
v 0.479944 0.571742 0.065327
v 0.531688 0.646302 0.065327
v 0.583635 0.732413 0.065327
l 1 2
l 2 3
l 3 4
l 4 5
l 5 6
l 6 7
l 7 8
l 8 9
l 9 10
l 10 11
l 11 12
l 12 13
l 13 14
l 14 15
l 15 16
l 16 17
l 17 18
l 18 19
l 19 20
l 20 21
l 21 22
l 22 23
l 23 24
l 24 25
o Plane_Plane.009
v -0.539146 0.206153 0.088097
v -0.522606 0.267929 0.079010
v -0.561616 0.211011 0.088449
v -0.544863 0.273692 0.079219
v -0.514459 0.297504 0.074729
v -0.491060 0.353783 0.068838
v -0.536336 0.304574 0.074752
v -0.511456 0.364391 0.068491
v -0.476480 0.380379 0.066941
v -0.436787 0.424009 0.066794
v -0.495618 0.393111 0.066459
v -0.450977 0.442093 0.066306
v -0.411921 0.438913 0.068429
v -0.357027 0.454541 0.073437
v -0.422058 0.459548 0.068183
v -0.357570 0.477517 0.074083
v -0.328095 0.450167 0.076424
v -0.271801 0.431739 0.081768
v -0.324619 0.472870 0.077486
v -0.262132 0.452534 0.083422
v -0.245407 0.416912 0.083727
v -0.195647 0.380824 0.086286
v -0.233710 0.436623 0.085539
v -0.181366 0.398735 0.088243
v -0.171813 0.360537 0.086913
v -0.123630 0.318736 0.087260
v -0.157024 0.378030 0.088887
v -0.109623 0.336862 0.089235
v -0.098110 0.298932 0.087260
v -0.039971 0.268696 0.087260
v -0.085321 0.317936 0.089235
v -0.031919 0.290141 0.089235
v -0.008611 0.257975 0.087260
v 0.057593 0.255197 0.087260
v -0.003660 0.280340 0.089235
v 0.055155 0.277973 0.089235
v 0.090272 0.261456 0.087260
v 0.150949 0.286833 0.087260
v 0.084297 0.283570 0.089235
v 0.139465 0.306653 0.089235
v 0.177788 0.305450 0.087260
v 0.227287 0.347322 0.087260
v 0.164499 0.324108 0.089235
v 0.211348 0.363774 0.089235
v 0.249431 0.370747 0.087260
v 0.290940 0.419847 0.087260
v 0.232621 0.386308 0.089235
v 0.272808 0.433845 0.089235
v 0.309986 0.445618 0.087260
v 0.345415 0.498858 0.087260
v 0.291384 0.458985 0.089235
v 0.326109 0.511186 0.089235
v 0.362325 0.525950 0.087260
v 0.395688 0.581264 0.087260
v 0.342731 0.537815 0.089235
v 0.375760 0.592560 0.089235
v 0.412732 0.609517 0.087260
v 0.446818 0.666022 0.087260
v 0.392804 0.620813 0.089235
v 0.426890 0.677318 0.089235
v 0.463862 0.694275 0.087260
v 0.497948 0.750780 0.087260
v 0.443934 0.705570 0.089235
v 0.478020 0.762076 0.089235
v 0.514992 0.779033 0.087260
v 0.549078 0.835538 0.087260
v 0.495064 0.790329 0.089235
v 0.529150 0.846834 0.089235
v -0.847149 0.167383 0.058815
v -0.847149 1.027660 0.058815
v -0.847149 0.167383 0.011332
v -0.847149 1.027660 0.011332
v 0.854529 0.167383 0.058815
v 0.854529 1.027660 0.058815
v 0.854529 0.167383 0.011332
v 0.854529 1.027660 0.011332
v -0.840917 -0.283836 -0.033600
v -0.840917 1.107349 -0.033600
v -0.781444 -0.283836 0.000737
v -0.781444 1.107349 0.000737
v -0.781444 -0.283836 0.069411
v -0.781444 1.107349 0.069411
v -0.840917 -0.283836 0.103748
v -0.840917 1.107349 0.103748
v -0.900391 -0.283836 0.069411
v -0.900391 1.107349 0.069411
v -0.900391 -0.283836 0.000737
v -0.900391 1.107349 0.000737
v 0.848296 -0.283836 -0.033600
v 0.848296 1.107349 -0.033600
v 0.907770 -0.283836 0.000737
v 0.907770 1.107349 0.000737
v 0.907770 -0.283836 0.069411
v 0.907770 1.107349 0.069411
v 0.848296 -0.283836 0.103748
v 0.848296 1.107349 0.103748
v 0.788823 -0.283836 0.069411
v 0.788823 1.107349 0.069411
v 0.788823 -0.283836 0.000737
v 0.788823 1.107349 0.000737
v -0.073064 0.484881 0.064448
v -0.184214 0.595395 0.064448
v -0.343712 0.437876 0.064448
v -0.353921 0.541931 0.064448
v -0.253487 0.450158 0.064448
v -0.302988 0.602980 0.064448
v -0.729345 0.252137 0.064448
v -0.576688 0.313646 0.064448
v -0.687921 0.426134 0.064448
v -0.574178 0.506472 0.064448
v -0.734994 0.385581 0.064448
v -0.520200 0.425122 0.064448
v -0.417304 0.368897 0.064448
v -0.396806 0.239630 0.064448
v -0.197265 0.391365 0.064448
v -0.237276 0.284823 0.064448
v -0.335134 0.381573 0.064448
v -0.259011 0.227525 0.064448
v -0.499123 0.295916 0.064448
v -0.183257 0.341725 0.064448
v -0.311671 0.304923 0.064448
v 0.763735 0.523676 0.064448
v 0.625615 0.659197 0.064448
v 0.430001 0.463432 0.064448
v 0.416546 0.591806 0.064448
v 0.541285 0.479333 0.064448
v 0.478924 0.667588 0.064448
v -0.044549 0.230976 0.064448
v 0.143405 0.308160 0.064448
v 0.005166 0.446118 0.064448
v 0.144926 0.546228 0.064448
v -0.052615 0.395669 0.064448
v 0.212228 0.446242 0.064448
v 0.339715 0.377674 0.064448
v 0.366079 0.218260 0.064448
v 0.611173 0.407213 0.064448
v 0.562651 0.275357 0.064448
v 0.441052 0.393995 0.064448
v 0.536288 0.204444 0.064448
v 0.239305 0.286907 0.064448
v 0.628872 0.346046 0.064448
v 0.470644 0.299562 0.064448
v 0.059240 0.735588 0.064448
v 0.171248 0.625946 0.064448
v 0.329512 0.784705 0.064448
v 0.340533 0.680733 0.064448
v 0.239385 0.771719 0.064448
v 0.290078 0.619289 0.064448
v 0.713682 0.973452 0.064448
v 0.561510 0.910752 0.064448
v 0.673618 0.799136 0.064448
v 0.560506 0.717912 0.064448
v 0.720373 0.840056 0.064448
v 0.505895 0.798838 0.064448
v 0.402563 0.854257 0.064448
v 0.381055 0.983360 0.064448
v 0.182705 0.830071 0.064448
v 0.221883 0.936923 0.064448
v 0.320494 0.840940 0.064448
v 0.243170 0.994388 0.064448
v 0.483809 0.927875 0.064448
v 0.168310 0.879600 0.064448
v 0.296433 0.917404 0.064448
v -0.687705 0.696247 0.064448
v -0.575739 0.567034 0.064448
v -0.389486 0.725477 0.064448
v -0.386803 0.611458 0.064448
v -0.488629 0.719418 0.064448
v -0.447148 0.549171 0.064448
v 0.045042 0.896318 0.064448
v -0.125998 0.841762 0.064448
v -0.014101 0.710394 0.064448
v -0.144334 0.632206 0.064448
v 0.040388 0.750699 0.064448
v -0.196468 0.725068 0.064448
v -0.303850 0.794557 0.064448
v -0.315687 0.936835 0.064448
v -0.545030 0.787924 0.064448
v -0.492883 0.900584 0.064448
v -0.394262 0.787418 0.064448
v -0.464603 0.961154 0.064448
v -0.208939 0.867326 0.064448
v -0.556250 0.843056 0.064448
v -0.413581 0.872698 0.064448
v -0.853755 0.159743 0.003291
v 0.861134 0.159743 0.003291
v -0.853755 0.132218 0.019182
v 0.861134 0.132218 0.019182
v -0.853755 0.132218 0.050965
v 0.861134 0.132218 0.050965
v -0.853755 0.159743 0.066856
v 0.861134 0.159743 0.066856
v -0.853755 0.187267 0.050965
v 0.861134 0.187267 0.050965
v -0.853755 0.187267 0.019182
v 0.861134 0.187267 0.019182
v -0.853755 1.015628 0.003291
v 0.861134 1.015628 0.003291
v -0.853755 0.988103 0.019182
v 0.861134 0.988103 0.019182
v -0.853755 0.988103 0.050965
v 0.861134 0.988103 0.050965
v -0.853755 1.015628 0.066856
v 0.861134 1.015628 0.066856
v -0.853755 1.043152 0.050965
v 0.861134 1.043152 0.050965
v -0.853755 1.043152 0.019182
v 0.861134 1.043152 0.019182
vn 0.0442 0.1339 0.9900
vn 0.0306 0.0914 0.9953
vn -0.0142 0.0162 0.9998
vn -0.0827 -0.0294 0.9961
vn -0.1044 -0.0305 0.9941
vn -0.0824 -0.0429 0.9957
vn -0.0606 -0.0615 0.9963
vn -0.0399 -0.0767 0.9963
vn -0.0036 -0.0870 0.9962
vn 0.0334 -0.0799 0.9962
vn 0.0556 -0.0657 0.9963
vn 0.0657 -0.0555 0.9963
vn 0.0715 -0.0476 0.9963
vn 0.0736 -0.0444 0.9963
vn -1.0000 0.0000 0.0000
vn 0.0000 0.0000 -1.0000
vn 1.0000 -0.0000 0.0000
vn 0.0000 -0.0000 1.0000
vn 0.0000 -1.0000 0.0000
vn 0.0000 1.0000 0.0000
vn 0.5000 0.0000 -0.8660
vn 0.5000 0.0000 0.8660
vn -0.5000 0.0000 0.8660
vn -0.5000 0.0000 -0.8660
vn 0.0000 -0.5000 -0.8660
vn 0.0000 -0.5000 0.8660
vn -0.0000 0.5000 0.8660
vn -0.0000 0.5000 -0.8660
usemtl Material.016
s off
f 26//1 27//1 29//1 28//1
f 30//2 31//2 33//2 32//2
f 34//3 35//3 37//3 36//3
f 38//4 39//4 41//4 40//4
f 42//5 43//5 45//5 44//5
f 46//6 47//6 49//6 48//6
f 50//7 51//7 53//7 52//7
f 54//8 55//8 57//8 56//8
f 58//9 59//9 61//9 60//9
f 62//10 63//10 65//10 64//10
f 66//11 67//11 69//11 68//11
f 70//12 71//12 73//12 72//12
f 74//13 75//13 77//13 76//13
f 78//14 79//14 81//14 80//14
f 82//14 83//14 85//14 84//14
f 86//14 87//14 89//14 88//14
f 90//14 91//14 93//14 92//14
usemtl Material.010
f 94//15 95//15 97//15 96//15
f 96//16 97//16 101//16 100//16
f 100//17 101//17 99//17 98//17
f 98//18 99//18 95//18 94//18
f 96//19 100//19 98//19 94//19
f 101//20 97//20 95//20 99//20
usemtl Material.009
f 102//21 103//21 105//21 104//21
f 104//17 105//17 107//17 106//17
f 106//22 107//22 109//22 108//22
f 108//23 109//23 111//23 110//23
f 105//20 103//20 113//20 111//20 109//20 107//20
f 110//15 111//15 113//15 112//15
f 112//24 113//24 103//24 102//24
f 102//19 104//19 106//19 108//19 110//19 112//19
usemtl Material.008
f 114//21 115//21 117//21 116//21
f 116//17 117//17 119//17 118//17
f 118//22 119//22 121//22 120//22
f 120//23 121//23 123//23 122//23
f 117//20 115//20 125//20 123//20 121//20 119//20
f 122//15 123//15 125//15 124//15
f 124//24 125//24 115//24 114//24
f 114//19 116//19 118//19 120//19 122//19 124//19
usemtl Material.005
f 130//18 131//18 129//18 128//18
f 126//18 127//18 131//18 130//18
f 136//18 137//18 135//18 134//18
f 132//18 133//18 137//18 136//18
f 146//18 143//18 141//18 145//18
f 144//18 139//18 143//18 146//18
f 138//18 144//18 146//18 142//18
f 142//18 146//18 145//18 140//18
usemtl Material.011
f 151//18 152//18 150//18 149//18
f 147//18 148//18 152//18 151//18
f 157//18 158//18 156//18 155//18
f 153//18 154//18 158//18 157//18
f 167//18 164//18 162//18 166//18
f 165//18 160//18 164//18 167//18
f 159//18 165//18 167//18 163//18
f 163//18 167//18 166//18 161//18
usemtl Material.012
f 172//18 173//18 171//18 170//18
f 168//18 169//18 173//18 172//18
f 178//18 179//18 177//18 176//18
f 174//18 175//18 179//18 178//18
f 188//18 185//18 183//18 187//18
f 186//18 181//18 185//18 188//18
f 180//18 186//18 188//18 184//18
f 184//18 188//18 187//18 182//18
usemtl Material.013
f 193//18 194//18 192//18 191//18
f 189//18 190//18 194//18 193//18
f 199//18 200//18 198//18 197//18
f 195//18 196//18 200//18 199//18
f 209//18 206//18 204//18 208//18
f 207//18 202//18 206//18 209//18
f 201//18 207//18 209//18 205//18
f 205//18 209//18 208//18 203//18
usemtl Material.014
f 210//25 211//25 213//25 212//25
f 212//19 213//19 215//19 214//19
f 214//26 215//26 217//26 216//26
f 216//27 217//27 219//27 218//27
f 213//17 211//17 221//17 219//17 217//17 215//17
f 218//20 219//20 221//20 220//20
f 220//28 221//28 211//28 210//28
f 210//15 212//15 214//15 216//15 218//15 220//15
usemtl Material.015
f 222//25 223//25 225//25 224//25
f 224//19 225//19 227//19 226//19
f 226//26 227//26 229//26 228//26
f 228//27 229//27 231//27 230//27
f 225//17 223//17 233//17 231//17 229//17 227//17
f 230//20 231//20 233//20 232//20
f 232//28 233//28 223//28 222//28
f 222//15 224//15 226//15 228//15 230//15 232//15
