# Blender v2.79 (sub 0) OBJ File: 'Snow-st5blend export.blend'
# www.blender.org
mtllib Narushat-A_Wheel.mtl
o Cylinder.001_Cylinder.013
v -0.101210 0.000000 -0.012061
v 0.049316 -0.000000 -0.012061
v -0.101210 -0.008528 -0.008528
v 0.049316 -0.008528 -0.008528
v -0.101210 -0.012061 -0.000000
v 0.049316 -0.012061 -0.000000
v -0.101210 -0.008528 0.008528
v 0.049316 -0.008528 0.008528
v -0.101210 0.000000 0.012061
v 0.049316 0.000000 0.012061
v -0.101210 0.008528 0.008528
v 0.049316 0.008528 0.008528
v -0.101210 0.012061 -0.000000
v 0.049316 0.012061 -0.000000
v -0.101210 0.008528 -0.008528
v 0.049316 0.008528 -0.008528
v -0.027955 -0.000000 -0.129221
v 0.015270 -0.000000 -0.129221
v 0.015270 -0.091373 -0.091373
v -0.027955 -0.091373 -0.091373
v 0.015270 -0.129221 -0.000000
v -0.027955 -0.129221 -0.000000
v 0.015270 -0.091373 0.091373
v -0.027955 -0.091373 0.091373
v 0.015270 0.000000 0.129221
v -0.027955 0.000000 0.129221
v 0.015270 0.091373 0.091373
v -0.027955 0.091373 0.091373
v 0.015270 0.129221 -0.000000
v -0.027955 0.129221 -0.000000
v 0.015270 0.091373 -0.091373
v -0.027955 0.091373 -0.091373
v -0.027955 -0.000000 -0.098624
v 0.015269 -0.000000 -0.098624
v 0.015269 -0.069737 -0.069737
v -0.027955 -0.069737 -0.069737
v 0.015269 -0.098624 -0.000000
v -0.027955 -0.098624 -0.000000
v 0.015269 -0.069737 0.069737
v -0.027955 -0.069737 0.069737
v 0.015269 0.000000 0.098624
v -0.027955 0.000000 0.098624
v 0.015269 0.069737 0.069737
v -0.027955 0.069737 0.069737
v 0.015269 0.098624 -0.000000
v -0.027955 0.098624 -0.000000
v 0.015269 0.069737 -0.069737
v -0.027955 0.069737 -0.069737
v -0.066147 0.000000 -0.129221
v -0.066147 -0.091373 -0.091373
v 0.053461 -0.091373 -0.091373
v 0.053461 -0.000000 -0.129221
v -0.066147 -0.129221 -0.000000
v 0.053461 -0.129221 -0.000000
v -0.066147 -0.091373 0.091373
v 0.053461 -0.091373 0.091373
v -0.066147 0.000000 0.129221
v 0.053461 0.000000 0.129221
v -0.066147 0.091373 0.091373
v 0.053461 0.091373 0.091373
v -0.066147 0.129221 -0.000000
v 0.053461 0.129221 -0.000000
v -0.066147 0.091373 -0.091373
v 0.053461 0.091373 -0.091373
v -0.066147 0.000000 -0.099415
v -0.066147 -0.070297 -0.070297
v 0.053461 -0.070297 -0.070297
v 0.053461 -0.000000 -0.099415
v -0.066147 -0.099415 -0.000000
v 0.053461 -0.099415 -0.000000
v -0.066147 -0.070297 0.070297
v 0.053461 -0.070297 0.070297
v -0.066147 0.000000 0.099415
v 0.053461 0.000000 0.099415
v -0.066147 0.070297 0.070297
v 0.053461 0.070297 0.070297
v -0.066147 0.099415 -0.000000
v 0.053461 0.099415 -0.000000
v -0.066147 0.070297 -0.070297
v 0.053461 0.070297 -0.070297
v -0.054003 0.000000 -0.099415
v -0.054003 -0.070297 -0.070297
v 0.041318 -0.070297 -0.070297
v 0.041318 -0.000000 -0.099415
v -0.054003 -0.099415 -0.000000
v 0.041318 -0.099415 -0.000000
v -0.054003 -0.070297 0.070297
v 0.041318 -0.070297 0.070297
v -0.054003 0.000000 0.099415
v 0.041318 0.000000 0.099415
v -0.054003 0.070297 0.070297
v 0.041318 0.070297 0.070297
v -0.054003 0.099415 -0.000000
v 0.041318 0.099415 -0.000000
v -0.054003 0.070297 -0.070297
v 0.041318 0.070297 -0.070297
v -0.054003 0.000000 -0.012061
v -0.054003 -0.008528 -0.008528
v 0.041318 -0.008528 -0.008528
v 0.041318 -0.000000 -0.012061
v -0.054003 -0.012061 -0.000000
v 0.041318 -0.012061 -0.000000
v -0.054003 -0.008528 0.008528
v 0.041318 -0.008528 0.008528
v -0.054003 0.000000 0.012061
v 0.041318 0.000000 0.012061
v -0.054003 0.008528 0.008528
v 0.041318 0.008528 0.008528
v -0.054003 0.012061 -0.000000
v 0.041318 0.012061 -0.000000
v -0.054003 0.008528 -0.008528
v 0.041318 0.008528 -0.008528
v -0.054003 -0.007260 -0.014904
v -0.054003 -0.005405 -0.015672
v -0.054003 -0.005405 -0.091326
v -0.054003 -0.060755 -0.068399
v 0.041318 -0.005405 -0.015672
v 0.041318 -0.007260 -0.014904
v 0.041318 -0.060755 -0.068399
v 0.041318 -0.005405 -0.091326
v -0.054003 -0.015672 -0.005405
v -0.054003 -0.014904 -0.007260
v -0.054003 -0.068399 -0.060755
v -0.054003 -0.091326 -0.005405
v 0.041318 -0.014904 -0.007260
v 0.041318 -0.015672 -0.005405
v 0.041318 -0.091326 -0.005405
v 0.041318 -0.068399 -0.060755
v -0.054003 -0.014904 0.007260
v -0.054003 -0.015672 0.005405
v -0.054003 -0.091326 0.005405
v -0.054003 -0.068399 0.060755
v 0.041318 -0.015672 0.005405
v 0.041318 -0.014904 0.007260
v 0.041318 -0.068399 0.060755
v 0.041318 -0.091326 0.005405
v -0.054003 -0.005405 0.015672
v -0.054003 -0.007260 0.014904
v -0.054003 -0.060755 0.068399
v -0.054003 -0.005405 0.091326
v 0.041318 -0.007260 0.014904
v 0.041318 -0.005405 0.015672
v 0.041318 -0.005405 0.091326
v 0.041318 -0.060755 0.068399
v -0.054003 0.007260 0.014904
v -0.054003 0.005405 0.015672
v -0.054003 0.005405 0.091326
v -0.054003 0.060755 0.068399
v 0.041318 0.005405 0.015672
v 0.041318 0.007260 0.014904
v 0.041318 0.060755 0.068399
v 0.041318 0.005405 0.091326
v -0.054003 0.015672 0.005405
v -0.054003 0.014904 0.007260
v -0.054003 0.068399 0.060755
v -0.054003 0.091326 0.005405
v 0.041318 0.014904 0.007260
v 0.041318 0.015672 0.005405
v 0.041318 0.091326 0.005405
v 0.041318 0.068399 0.060755
v -0.054003 0.014904 -0.007260
v -0.054003 0.015672 -0.005405
v -0.054003 0.091326 -0.005405
v -0.054003 0.068399 -0.060755
v 0.041318 0.015672 -0.005405
v 0.041318 0.014904 -0.007260
v 0.041318 0.068399 -0.060755
v 0.041318 0.091326 -0.005405
v -0.054003 0.005405 -0.015672
v -0.054003 0.007260 -0.014904
v -0.054003 0.060755 -0.068399
v -0.054003 0.005405 -0.091326
v 0.041318 0.007260 -0.014904
v 0.041318 0.005405 -0.015672
v 0.041318 0.005405 -0.091326
v 0.041318 0.060755 -0.068399
v -0.042924 -0.007260 -0.014904
v -0.042924 -0.005405 -0.015672
v -0.042924 -0.005405 -0.091326
v -0.042924 -0.060755 -0.068399
v 0.030238 -0.005405 -0.015672
v 0.030238 -0.007260 -0.014904
v 0.030238 -0.060755 -0.068399
v 0.030238 -0.005405 -0.091326
v -0.042924 -0.015672 -0.005405
v -0.042924 -0.014904 -0.007260
v -0.042924 -0.068399 -0.060755
v -0.042924 -0.091326 -0.005405
v 0.030238 -0.014904 -0.007260
v 0.030238 -0.015672 -0.005405
v 0.030238 -0.091326 -0.005405
v 0.030238 -0.068399 -0.060755
v -0.042924 -0.014904 0.007260
v -0.042924 -0.015672 0.005405
v -0.042924 -0.091326 0.005405
v -0.042924 -0.068399 0.060755
v 0.030238 -0.015672 0.005405
v 0.030238 -0.014904 0.007260
v 0.030238 -0.068399 0.060755
v 0.030238 -0.091326 0.005405
v -0.042924 -0.005405 0.015672
v -0.042924 -0.007260 0.014904
v -0.042924 -0.060755 0.068399
v -0.042924 -0.005405 0.091326
v 0.030238 -0.007260 0.014904
v 0.030238 -0.005405 0.015672
v 0.030238 -0.005405 0.091326
v 0.030238 -0.060755 0.068399
v -0.042924 0.007260 0.014904
v -0.042924 0.005405 0.015672
v -0.042924 0.005405 0.091326
v -0.042924 0.060755 0.068399
v 0.030238 0.005405 0.015672
v 0.030238 0.007260 0.014904
v 0.030238 0.060755 0.068399
v 0.030238 0.005405 0.091326
v -0.042924 0.015672 0.005405
v -0.042924 0.014904 0.007260
v -0.042924 0.068399 0.060755
v -0.042924 0.091326 0.005405
v 0.030238 0.014904 0.007260
v 0.030238 0.015672 0.005405
v 0.030238 0.091326 0.005405
v 0.030238 0.068399 0.060755
v -0.042924 0.014904 -0.007260
v -0.042924 0.015672 -0.005405
v -0.042924 0.091326 -0.005405
v -0.042924 0.068399 -0.060755
v 0.030238 0.015672 -0.005405
v 0.030238 0.014904 -0.007260
v 0.030238 0.068399 -0.060755
v 0.030238 0.091326 -0.005405
v -0.042924 0.005405 -0.015672
v -0.042924 0.007260 -0.014904
v -0.042924 0.060755 -0.068399
v -0.042924 0.005405 -0.091326
v 0.030238 0.007260 -0.014904
v 0.030238 0.005405 -0.015672
v 0.030238 0.005405 -0.091326
v 0.030238 0.060755 -0.068399
v 0.053461 -0.081029 -0.068162
v 0.053461 -0.105494 -0.009098
v 0.053461 -0.115605 -0.009098
v 0.053461 -0.088178 -0.075311
v 0.053461 -0.068162 0.081029
v 0.053461 -0.009098 0.105494
v 0.053461 -0.009098 0.115605
v 0.053461 -0.075311 0.088178
v 0.053461 0.081029 0.068162
v 0.053461 0.105494 0.009098
v 0.053461 0.115605 0.009098
v 0.053461 0.088178 0.075311
v 0.053461 0.068162 -0.081029
v 0.053461 0.009098 -0.105494
v 0.053461 0.009098 -0.115605
v 0.053461 0.075311 -0.088178
v 0.061283 -0.105494 -0.009098
v 0.061283 -0.081029 -0.068162
v 0.061283 -0.088178 -0.075311
v 0.061283 -0.115605 -0.009098
v 0.061283 -0.009098 0.105494
v 0.061283 -0.068162 0.081029
v 0.061283 -0.075311 0.088178
v 0.061283 -0.009098 0.115605
v 0.061283 0.105494 0.009098
v 0.061283 0.081029 0.068162
v 0.061283 0.088178 0.075311
v 0.061283 0.115605 0.009098
v 0.061283 0.009098 -0.105494
v 0.061283 0.068162 -0.081029
v 0.061283 0.075311 -0.088178
v 0.061283 0.009098 -0.115605
vn -0.0000 -0.3827 -0.9239
vn -0.0000 -0.9239 -0.3827
vn -0.0000 -0.9239 0.3827
vn 0.0000 -0.3827 0.9239
vn -0.0000 0.3827 0.9239
vn 0.0000 0.9239 0.3827
vn 0.0000 0.9239 -0.3827
vn 0.0000 0.3827 -0.9239
vn -1.0000 0.0000 -0.0000
vn 1.0000 -0.0000 -0.0000
vn 0.0000 -1.0000 0.0000
vn 0.0000 0.7071 -0.7071
vn 0.0000 -0.7071 0.7071
vn 0.0000 -0.0000 -1.0000
vn 0.0000 0.0000 1.0000
vn 0.0000 -0.7071 -0.7071
vn 0.0000 0.7071 0.7071
vn 0.0000 1.0000 0.0000
usemtl Material.1036
s off
f 18//1 52//1 51//1 19//1
f 19//2 51//2 54//2 21//2
f 21//3 54//3 56//3 23//3
f 23//4 56//4 58//4 25//4
f 25//5 58//5 60//5 27//5
f 27//6 60//6 62//6 29//6
f 29//7 62//7 64//7 31//7
f 31//8 64//8 52//8 18//8
f 1//9 3//9 5//9 7//9 9//9 11//9 13//9 15//9
f 63//8 32//8 17//8 49//8
f 47//9 31//9 18//9 34//9
f 61//7 30//7 32//7 63//7
f 45//9 29//9 31//9 47//9
f 59//6 28//6 30//6 61//6
f 43//9 27//9 29//9 45//9
f 57//5 26//5 28//5 59//5
f 41//9 25//9 27//9 43//9
f 55//4 24//4 26//4 57//4
f 39//9 23//9 25//9 41//9
f 53//3 22//3 24//3 55//3
f 37//9 21//9 23//9 39//9
f 50//2 20//2 22//2 53//2
f 35//9 19//9 21//9 37//9
f 49//1 17//1 20//1 50//1
f 34//9 18//9 19//9 35//9
f 17//10 33//10 36//10 20//10
f 20//10 36//10 38//10 22//10
f 22//10 38//10 40//10 24//10
f 24//10 40//10 42//10 26//10
f 26//10 42//10 44//10 28//10
f 28//10 44//10 46//10 30//10
f 30//10 46//10 48//10 32//10
f 32//10 48//10 33//10 17//10
f 66//9 65//9 49//9 50//9
f 68//10 67//10 51//10 52//10
f 69//9 66//9 50//9 53//9
f 71//9 69//9 53//9 55//9
f 70//10 72//10 56//10 54//10
f 73//9 71//9 55//9 57//9
f 75//9 73//9 57//9 59//9
f 74//10 76//10 60//10 58//10
f 77//9 75//9 59//9 61//9
f 79//9 77//9 61//9 63//9
f 78//10 80//10 64//10 62//10
f 65//9 79//9 63//9 49//9
f 82//5 81//5 65//5 66//5
f 84//5 83//5 67//5 68//5
f 85//6 82//6 66//6 69//6
f 83//6 86//6 70//6 67//6
f 87//7 85//7 69//7 71//7
f 86//7 88//7 72//7 70//7
f 89//8 87//8 71//8 73//8
f 88//8 90//8 74//8 72//8
f 91//1 89//1 73//1 75//1
f 90//1 92//1 76//1 74//1
f 93//2 91//2 75//2 77//2
f 92//2 94//2 78//2 76//2
f 95//3 93//3 77//3 79//3
f 94//3 96//3 80//3 78//3
f 81//4 95//4 79//4 65//4
f 96//4 84//4 68//4 80//4
f 3//1 1//1 97//1 98//1
f 5//2 3//2 98//2 101//2
f 7//3 5//3 101//3 103//3
f 9//4 7//4 103//4 105//4
f 11//5 9//5 105//5 107//5
f 13//6 11//6 107//6 109//6
f 15//7 13//7 109//7 111//7
f 1//8 15//8 111//8 97//8
f 127//6 128//6 192//6 191//6
f 135//7 136//7 200//7 199//7
f 159//2 160//2 224//2 223//2
f 167//3 168//3 232//3 231//3
f 67//10 70//10 242//10 241//10
f 70//10 54//10 243//10 242//10
f 54//10 51//10 244//10 243//10
f 51//10 67//10 241//10 244//10
f 72//10 74//10 246//10 245//10
f 74//10 58//10 247//10 246//10
f 58//10 56//10 248//10 247//10
f 56//10 72//10 245//10 248//10
f 76//10 78//10 250//10 249//10
f 78//10 62//10 251//10 250//10
f 62//10 60//10 252//10 251//10
f 60//10 76//10 249//10 252//10
f 80//10 68//10 254//10 253//10
f 68//10 52//10 255//10 254//10
f 52//10 64//10 256//10 255//10
f 64//10 80//10 253//10 256//10
usemtl Material.1035
f 177//9 178//9 179//9 180//9
f 181//10 182//10 183//10 184//10
f 185//9 186//9 187//9 188//9
f 189//10 190//10 191//10 192//10
f 193//9 194//9 195//9 196//9
f 197//10 198//10 199//10 200//10
f 201//9 202//9 203//9 204//9
f 205//10 206//10 207//10 208//10
f 209//9 210//9 211//9 212//9
f 213//10 214//10 215//10 216//10
f 217//9 218//9 219//9 220//9
f 221//10 222//10 223//10 224//10
f 225//9 226//9 227//9 228//9
f 229//10 230//10 231//10 232//10
f 233//9 234//9 235//9 236//9
f 237//10 238//10 239//10 240//10
usemtl Material.1034
f 98//9 97//9 114//9 113//9
f 97//9 81//9 115//9 114//9
f 81//9 82//9 116//9 115//9
f 82//9 98//9 113//9 116//9
f 100//10 99//10 118//10 117//10
f 99//10 83//10 119//10 118//10
f 83//10 84//10 120//10 119//10
f 84//10 100//10 117//10 120//10
f 101//9 98//9 122//9 121//9
f 98//9 82//9 123//9 122//9
f 82//9 85//9 124//9 123//9
f 85//9 101//9 121//9 124//9
f 99//10 102//10 126//10 125//10
f 102//10 86//10 127//10 126//10
f 86//10 83//10 128//10 127//10
f 83//10 99//10 125//10 128//10
f 103//9 101//9 130//9 129//9
f 101//9 85//9 131//9 130//9
f 85//9 87//9 132//9 131//9
f 87//9 103//9 129//9 132//9
f 102//10 104//10 134//10 133//10
f 104//10 88//10 135//10 134//10
f 88//10 86//10 136//10 135//10
f 86//10 102//10 133//10 136//10
f 105//9 103//9 138//9 137//9
f 103//9 87//9 139//9 138//9
f 87//9 89//9 140//9 139//9
f 89//9 105//9 137//9 140//9
f 104//10 106//10 142//10 141//10
f 106//10 90//10 143//10 142//10
f 90//10 88//10 144//10 143//10
f 88//10 104//10 141//10 144//10
f 107//9 105//9 146//9 145//9
f 105//9 89//9 147//9 146//9
f 89//9 91//9 148//9 147//9
f 91//9 107//9 145//9 148//9
f 106//10 108//10 150//10 149//10
f 108//10 92//10 151//10 150//10
f 92//10 90//10 152//10 151//10
f 90//10 106//10 149//10 152//10
f 109//9 107//9 154//9 153//9
f 107//9 91//9 155//9 154//9
f 91//9 93//9 156//9 155//9
f 93//9 109//9 153//9 156//9
f 108//10 110//10 158//10 157//10
f 110//10 94//10 159//10 158//10
f 94//10 92//10 160//10 159//10
f 92//10 108//10 157//10 160//10
f 111//9 109//9 162//9 161//9
f 109//9 93//9 163//9 162//9
f 93//9 95//9 164//9 163//9
f 95//9 111//9 161//9 164//9
f 110//10 112//10 166//10 165//10
f 112//10 96//10 167//10 166//10
f 96//10 94//10 168//10 167//10
f 94//10 110//10 165//10 168//10
f 97//9 111//9 170//9 169//9
f 111//9 95//9 171//9 170//9
f 95//9 81//9 172//9 171//9
f 81//9 97//9 169//9 172//9
f 112//10 100//10 174//10 173//10
f 100//10 84//10 175//10 174//10
f 84//10 96//10 176//10 175//10
f 96//10 112//10 173//10 176//10
f 113//1 114//1 178//1 177//1
f 114//11 115//11 179//11 178//11
f 115//5 116//5 180//5 179//5
f 116//12 113//12 177//12 180//12
f 117//1 118//1 182//1 181//1
f 118//12 119//12 183//12 182//12
f 119//5 120//5 184//5 183//5
f 120//11 117//11 181//11 184//11
f 121//2 122//2 186//2 185//2
f 122//13 123//13 187//13 186//13
f 123//6 124//6 188//6 187//6
f 124//14 121//14 185//14 188//14
f 125//2 126//2 190//2 189//2
f 126//14 127//14 191//14 190//14
f 128//13 125//13 189//13 192//13
f 129//3 130//3 194//3 193//3
f 130//15 131//15 195//15 194//15
f 131//7 132//7 196//7 195//7
f 132//16 129//16 193//16 196//16
f 133//3 134//3 198//3 197//3
f 134//16 135//16 199//16 198//16
f 136//15 133//15 197//15 200//15
f 137//4 138//4 202//4 201//4
f 138//17 139//17 203//17 202//17
f 139//8 140//8 204//8 203//8
f 140//11 137//11 201//11 204//11
f 141//4 142//4 206//4 205//4
f 142//11 143//11 207//11 206//11
f 143//8 144//8 208//8 207//8
f 144//17 141//17 205//17 208//17
f 145//5 146//5 210//5 209//5
f 146//18 147//18 211//18 210//18
f 147//1 148//1 212//1 211//1
f 148//13 145//13 209//13 212//13
f 149//5 150//5 214//5 213//5
f 150//13 151//13 215//13 214//13
f 151//1 152//1 216//1 215//1
f 152//18 149//18 213//18 216//18
f 153//6 154//6 218//6 217//6
f 154//12 155//12 219//12 218//12
f 155//2 156//2 220//2 219//2
f 156//15 153//15 217//15 220//15
f 157//6 158//6 222//6 221//6
f 158//15 159//15 223//15 222//15
f 160//12 157//12 221//12 224//12
f 161//7 162//7 226//7 225//7
f 162//14 163//14 227//14 226//14
f 163//3 164//3 228//3 227//3
f 164//17 161//17 225//17 228//17
f 165//7 166//7 230//7 229//7
f 166//17 167//17 231//17 230//17
f 168//14 165//14 229//14 232//14
f 169//8 170//8 234//8 233//8
f 170//16 171//16 235//16 234//16
f 171//4 172//4 236//4 235//4
f 172//18 169//18 233//18 236//18
f 173//8 174//8 238//8 237//8
f 174//18 175//18 239//18 238//18
f 175//4 176//4 240//4 239//4
f 176//16 173//16 237//16 240//16
usemtl Material.1033
f 242//15 243//15 260//15 257//15
f 253//4 254//4 269//4 270//4
f 248//16 245//16 262//16 263//16
f 249//2 250//2 265//2 266//2
f 258//10 257//10 260//10 259//10
f 262//10 261//10 264//10 263//10
f 266//10 265//10 268//10 267//10
f 270//10 269//10 272//10 271//10
f 252//13 249//13 266//13 267//13
f 246//18 247//18 264//18 261//18
f 256//17 253//17 270//17 271//17
f 243//2 244//2 259//2 260//2
f 250//14 251//14 268//14 265//14
f 247//4 248//4 263//4 264//4
f 254//11 255//11 272//11 269//11
f 251//6 252//6 267//6 268//6
f 255//8 256//8 271//8 272//8
f 241//6 242//6 257//6 258//6
f 245//8 246//8 261//8 262//8
f 244//12 241//12 258//12 259//12
usemtl Material.1031
f 4//10 2//10 16//10 14//10 12//10 10//10 8//10 6//10
f 33//1 34//1 35//1 36//1
f 36//2 35//2 37//2 38//2
f 38//3 37//3 39//3 40//3
f 40//4 39//4 41//4 42//4
f 42//5 41//5 43//5 44//5
f 44//6 43//6 45//6 46//6
f 46//7 45//7 47//7 48//7
f 48//8 47//8 34//8 33//8
f 2//1 4//1 99//1 100//1
f 4//2 6//2 102//2 99//2
f 6//3 8//3 104//3 102//3
f 8//4 10//4 106//4 104//4
f 10//5 12//5 108//5 106//5
f 12//6 14//6 110//6 108//6
f 14//7 16//7 112//7 110//7
f 16//8 2//8 100//8 112//8
