# Blender v2.79 (sub 0) OBJ File: 'Snow-st5blend export.blend'
# www.blender.org
mtllib Narushat-A_Cannon.mtl
o Cylinder_Cylinder.021
v -0.000000 0.392879 0.373863
v -0.000000 0.373165 0.577992
v 0.029872 0.380505 0.373863
v 0.015933 0.366566 0.577992
v 0.042246 0.350633 0.373863
v 0.022532 0.350633 0.577992
v 0.029872 0.320761 0.373863
v 0.015933 0.334700 0.577992
v -0.000000 0.308387 0.373863
v -0.000000 0.328101 0.577992
v -0.029872 0.320761 0.373863
v -0.015933 0.334700 0.577992
v -0.042246 0.350633 0.373863
v -0.022532 0.350633 0.577992
v -0.029872 0.380505 0.373863
v -0.015933 0.366566 0.577992
v 0.029872 0.380505 0.577992
v -0.000000 0.392879 0.577992
v 0.042246 0.350633 0.577992
v 0.029872 0.320761 0.577992
v -0.000000 0.308387 0.577992
v -0.029872 0.320761 0.577992
v -0.042246 0.350633 0.577992
v -0.029872 0.380505 0.577992
v 0.008095 0.358727 0.771246
v -0.000000 0.362080 0.771246
v 0.011447 0.350633 0.771246
v 0.008095 0.342538 0.771246
v -0.000000 0.339185 0.771246
v -0.008095 0.342538 0.771246
v -0.011448 0.350633 0.771246
v -0.008095 0.358727 0.771246
v 0.015933 0.366565 0.771246
v -0.000000 0.373165 0.771246
v 0.022532 0.350633 0.771246
v 0.015933 0.334700 0.771246
v -0.000000 0.328100 0.771246
v -0.015933 0.334700 0.771246
v -0.022532 0.350633 0.771246
v -0.015933 0.366565 0.771246
v 0.008095 0.358727 0.386548
v -0.000000 0.362080 0.386548
v 0.011447 0.350633 0.386548
v 0.008095 0.342538 0.386548
v -0.000000 0.339185 0.386548
v -0.008095 0.342538 0.386548
v -0.011448 0.350633 0.386548
v -0.008095 0.358727 0.386548
v 0.015933 0.334700 0.733781
v 0.015933 0.334700 0.745543
v -0.000000 0.328100 0.745543
v -0.000000 0.328101 0.733781
v 0.015933 0.366565 0.733781
v 0.015933 0.366565 0.745543
v 0.022532 0.350633 0.745543
v 0.022532 0.350633 0.733781
v -0.022532 0.350633 0.733781
v -0.022532 0.350633 0.745543
v -0.015933 0.366565 0.745543
v -0.015933 0.366565 0.733781
v -0.015933 0.334700 0.745543
v -0.015933 0.334700 0.733781
v -0.000000 0.373165 0.733781
v -0.000000 0.373165 0.745543
vn 0.3827 0.9239 0.0000
vn 0.9239 0.3827 0.0000
vn 0.9239 -0.3827 0.0000
vn 0.3827 -0.9239 0.0000
vn -0.3827 -0.9239 0.0000
vn -0.9239 -0.3827 0.0000
vn -0.9239 0.3827 0.0000
vn -0.3827 0.9239 0.0000
vn 0.0000 0.0000 -1.0000
vn 0.0000 0.0000 1.0000
usemtl Material.1073
s off
f 1//1 18//1 17//1 3//1
f 3//2 17//2 19//2 5//2
f 5//3 19//3 20//3 7//3
f 7//4 20//4 21//4 9//4
f 9//5 21//5 22//5 11//5
f 11//6 22//6 23//6 13//6
f 51//4 50//4 36//4 37//4
f 13//7 23//7 24//7 15//7
f 15//8 24//8 18//8 1//8
f 1//9 3//9 5//9 7//9 9//9 11//9 13//9 15//9
f 2//10 4//10 17//10 18//10
f 4//10 6//10 19//10 17//10
f 6//10 8//10 20//10 19//10
f 8//10 10//10 21//10 20//10
f 10//10 12//10 22//10 21//10
f 12//10 14//10 23//10 22//10
f 14//10 16//10 24//10 23//10
f 16//10 2//10 18//10 24//10
f 30//1 29//1 45//1 46//1
f 55//2 54//2 33//2 35//2
f 59//7 58//7 39//7 40//7
f 61//5 51//5 37//5 38//5
f 50//3 55//3 35//3 36//3
f 54//1 64//1 34//1 33//1
f 64//8 59//8 40//8 34//8
f 58//6 61//6 38//6 39//6
f 26//10 25//10 33//10 34//10
f 25//10 27//10 35//10 33//10
f 27//10 28//10 36//10 35//10
f 28//10 29//10 37//10 36//10
f 29//10 30//10 38//10 37//10
f 30//10 31//10 39//10 38//10
f 31//10 32//10 40//10 39//10
f 32//10 26//10 34//10 40//10
f 28//7 27//7 43//7 44//7
f 25//5 26//5 42//5 41//5
f 26//4 32//4 48//4 42//4
f 31//2 30//2 46//2 47//2
f 29//8 28//8 44//8 45//8
f 27//6 25//6 41//6 43//6
f 32//3 31//3 47//3 48//3
f 14//6 12//6 62//6 57//6
f 2//8 16//8 60//8 63//8
f 4//1 2//1 63//1 53//1
f 8//3 6//3 56//3 49//3
f 12//5 10//5 52//5 62//5
f 16//7 14//7 57//7 60//7
f 6//2 4//2 53//2 56//2
f 10//4 8//4 49//4 52//4
usemtl Material.1074
f 41//10 42//10 48//10 47//10 46//10 45//10 44//10 43//10
usemtl Material.1075
f 57//6 62//6 61//6 58//6
f 63//8 60//8 59//8 64//8
f 53//1 63//1 64//1 54//1
f 49//3 56//3 55//3 50//3
f 62//5 52//5 51//5 61//5
f 60//7 57//7 58//7 59//7
f 56//2 53//2 54//2 55//2
f 52//4 49//4 50//4 51//4
