# Blender v2.79 (sub 0) OBJ File: 'TANKGAME-DECORATION_3.blend'
# www.blender.org
mtllib Decoration_8.mtl
o Cube.004_Cube.002
v -0.284127 0.001913 0.185527
v -0.238498 0.330265 0.139897
v -0.284127 0.001913 0.084719
v -0.238498 0.330265 0.130348
v -0.183319 0.001913 0.185527
v -0.228949 0.330265 0.139897
v -0.183319 0.001913 0.084719
v -0.228949 0.330265 0.130348
vn -0.9905 0.1376 0.0000
vn 0.0000 0.1376 -0.9905
vn 0.9905 0.1376 0.0000
vn 0.0000 0.1376 0.9905
vn 0.0000 -1.0000 0.0000
vn 0.0000 1.0000 0.0000
usemtl Material.008
s off
f 1//1 2//1 4//1 3//1
f 3//2 4//2 8//2 7//2
f 7//3 8//3 6//3 5//3
f 5//4 6//4 2//4 1//4
f 3//5 7//5 5//5 1//5
f 8//6 4//6 2//6 6//6
o Cube.000_Cube.005
v -0.138856 0.001913 -0.287000
v -0.093227 0.330265 -0.332630
v -0.138856 0.001913 -0.387808
v -0.093227 0.330265 -0.342179
v -0.038048 0.001913 -0.287000
v -0.083678 0.330265 -0.332630
v -0.038048 0.001913 -0.387808
v -0.083678 0.330265 -0.342179
vn -0.9905 0.1376 0.0000
vn 0.0000 0.1376 -0.9905
vn 0.9905 0.1376 0.0000
vn 0.0000 0.1376 0.9905
vn 0.0000 -1.0000 0.0000
vn 0.0000 1.0000 0.0000
usemtl Material.011
s off
f 9//7 10//7 12//7 11//7
f 11//8 12//8 16//8 15//8
f 15//9 16//9 14//9 13//9
f 13//10 14//10 10//10 9//10
f 11//11 15//11 13//11 9//11
f 16//12 12//12 10//12 14//12
o Cube.001_Cube.006
v -0.138856 0.001913 -0.051340
v -0.093227 0.330265 -0.096969
v -0.138856 0.001913 -0.152148
v -0.093227 0.330265 -0.106519
v -0.038048 0.001913 -0.051340
v -0.083678 0.330265 -0.096969
v -0.038048 0.001913 -0.152148
v -0.083678 0.330265 -0.106519
vn -0.9905 0.1376 0.0000
vn 0.0000 0.1376 -0.9905
vn 0.9905 0.1376 0.0000
vn 0.0000 0.1376 0.9905
vn 0.0000 -1.0000 0.0000
vn 0.0000 1.0000 0.0000
usemtl Material.012
s off
f 17//13 18//13 20//13 19//13
f 19//14 20//14 24//14 23//14
f 23//15 24//15 22//15 21//15
f 21//16 22//16 18//16 17//16
f 19//17 23//17 21//17 17//17
f 24//18 20//18 18//18 22//18
o Cube.002_Cube.013
v -0.336184 0.001913 -0.051340
v -0.290555 0.330265 -0.096969
v -0.336184 0.001913 -0.152148
v -0.290555 0.330265 -0.106519
v -0.235376 0.001913 -0.051340
v -0.281006 0.330265 -0.096969
v -0.235376 0.001913 -0.152148
v -0.281006 0.330265 -0.106519
vn -0.9905 0.1376 0.0000
vn 0.0000 0.1376 -0.9905
vn 0.9905 0.1376 0.0000
vn 0.0000 0.1376 0.9905
vn 0.0000 -1.0000 0.0000
vn 0.0000 1.0000 0.0000
usemtl Material.013
s off
f 25//19 26//19 28//19 27//19
f 27//20 28//20 32//20 31//20
f 31//21 32//21 30//21 29//21
f 29//22 30//22 26//22 25//22
f 27//23 31//23 29//23 25//23
f 32//24 28//24 26//24 30//24
o Cube.005_Cube.014
v 0.097181 0.001913 -0.205389
v 0.142811 0.330265 -0.251019
v 0.097181 0.001913 -0.306197
v 0.142811 0.330265 -0.260568
v 0.197989 0.001913 -0.205389
v 0.152360 0.330265 -0.251019
v 0.197989 0.001913 -0.306197
v 0.152360 0.330265 -0.260568
vn -0.9905 0.1376 0.0000
vn 0.0000 0.1376 -0.9905
vn 0.9905 0.1376 0.0000
vn 0.0000 0.1376 0.9905
vn 0.0000 -1.0000 0.0000
vn 0.0000 1.0000 0.0000
usemtl Material.014
s off
f 33//25 34//25 36//25 35//25
f 35//26 36//26 40//26 39//26
f 39//27 40//27 38//27 37//27
f 37//28 38//28 34//28 33//28
f 35//29 39//29 37//29 33//29
f 40//30 36//30 34//30 38//30
