# Blender v2.79 (sub 0) OBJ File: ''
# www.blender.org
mtllib Tree_4.mtl
o Cylinder.004_Cylinder.003
v -0.008939 -1.884393 0.210889
v -0.066139 2.442205 0.034182
v -0.197469 -1.884393 0.195843
v -0.080537 2.442205 0.033033
v -0.320141 -1.884393 0.051892
v -0.089905 2.442205 0.022039
v -0.305095 -1.884393 -0.136639
v -0.088756 2.442205 0.007642
v -0.161144 -1.884393 -0.259311
v -0.077763 2.442205 -0.001727
v 0.027387 -1.884393 -0.244264
v -0.063365 2.442205 -0.000578
v 0.150059 -1.884393 -0.100314
v -0.053997 2.442205 0.010416
v 0.135012 -1.884393 0.088217
v -0.055146 2.442205 0.024813
v -0.047987 -1.196162 0.090259
v -0.055684 -0.671929 0.066481
v -0.026171 0.257712 0.157655
v -0.052978 1.263064 0.074840
v -0.057027 2.043517 0.062332
v -0.089781 2.043517 0.059718
v -0.111914 1.263064 0.070136
v -0.111756 0.257711 0.151342
v -0.161239 -0.671929 0.058057
v -0.167016 -1.196162 0.080761
v -0.111093 2.043517 0.034710
v -0.150261 1.263064 0.025137
v -0.167506 0.257711 0.086018
v -0.229920 -0.671929 -0.022538
v -0.244465 -1.196162 -0.010119
v -0.108479 2.043517 0.001956
v -0.145558 1.263064 -0.033799
v -0.160781 0.257711 -0.000107
v -0.221496 -0.671929 -0.128093
v -0.234963 -1.196162 -0.129144
v -0.083470 2.043517 -0.019356
v -0.100558 1.263064 -0.072146
v -0.095548 0.257711 -0.056669
v -0.140901 -0.671929 -0.196775
v -0.144079 -1.196162 -0.206592
v -0.050716 2.043517 -0.016742
v -0.041623 1.263064 -0.067443
v -0.009909 0.257711 -0.050192
v 0.022680 -0.630212 -0.144908
v -0.024950 -1.196162 -0.196788
v -0.029404 2.043517 0.008267
v -0.003275 1.263064 -0.022443
v 0.045859 0.257711 0.015187
v 0.065448 -0.648316 -0.110456
v 0.052738 -1.196162 -0.105168
v -0.032018 2.043517 0.041020
v -0.007979 1.263064 0.036492
v 0.039116 0.257711 0.101258
v 0.052827 -0.630212 -0.051776
v 0.043007 -1.196162 0.013147
v -0.171869 -1.622729 0.142443
v -0.265892 -1.622729 0.032119
v -0.254354 -1.622729 -0.112375
v -0.144015 -1.622729 -0.206396
v 0.000612 -1.622729 -0.194494
v 0.094928 -1.622729 -0.083264
v 0.083107 -1.622729 0.060354
v -0.027363 -1.622729 0.153970
v -0.038895 -1.414991 0.118347
v -0.169164 -1.414991 0.107954
v -0.253925 -1.414991 0.008495
v -0.243525 -1.414991 -0.121767
v -0.144057 -1.414991 -0.206527
v -0.013679 -1.414991 -0.195797
v 0.071345 -1.414991 -0.095525
v 0.060692 -1.414991 0.033954
v -0.035722 -0.253738 0.124553
v -0.034045 -0.157298 0.129638
v -0.092723 -0.169256 0.116372
v -0.097470 -0.239513 0.113703
v -0.189481 -0.148960 0.046218
v -0.202369 -0.265258 0.034488
v -0.182250 -0.148960 -0.046570
v -0.194584 -0.265258 -0.064813
v -0.111988 -0.148960 -0.107456
v -0.119296 -0.265258 -0.130031
v -0.019768 -0.148960 -0.100509
v -0.020493 -0.265258 -0.122606
v 0.040302 -0.148960 -0.030063
v 0.043877 -0.265258 -0.047104
v 0.005438 -0.169256 0.083799
v 0.007703 -0.239513 0.078801
v -0.114034 -0.205523 0.121322
v -0.195863 -0.207109 0.040544
v -0.188378 -0.207109 -0.055571
v -0.115603 -0.207109 -0.118624
v -0.020091 -0.207109 -0.111437
v 0.042129 -0.207109 -0.038462
v 0.025506 -0.205523 0.075009
v 0.161556 -0.125265 0.387444
v 0.162060 -0.092570 0.389000
v 0.123207 -0.125265 0.378686
v 0.130668 -0.149857 0.374715
v 0.187253 -0.125265 0.357118
v 0.178940 -0.149857 0.358459
v 0.161026 -0.157959 0.385806
v 0.133063 -0.102216 0.376597
v 0.178115 -0.102216 0.361425
v 0.050546 -0.156683 0.194670
v 0.027657 -0.137228 0.242082
v -0.042401 -0.156683 0.225576
v -0.066096 -0.191876 0.229980
v 0.010011 -0.236010 0.233178
v -0.054420 -0.227611 0.222393
v 0.046969 -0.227611 0.188706
v 0.067236 -0.191876 0.185661
v -0.033664 0.725662 0.134507
v -0.039238 0.795113 0.117286
v -0.107114 0.795113 0.111869
v -0.110481 0.725662 0.128376
v -0.151280 0.795113 0.060043
v -0.160463 0.725662 0.069723
v -0.145862 0.795113 -0.007834
v -0.154333 0.725662 -0.007094
v -0.094036 0.795113 -0.051999
v -0.095680 0.725662 -0.057077
v -0.003439 0.785796 -0.017806
v 0.003406 0.743241 -0.019658
v 0.026385 0.793629 0.000211
v 0.037013 0.743827 0.001921
v 0.013378 0.785796 0.034146
v 0.022438 0.743241 0.039137
v -0.036417 0.760388 0.126002
v -0.108763 0.760388 0.120228
v -0.155837 0.760388 0.064989
v -0.150063 0.760388 -0.007358
v -0.094824 0.760388 -0.054432
v -0.008639 0.763403 -0.045368
v 0.026661 0.763403 0.063680
v 0.185333 0.831984 -0.154709
v 0.191651 0.819303 -0.141077
v 0.205931 0.831984 -0.130536
v 0.208839 0.816790 -0.129877
v 0.203512 0.831984 -0.098550
v 0.201451 0.819303 -0.110806
v 0.188092 0.841087 -0.140301
v 0.203010 0.847178 -0.131236
v 0.196750 0.841087 -0.113552
v 0.139510 0.795386 -0.007467
v 0.136426 0.775834 -0.027507
v 0.112507 0.796961 -0.102664
v 0.114414 0.812293 -0.079048
v 0.120032 0.775884 -0.078153
v 0.150453 0.782234 -0.069599
v 0.130146 0.812612 -0.037363
v 0.142478 0.824815 -0.076020
v -0.149182 -0.522389 0.078871
v -0.221166 -0.525189 -0.000078
v -0.212827 -0.525189 -0.104555
v -0.133054 -0.525189 -0.172535
v 0.025731 -0.556773 -0.133085
v 0.070916 -0.539710 -0.093888
v 0.052777 -0.555372 -0.039763
v -0.048708 -0.525189 0.088032
v -0.155146 -0.597159 0.068663
v -0.225482 -0.598559 -0.011117
v -0.217100 -0.598559 -0.116133
v -0.136916 -0.598559 -0.184465
v 0.016947 -0.594010 -0.161421
v 0.059968 -0.592973 -0.023634
v -0.052134 -0.598559 0.077448
v 0.430315 -0.535367 -0.171591
v 0.432176 -0.547561 -0.166239
v 0.446949 -0.535367 -0.152239
v 0.446252 -0.553321 -0.154952
v 0.444457 -0.535024 -0.126286
v 0.442091 -0.547561 -0.135609
v 0.447638 -0.517412 -0.149550
v 0.442048 -0.522829 -0.131718
v 0.433151 -0.523292 -0.162431
v 0.250132 -0.542754 -0.168337
v 0.274479 -0.542060 -0.107369
v 0.274659 -0.567856 -0.099218
v 0.261915 -0.595973 -0.118024
v 0.242814 -0.568479 -0.186743
v 0.312315 -0.533150 -0.134821
v 0.235445 -0.597319 -0.182495
v 0.283497 -0.601306 -0.153586
vn -0.0794 0.0684 0.9945
vn -0.7597 0.0609 0.6474
vn -0.9956 0.0504 -0.0795
vn -0.6480 0.0429 -0.7604
vn 0.0795 0.0429 -0.9959
vn 0.7602 0.0504 -0.6478
vn 0.0000 1.0000 0.0000
vn 0.9950 0.0609 0.0794
vn 0.6471 0.0684 0.7593
vn 0.0000 -1.0000 0.0000
vn 0.6415 0.1238 0.7570
vn 0.6924 0.0572 0.7193
vn 0.6923 -0.0729 0.7179
vn 0.7804 0.0554 0.6228
vn 0.6485 0.0156 0.7610
vn 0.9928 0.0880 0.0817
vn 0.9919 -0.0121 0.1265
vn 0.9784 -0.0609 0.1974
vn 0.9798 0.0569 0.1917
vn 0.9964 0.0302 0.0795
vn 0.7622 0.0363 -0.6463
vn 0.7223 -0.0102 -0.6915
vn 0.7594 0.0617 -0.6477
vn 0.6792 -0.0074 -0.7339
vn 0.7601 0.0509 -0.6478
vn 0.0820 -0.0003 -0.9966
vn 0.2065 0.0457 -0.9774
vn 0.0747 0.1206 -0.9899
vn 0.2478 -0.0597 -0.9670
vn 0.0794 0.0655 -0.9947
vn -0.6486 -0.0003 -0.7611
vn -0.6485 0.0182 -0.7610
vn -0.6503 0.1200 -0.7502
vn -0.6480 -0.0418 -0.7605
vn -0.6472 0.0655 -0.7595
vn -0.9962 0.0363 -0.0795
vn -0.9965 0.0258 -0.0795
vn -0.9951 0.0614 -0.0776
vn -0.9968 -0.0038 -0.0796
vn -0.9955 0.0509 -0.0795
vn -0.7582 0.0877 0.6461
vn -0.7606 0.0365 0.6482
vn -0.6675 -0.0642 0.7418
vn -0.7602 0.0500 0.6478
vn -0.7608 0.0302 0.6483
vn -0.0789 0.1237 0.9892
vn -0.0795 0.0440 0.9959
vn -0.1279 -0.0757 0.9889
vn -0.0792 0.0877 0.9930
vn -0.0795 0.0156 0.9967
vn -0.0778 0.2067 0.9753
vn -0.7453 0.2025 0.6352
vn -0.9773 0.1967 -0.0780
vn -0.6364 0.1927 -0.7469
vn 0.0791 0.1933 -0.9779
vn 0.7467 0.1979 -0.6350
vn 0.9763 0.2013 0.0790
vn 0.6338 0.2060 0.7456
vn -0.0784 0.1643 0.9833
vn -0.7559 0.1168 0.6442
vn -0.9957 0.0483 -0.0795
vn -0.6486 -0.0006 -0.7611
vn 0.0820 -0.0006 -0.9966
vn 0.7618 0.0484 -0.6460
vn 0.9898 0.1172 0.0814
vn 0.6377 0.1644 0.7525
vn -0.1332 -0.1112 0.9848
vn -0.5173 -0.3165 0.7951
vn -0.6657 -0.0089 0.7461
vn -0.6244 0.1773 0.7607
vn -0.9935 0.0820 -0.0786
vn -0.9902 0.1163 -0.0771
vn -0.6434 0.1581 -0.7490
vn -0.6438 0.1828 -0.7430
vn 0.1905 0.1050 -0.9761
vn 0.0738 0.1837 -0.9802
vn 0.7016 0.1611 -0.6941
vn 0.7557 0.1169 -0.6444
vn 0.9573 0.0366 0.2868
vn 0.9561 0.1796 0.2313
vn 0.7554 -0.1284 0.6426
vn -0.2741 -0.6998 0.6596
vn 0.0500 0.9396 -0.3387
vn 0.9563 -0.1788 0.2313
vn 0.7556 0.1185 -0.6442
vn 0.0737 0.1876 -0.9795
vn -0.6433 0.1866 -0.7425
vn -0.9899 0.1184 -0.0774
vn -0.6245 -0.1809 0.7598
vn -0.6522 0.4442 0.6143
vn -0.3077 0.0663 0.9492
vn 0.8145 0.0655 0.5764
vn 0.7997 -0.1265 0.5869
vn -0.2892 -0.1279 0.9487
vn 0.3966 -0.9132 0.0932
vn 0.6477 0.4309 -0.6284
vn -0.2716 0.9617 -0.0375
vn 0.8073 -0.4131 -0.4214
vn 0.8387 -0.4827 -0.2521
vn -0.2312 0.9725 -0.0264
vn 0.7868 0.4962 -0.3671
vn 0.2889 -0.9572 0.0174
vn -0.7915 0.5367 0.2924
vn 0.1601 0.9629 -0.2173
vn -0.2080 -0.9542 0.2151
vn -0.8197 -0.4175 0.3922
vn -0.0763 0.0486 0.9959
vn -0.0773 0.2368 0.9685
vn -0.7604 0.0340 0.6485
vn -0.7474 0.1888 0.6369
vn -0.9968 0.0124 -0.0786
vn -0.9898 0.1187 -0.0790
vn -0.6520 -0.0016 -0.7582
vn -0.6471 0.0679 -0.7594
vn 0.2286 0.0276 -0.9731
vn 0.2287 0.4337 -0.8715
vn 0.6973 0.0095 -0.7167
vn -0.0954 -0.7624 -0.6401
vn 0.9846 0.0391 0.1704
vn 0.2177 -0.9121 -0.3475
vn 0.7744 0.0758 0.6282
vn 0.6733 0.5330 0.5124
vn 0.7951 -0.1896 0.5761
vn 0.7932 -0.4895 0.3622
vn -0.6000 0.7045 -0.3791
vn 0.2640 -0.3274 -0.9072
vn -0.6468 0.0738 -0.7590
vn -0.9895 0.1211 -0.0790
vn -0.7478 0.1865 0.6372
vn -0.0774 0.2314 0.9698
vn 0.5886 0.4002 -0.7024
vn 0.8551 0.4750 0.2077
vn 0.9804 -0.0496 0.1908
vn 0.6702 -0.1507 -0.7267
vn -0.0932 0.9556 0.2795
vn -0.3872 0.9211 -0.0416
vn 0.1516 0.8754 0.4589
vn 0.6732 -0.7146 0.1903
vn 0.3143 -0.9489 0.0298
vn 0.1081 0.8457 0.5226
vn -0.2957 0.9495 -0.1049
vn -0.0919 0.9676 0.2350
vn -0.4344 0.7528 -0.4946
vn 0.5118 -0.6814 0.5232
vn 0.1921 -0.9635 -0.1865
vn -0.0802 -0.7854 -0.6137
vn 0.7330 0.0587 0.6777
vn -0.0826 0.9702 0.2277
vn -0.0389 0.5956 -0.8024
vn 0.2121 0.3128 -0.9258
vn -0.6407 0.1560 -0.7518
vn -0.9944 0.0704 -0.0794
vn -0.7432 -0.0442 0.6676
vn -0.0898 -0.1328 0.9871
vn -0.0824 -0.1384 0.9870
vn -0.7547 -0.0437 0.6546
vn -0.9942 0.0725 -0.0793
vn -0.6402 0.1608 -0.7512
vn 0.2342 -0.0335 -0.9716
vn 0.0901 0.3407 0.9358
vn 0.2382 -0.6109 0.7550
vn 0.7046 -0.2961 0.6449
vn 0.9792 0.0731 0.1892
vn 0.6875 0.1953 -0.6994
vn 0.7025 -0.0351 -0.7108
vn 0.9728 -0.1628 0.1648
vn 0.1309 -0.2425 -0.9613
vn 0.2730 -0.9100 0.3119
vn -0.1127 0.9834 -0.1420
vn 0.2387 -0.7925 -0.5612
vn 0.0849 -0.8967 -0.4344
vn -0.0813 0.9685 -0.2352
vn 0.2554 -0.9125 0.3196
vn -0.0961 -0.3005 -0.9489
vn 0.3264 -0.6150 0.7178
vn 0.2597 0.3716 0.8913
vn -0.1580 0.6143 -0.7731
vn 0.0314 0.9509 0.3079
usemtl Material.008
s off
f 21//1 2//1 4//1 22//1
f 22//2 4//2 6//2 27//2
f 27//3 6//3 8//3 32//3
f 32//4 8//4 10//4 37//4
f 37//5 10//5 12//5 42//5
f 42//6 12//6 14//6 47//6
f 4//7 2//7 16//7 14//7 12//7 10//7 8//7 6//7
f 47//8 14//8 16//8 52//8
f 52//9 16//9 2//9 21//9
f 1//10 3//10 5//10 7//10 9//10 11//10 13//10 15//10
f 72//11 56//11 17//11 65//11
f 56//12 55//12 18//12 17//12
f 87//13 54//13 19//13 74//13
f 127//14 53//14 20//14 114//14
f 53//15 52//15 21//15 20//15
f 71//16 51//16 56//16 72//16
f 51//17 50//17 55//17 56//17
f 85//18 49//18 54//18 87//18
f 125//19 48//19 53//19 127//19
f 48//20 47//20 52//20 53//20
f 70//21 46//21 51//21 71//21
f 46//22 45//22 50//22 51//22
f 83//23 44//23 49//23 85//23
f 123//24 43//24 48//24 125//24
f 43//25 42//25 47//25 48//25
f 69//26 41//26 46//26 70//26
f 41//27 40//27 45//27 46//27
f 81//28 39//28 44//28 83//28
f 121//29 38//29 43//29 123//29
f 38//30 37//30 42//30 43//30
f 68//31 36//31 41//31 69//31
f 36//32 35//32 40//32 41//32
f 79//33 34//33 39//33 81//33
f 119//34 33//34 38//34 121//34
f 33//35 32//35 37//35 38//35
f 67//36 31//36 36//36 68//36
f 31//37 30//37 35//37 36//37
f 77//38 29//38 34//38 79//38
f 117//39 28//39 33//39 119//39
f 28//40 27//40 32//40 33//40
f 66//41 26//41 31//41 67//41
f 26//42 25//42 30//42 31//42
f 75//43 24//43 29//43 77//43
f 115//44 23//44 28//44 117//44
f 23//45 22//45 27//45 28//45
f 65//46 17//46 26//46 66//46
f 17//47 18//47 25//47 26//47
f 74//48 19//48 24//48 75//48
f 114//49 20//49 23//49 115//49
f 20//50 21//50 22//50 23//50
f 1//51 64//51 57//51 3//51
f 3//52 57//52 58//52 5//52
f 5//53 58//53 59//53 7//53
f 7//54 59//54 60//54 9//54
f 9//55 60//55 61//55 11//55
f 11//56 61//56 62//56 13//56
f 13//57 62//57 63//57 15//57
f 15//58 63//58 64//58 1//58
f 64//59 65//59 66//59 57//59
f 57//60 66//60 67//60 58//60
f 58//61 67//61 68//61 59//61
f 59//62 68//62 69//62 60//62
f 60//63 69//63 70//63 61//63
f 61//64 70//64 71//64 62//64
f 62//65 71//65 72//65 63//65
f 63//66 72//66 65//66 64//66
f 160//67 73//67 76//67 153//67
f 108//68 110//68 99//68 98//68
f 153//69 76//69 78//69 154//69
f 89//70 75//70 77//70 90//70
f 154//71 78//71 80//71 155//71
f 90//72 77//72 79//72 91//72
f 155//73 80//73 82//73 156//73
f 91//74 79//74 81//74 92//74
f 156//75 82//75 84//75 157//75
f 92//76 81//76 83//76 93//76
f 157//77 84//77 86//77 158//77
f 93//78 83//78 85//78 94//78
f 158//79 86//79 88//79 159//79
f 94//80 85//80 87//80 95//80
f 159//81 88//81 73//81 160//81
f 110//82 109//82 102//82 99//82
f 105//83 106//83 97//83 104//83
f 86//84 94//84 95//84 88//84
f 84//85 93//85 94//85 86//85
f 82//86 92//86 93//86 84//86
f 80//87 91//87 92//87 82//87
f 78//88 90//88 91//88 80//88
f 76//89 89//89 90//89 78//89
f 107//90 108//90 98//90 103//90
f 96//91 97//91 103//91 98//91
f 100//92 104//92 97//92 96//92
f 101//93 100//93 96//93 102//93
f 102//94 96//94 98//94 99//94
f 109//95 111//95 101//95 102//95
f 112//96 105//96 104//96 100//96
f 106//97 107//97 103//97 97//97
f 111//98 112//98 100//98 101//98
f 88//99 95//99 112//99 111//99
f 74//100 75//100 107//100 106//100
f 95//101 87//101 105//101 112//101
f 73//102 88//102 111//102 109//102
f 75//103 89//103 108//103 107//103
f 87//104 74//104 106//104 105//104
f 76//105 73//105 109//105 110//105
f 89//106 76//106 110//106 108//106
f 19//107 113//107 116//107 24//107
f 129//108 114//108 115//108 130//108
f 24//109 116//109 118//109 29//109
f 130//110 115//110 117//110 131//110
f 29//111 118//111 120//111 34//111
f 131//112 117//112 119//112 132//112
f 34//113 120//113 122//113 39//113
f 132//114 119//114 121//114 133//114
f 39//115 122//115 124//115 44//115
f 133//116 121//116 123//116 134//116
f 44//117 124//117 126//117 49//117
f 149//118 147//118 136//118 137//118
f 49//119 126//119 128//119 54//119
f 150//120 149//120 137//120 139//120
f 54//121 128//121 113//121 19//121
f 135//122 127//122 114//122 129//122
f 128//123 135//123 129//123 113//123
f 145//124 146//124 141//124 140//124
f 147//125 148//125 142//125 136//125
f 122//126 133//126 134//126 124//126
f 120//127 132//127 133//127 122//127
f 118//128 131//128 132//128 120//128
f 116//129 130//129 131//129 118//129
f 113//130 129//130 130//130 116//130
f 136//131 142//131 143//131 138//131
f 138//132 143//132 144//132 140//132
f 139//133 138//133 140//133 141//133
f 137//134 136//134 138//134 139//134
f 152//135 151//135 144//135 143//135
f 148//136 152//136 143//136 142//136
f 151//137 145//137 140//137 144//137
f 146//138 150//138 139//138 141//138
f 128//139 126//139 150//139 146//139
f 127//140 135//140 145//140 151//140
f 123//141 125//141 152//141 148//141
f 125//142 127//142 151//142 152//142
f 134//143 123//143 148//143 147//143
f 135//144 128//144 146//144 145//144
f 126//145 124//145 149//145 150//145
f 124//146 134//146 147//146 149//146
f 166//147 159//147 160//147 167//147
f 182//148 178//148 175//148 174//148
f 181//149 177//149 176//149 168//149
f 164//150 156//150 157//150 165//150
f 163//151 155//151 156//151 164//151
f 162//152 154//152 155//152 163//152
f 161//153 153//153 154//153 162//153
f 167//154 160//154 153//154 161//154
f 18//155 167//155 161//155 25//155
f 25//156 161//156 162//156 30//156
f 30//157 162//157 163//157 35//157
f 35//158 163//158 164//158 40//158
f 40//159 164//159 165//159 45//159
f 178//160 179//160 172//160 175//160
f 179//161 180//161 173//161 172//161
f 55//162 166//162 167//162 18//162
f 170//163 174//163 175//163 172//163
f 168//164 176//164 174//164 170//164
f 169//165 168//165 170//165 171//165
f 171//166 170//166 172//166 173//166
f 183//167 181//167 168//167 169//167
f 180//168 184//168 171//168 173//168
f 177//169 182//169 174//169 176//169
f 184//170 183//170 169//170 171//170
f 50//171 45//171 183//171 184//171
f 157//172 158//172 182//172 177//172
f 55//173 50//173 184//173 180//173
f 45//174 165//174 181//174 183//174
f 166//175 55//175 180//175 179//175
f 159//176 166//176 179//176 178//176
f 165//177 157//177 177//177 181//177
f 158//178 159//178 178//178 182//178
