# Blender v2.79 (sub 0) OBJ File: ''
# www.blender.org
mtllib Tree_7.mtl
o Cylinder_Cylinder.005
v 0.043765 -0.629505 0.299904
v -0.121434 -0.630883 0.266155
v -0.214345 -0.624485 0.125404
v -0.180541 -0.612856 -0.039998
v -0.039825 -0.603284 -0.133294
v 0.125375 -0.601636 -0.099733
v 0.218285 -0.608907 0.041159
v 0.184481 -0.620705 0.206749
v 0.022320 0.261908 0.083362
v -0.081979 0.261816 0.064840
v -0.140638 0.261884 -0.024603
v -0.119295 0.261915 -0.132611
v -0.030453 0.261665 -0.196063
v 0.073901 0.261419 -0.177477
v 0.132691 0.261570 -0.087268
v 0.111222 0.261877 0.020296
v -0.092977 -0.250128 0.197426
v -0.164190 -0.247022 0.088794
v -0.138277 -0.241960 -0.040180
v -0.030418 -0.238063 -0.114049
v 0.096272 -0.237247 -0.089123
v 0.167646 -0.239869 0.020470
v 0.141577 -0.244733 0.148781
v 0.033646 -0.249126 0.222157
v 0.027313 0.007117 0.150314
v -0.086835 0.006630 0.128985
v -0.151033 0.007372 0.030956
v -0.127674 0.008601 -0.086401
v -0.030441 0.009381 -0.154455
v 0.083767 0.009565 -0.132981
v 0.148109 0.009268 -0.034104
v 0.124611 0.008342 0.082690
v 0.020206 0.580174 0.052874
v -0.078189 0.579011 0.036156
v -0.133528 0.579459 -0.048574
v -0.113394 0.581118 -0.151710
v -0.029580 0.582924 -0.213105
v 0.092157 0.610340 -0.173133
v 0.138603 0.598467 -0.110018
v 0.119095 0.608581 -0.028591
vn 0.0228 -0.9976 -0.0648
vn 0.5590 0.2234 0.7985
vn 0.9755 0.1003 0.1958
vn 0.8363 -0.0636 -0.5446
vn 0.1778 -0.1623 -0.9706
vn -0.5719 -0.1312 -0.8098
vn -0.9809 -0.0027 -0.1946
vn -0.8264 0.1521 0.5422
vn -0.1746 0.2451 0.9536
vn -0.1944 0.1899 0.9624
vn -0.8216 0.1612 0.5468
vn -0.9752 0.1110 -0.1915
vn -0.5593 0.0607 -0.8268
vn 0.1959 0.0454 -0.9796
vn 0.8348 0.0833 -0.5442
vn 0.9682 0.1432 0.2053
vn 0.5400 0.1852 0.8210
vn -0.1830 0.2593 0.9483
vn -0.8235 0.1652 0.5427
vn -0.9806 0.0058 -0.1960
vn -0.5622 -0.1301 -0.8167
vn 0.1873 -0.1605 -0.9691
vn 0.8365 -0.0542 -0.5453
vn 0.9727 0.1186 0.1995
vn 0.5449 0.2423 0.8027
vn -0.1711 0.0918 0.9810
vn -0.8351 0.0597 0.5468
vn -0.9812 0.0070 -0.1927
vn -0.5853 -0.0395 -0.8099
vn 0.2535 -0.0256 -0.9670
vn 0.8221 -0.0442 -0.5676
vn 0.9773 0.0025 0.2118
vn 0.5989 0.0898 0.7958
vn -0.1010 0.9944 0.0298
usemtl Material.006
s off
f 1//1 2//1 3//1 4//1 5//1 6//1 7//1 8//1
f 32//2 16//2 9//2 25//2
f 31//3 15//3 16//3 32//3
f 30//4 14//4 15//4 31//4
f 29//5 13//5 14//5 30//5
f 28//6 12//6 13//6 29//6
f 27//7 11//7 12//7 28//7
f 26//8 10//8 11//8 27//8
f 25//9 9//9 10//9 26//9
f 1//10 24//10 17//10 2//10
f 2//11 17//11 18//11 3//11
f 3//12 18//12 19//12 4//12
f 4//13 19//13 20//13 5//13
f 5//14 20//14 21//14 6//14
f 6//15 21//15 22//15 7//15
f 7//16 22//16 23//16 8//16
f 8//17 23//17 24//17 1//17
f 24//18 25//18 26//18 17//18
f 17//19 26//19 27//19 18//19
f 18//20 27//20 28//20 19//20
f 19//21 28//21 29//21 20//21
f 20//22 29//22 30//22 21//22
f 21//23 30//23 31//23 22//23
f 22//24 31//24 32//24 23//24
f 23//25 32//25 25//25 24//25
f 9//26 33//26 34//26 10//26
f 10//27 34//27 35//27 11//27
f 11//28 35//28 36//28 12//28
f 12//29 36//29 37//29 13//29
f 13//30 37//30 38//30 14//30
f 14//31 38//31 39//31 15//31
f 15//32 39//32 40//32 16//32
f 16//33 40//33 33//33 9//33
usemtl Material.001
f 33//34 40//34 39//34 38//34 37//34 36//34 35//34 34//34
