# Blender v2.79 (sub 0) OBJ File: ''
# www.blender.org
mtllib Tree_8.mtl
o Cylinder.003
v 0.043765 -0.514121 0.095398
v -0.121434 -0.515495 0.061674
v -0.214345 -0.508106 -0.078605
v -0.180541 -0.494255 -0.242805
v -0.039825 -0.484016 -0.335532
v 0.125375 -0.483461 -0.302371
v 0.218285 -0.491642 -0.162405
v 0.184481 -0.504827 0.002507
v 0.022320 0.212222 0.194279
v -0.081979 0.212212 0.175948
v -0.140638 0.212264 0.086585
v -0.119295 0.212253 -0.021493
v -0.030453 0.212056 -0.085146
v 0.073901 0.212904 -0.069959
v 0.132691 0.211483 0.021437
v 0.111222 0.213626 0.127155
v -0.092977 -0.149424 0.112124
v -0.164190 -0.143556 0.011017
v -0.138277 -0.136394 -0.111619
v -0.030418 -0.134205 -0.187263
v 0.096272 -0.133225 -0.165268
v 0.167646 -0.136100 -0.058824
v 0.141577 -0.141579 0.066614
v 0.033646 -0.149271 0.136003
v 0.027313 0.046190 0.191549
v -0.086835 0.046091 0.170837
v -0.151033 0.047484 0.074899
v -0.127674 0.049395 -0.040027
v -0.030441 0.049097 -0.109888
v 0.083767 0.051111 -0.092783
v 0.148109 0.047952 0.005195
v 0.124611 0.051511 0.123183
v 0.020206 0.374255 0.183334
v -0.078189 0.373697 0.166616
v -0.133528 0.373912 0.081887
v -0.113394 0.374709 -0.021250
v -0.029580 0.375576 -0.082645
v 0.092157 0.388739 -0.042673
v 0.138603 0.383038 0.020443
v 0.119095 0.387895 0.101869
vn 0.0221 -0.9970 -0.0740
vn 0.5879 0.0164 0.8088
vn 0.9780 0.0744 0.1947
vn 0.8327 0.1294 -0.5383
vn 0.1427 0.1477 -0.9787
vn -0.5784 0.1220 -0.8066
vn -0.9779 0.0741 -0.1954
vn -0.8334 0.0104 0.5526
vn -0.1759 -0.0233 0.9841
vn -0.1917 -0.1166 0.9745
vn -0.8273 -0.0186 0.5615
vn -0.9654 0.1809 -0.1877
vn -0.5384 0.3432 -0.7696
vn 0.1701 0.3761 -0.9108
vn 0.8066 0.2704 -0.5256
vn 0.9753 0.0788 0.2062
vn 0.5486 -0.0797 0.8323
vn -0.1747 -0.2763 0.9451
vn -0.8188 -0.1360 0.5577
vn -0.9716 0.1319 -0.1965
vn -0.5490 0.3263 -0.7695
vn 0.1438 0.3777 -0.9147
vn 0.8068 0.2657 -0.5278
vn 0.9794 0.0310 0.1997
vn 0.5548 -0.1998 0.8077
vn -0.1702 0.0625 0.9834
vn -0.8354 0.0519 0.5471
vn -0.9806 0.0367 -0.1924
vn -0.5865 0.0190 -0.8097
vn 0.2322 0.0721 -0.9700
vn 0.8261 -0.0148 -0.5633
vn 0.9764 -0.0226 0.2146
vn 0.6151 0.0740 0.7849
vn -0.0487 0.9987 0.0144
usemtl Material.011
s off
f 1//1 2//1 3//1 4//1 5//1 6//1 7//1 8//1
f 32//2 16//2 9//2 25//2
f 31//3 15//3 16//3 32//3
f 30//4 14//4 15//4 31//4
f 29//5 13//5 14//5 30//5
f 28//6 12//6 13//6 29//6
f 27//7 11//7 12//7 28//7
f 26//8 10//8 11//8 27//8
f 25//9 9//9 10//9 26//9
f 1//10 24//10 17//10 2//10
f 2//11 17//11 18//11 3//11
f 3//12 18//12 19//12 4//12
f 4//13 19//13 20//13 5//13
f 5//14 20//14 21//14 6//14
f 6//15 21//15 22//15 7//15
f 7//16 22//16 23//16 8//16
f 8//17 23//17 24//17 1//17
f 24//18 25//18 26//18 17//18
f 17//19 26//19 27//19 18//19
f 18//20 27//20 28//20 19//20
f 19//21 28//21 29//21 20//21
f 20//22 29//22 30//22 21//22
f 21//23 30//23 31//23 22//23
f 22//24 31//24 32//24 23//24
f 23//25 32//25 25//25 24//25
f 9//26 33//26 34//26 10//26
f 10//27 34//27 35//27 11//27
f 11//28 35//28 36//28 12//28
f 12//29 36//29 37//29 13//29
f 13//30 37//30 38//30 14//30
f 14//31 38//31 39//31 15//31
f 15//32 39//32 40//32 16//32
f 16//33 40//33 33//33 9//33
usemtl Material.010
f 33//34 40//34 39//34 38//34 37//34 36//34 35//34 34//34
