# Blender v2.79 (sub 0) OBJ File: ''
# www.blender.org
mtllib Tree_2.mtl
o Cylinder.003_Cylinder.002
v 0.036277 2.724724 -0.069290
v 0.055022 2.720247 -0.061380
v 0.062786 2.732769 -0.042782
v 0.055022 2.710603 -0.024391
v 0.036277 2.727976 -0.016979
v 0.017533 2.723657 -0.024890
v 0.009769 2.728908 -0.043488
v 0.017533 2.711119 -0.061879
v 0.036277 0.231070 -0.339882
v 0.036277 0.977549 -0.201496
v 0.036277 1.866022 -0.079654
v 0.152870 2.032845 -0.057777
v 0.227218 1.197571 -0.112065
v 0.298041 0.386872 -0.250298
v 0.191026 1.865139 0.077576
v 0.288649 0.972699 0.060777
v 0.378004 0.233276 0.017252
v 0.152870 1.998830 0.177902
v 0.227218 1.209587 0.269912
v 0.298041 0.354431 0.270213
v 0.036277 1.867717 0.229348
v 0.036277 0.992362 0.305531
v 0.036277 0.206680 0.341952
v -0.080315 2.049995 0.167920
v -0.154663 1.188113 0.254743
v -0.225486 0.358639 0.248436
v -0.118471 1.867920 0.072027
v -0.216094 0.977094 0.045594
v -0.305449 0.204964 -0.016564
v -0.080315 2.031914 -0.060608
v -0.154663 1.212053 -0.118693
v -0.225486 0.351936 -0.276656
v 0.036277 1.873954 -0.132251
v 0.193276 2.031085 -0.093622
v 0.244864 1.840480 0.083514
v 0.193276 2.003026 0.221155
v 0.036277 1.836712 0.288093
v -0.120721 2.047275 0.210971
v -0.172309 1.839097 0.076611
v -0.120721 1.998406 -0.093220
v 0.036277 0.960944 -0.313234
v 0.314097 1.163800 -0.197937
v 0.402987 0.959530 0.068594
v 0.314097 1.174338 0.353107
v 0.036277 0.959600 0.416614
v -0.241542 1.177586 0.336188
v -0.330432 0.970622 0.043916
v -0.241542 1.185733 -0.211361
v 0.036277 0.247931 -0.479595
v 0.410678 0.410006 -0.354365
v 0.525164 0.242214 0.027981
v 0.410678 0.362455 0.386762
v 0.036277 0.200649 0.489873
v -0.338123 0.358685 0.355554
v -0.452609 0.198715 -0.020018
v -0.338123 0.360361 -0.392099
v 0.036277 2.612133 -0.072258
v 0.055645 2.607508 -0.064085
v 0.063668 2.620446 -0.044868
v 0.055645 2.597543 -0.025865
v 0.036277 2.615494 -0.018208
v 0.016910 2.611031 -0.026381
v 0.008887 2.616457 -0.045598
v 0.016910 2.598076 -0.064601
v 0.036277 0.035552 -0.351849
v 0.036277 0.806856 -0.208861
v 0.036277 1.724875 -0.082967
v 0.156748 1.897246 -0.060362
v 0.233568 1.034194 -0.116455
v 0.306746 0.196536 -0.259285
v 0.196172 1.723962 0.079492
v 0.297042 0.801844 0.062135
v 0.389368 0.037831 0.017162
v 0.156748 1.862100 0.183155
v 0.233568 1.046610 0.278225
v 0.306746 0.163015 0.278535
v 0.036277 1.726627 0.236312
v 0.036277 0.822162 0.315028
v 0.036277 0.010351 0.352660
v -0.084193 1.914966 0.172841
v -0.161013 1.024422 0.262551
v -0.234191 0.167364 0.256034
v -0.123617 1.726836 0.073758
v -0.224487 0.806386 0.046447
v -0.316813 0.008578 -0.017779
v -0.084193 1.896284 -0.063287
v -0.161013 1.049159 -0.123304
v -0.234191 0.160438 -0.286520
v 0.036277 1.733071 -0.137313
v 0.198497 1.895427 -0.097399
v 0.251800 1.698483 0.085627
v 0.198497 1.866436 0.227846
v 0.036277 1.694590 0.297010
v -0.125942 1.912155 0.217324
v -0.179245 1.697054 0.078495
v -0.125942 1.861661 -0.096984
v 0.036277 0.789699 -0.324315
v 0.323336 0.999300 -0.205183
v 0.415182 0.788237 0.070211
v 0.323336 1.010189 0.364186
v 0.036277 0.788309 0.429805
v -0.250781 1.013545 0.346704
v -0.342627 0.799698 0.044713
v -0.250781 1.021963 -0.219054
v 0.036278 0.052973 -0.496208
v 0.423129 0.220439 -0.366813
v 0.541422 0.047066 0.028248
v 0.423129 0.171307 0.398961
v 0.036277 0.004120 0.505501
v -0.350574 0.167411 0.366714
v -0.468867 0.002121 -0.021347
v -0.350574 0.169143 -0.405802
v 0.036277 -2.879094 -0.176380
v 0.036277 1.975080 -0.028809
v 0.175108 -2.879094 -0.118875
v 0.046880 1.975080 -0.024417
v 0.232614 -2.879094 0.019956
v 0.051271 1.975080 -0.013815
v 0.175108 -2.879094 0.158787
v 0.046880 1.975080 -0.003213
v 0.036277 -2.879094 0.216292
v 0.036277 1.975080 0.001179
v -0.102553 -2.879094 0.158787
v 0.025675 1.975080 -0.003213
v -0.160059 -2.879094 0.019956
v 0.021284 1.975080 -0.013815
v -0.102553 -2.879094 -0.118875
v 0.025675 1.975080 -0.024417
v 0.036277 -2.106941 -0.075640
v 0.036277 -1.518785 -0.055783
v 0.036277 -0.475786 -0.131924
v 0.036277 0.652157 -0.062763
v 0.036277 1.527777 -0.052318
v 0.060397 1.527777 -0.042327
v 0.079676 0.652157 -0.044787
v 0.099428 -0.475786 -0.106210
v 0.114006 -1.518785 -0.023587
v 0.123929 -2.106942 -0.039335
v 0.070387 1.527777 -0.018208
v 0.097653 0.652157 -0.001388
v 0.125586 -0.475786 -0.043189
v 0.146203 -1.518785 0.054142
v 0.160236 -2.106942 0.048313
v 0.060397 1.527777 0.005911
v 0.079676 0.652157 0.042011
v 0.099428 -0.475786 0.020269
v 0.114006 -1.518785 0.131871
v 0.123929 -2.106942 0.135961
v 0.036277 1.527777 0.015902
v 0.036277 0.652157 0.059988
v 0.036277 -0.475786 0.047062
v 0.036277 -1.518785 0.164067
v 0.036277 -2.106942 0.172265
v 0.012158 1.527777 0.005911
v -0.007121 0.652157 0.042011
v -0.026873 -0.475786 0.021211
v -0.074684 -1.471981 0.084834
v -0.051374 -2.106942 0.135705
v 0.002168 1.527777 -0.018208
v -0.025098 0.652157 -0.001388
v -0.053031 -0.475786 -0.041856
v -0.098583 -1.492293 0.048326
v -0.087681 -2.106942 0.047439
v 0.012158 1.527777 -0.042327
v -0.007121 0.652157 -0.044787
v -0.026873 -0.475786 -0.105267
v -0.074684 -1.471981 0.007058
v -0.051374 -2.106942 -0.039616
v 0.142690 -2.585523 -0.084774
v 0.186768 -2.585523 0.021628
v 0.142690 -2.585523 0.128029
v 0.036277 -2.585523 0.172102
v -0.070135 -2.585523 0.127716
v -0.114213 -2.585523 0.020558
v -0.070135 -2.585523 -0.085112
v 0.036277 -2.585523 -0.128847
v 0.036277 -2.352454 -0.099097
v 0.132206 -2.352454 -0.059365
v 0.171942 -2.352454 0.036557
v 0.132206 -2.352454 0.132479
v 0.036277 -2.352454 0.172211
v -0.059651 -2.352454 0.132198
v -0.099387 -2.352454 0.035597
v -0.059651 -2.352454 -0.059671
v 0.035398 -1.049601 -0.104564
v 0.035374 -0.941401 -0.108819
v 0.076483 -0.954817 -0.084433
v 0.079419 -1.033641 -0.081253
v 0.132458 -0.932046 -0.007727
v 0.139330 -1.062525 0.004294
v 0.104287 -0.932046 0.060643
v 0.109147 -1.062525 0.077452
v 0.036277 -0.932046 0.089476
v 0.036277 -1.062525 0.108328
v -0.031732 -0.932046 0.061659
v -0.036592 -1.062525 0.078539
v -0.059903 -0.932046 -0.006291
v -0.066775 -1.062525 0.005716
v -0.005688 -0.954817 -0.083829
v -0.008623 -1.033641 -0.080605
v 0.093804 -0.995506 -0.082960
v 0.135894 -0.997285 -0.001876
v 0.106717 -0.997285 0.068947
v 0.036277 -0.997285 0.098802
v -0.034162 -0.997285 0.069998
v -0.063339 -0.997285 -0.000389
v -0.023008 -0.995506 -0.082096
v -0.049400 -0.905461 -0.351559
v -0.049400 -0.868780 -0.352858
v -0.022554 -0.905461 -0.335555
v -0.029166 -0.933052 -0.334379
v -0.076245 -0.905461 -0.334923
v -0.069633 -0.933052 -0.333902
v -0.049400 -0.942143 -0.350191
v -0.030515 -0.879602 -0.336387
v -0.068284 -0.879602 -0.335942
v -0.012656 -0.940711 -0.178675
v 0.016247 -0.918884 -0.208914
v 0.065166 -0.940711 -0.179295
v 0.084155 -0.980195 -0.176826
v 0.027407 -1.029711 -0.197866
v 0.073472 -1.020287 -0.173947
v -0.011412 -1.020287 -0.173292
v -0.027477 -0.980195 -0.175949
v 0.036277 0.049226 -0.112592
v 0.036277 0.127145 -0.098211
v 0.086260 0.127145 -0.077507
v 0.092844 0.049225 -0.089161
v 0.106964 0.127145 -0.027524
v 0.116275 0.049225 -0.032595
v 0.086260 0.127145 0.022458
v 0.092844 0.049225 0.023972
v 0.036277 0.127145 0.043162
v 0.036277 0.049225 0.047403
v -0.023839 0.116692 -0.004852
v -0.029467 0.068948 -0.005128
v -0.041975 0.125481 -0.025770
v -0.049590 0.069605 -0.029663
v -0.023839 0.116692 -0.048239
v -0.029467 0.068948 -0.054229
v 0.036277 0.088185 -0.105490
v 0.089552 0.088185 -0.083423
v 0.111619 0.088185 -0.030148
v 0.089552 0.088185 0.023127
v 0.036277 0.088185 0.045194
v -0.026653 0.091568 0.017254
v -0.026653 0.091568 -0.073814
v -0.200033 0.168513 0.052443
v -0.201474 0.154285 0.040592
v -0.209689 0.168513 0.029130
v -0.211726 0.151466 0.027920
v -0.200033 0.168513 0.005543
v -0.201474 0.154285 0.015312
v -0.198593 0.178725 0.040876
v -0.207652 0.185559 0.030374
v -0.198593 0.178725 0.018538
v -0.129366 0.127451 -0.047646
v -0.131939 0.105515 -0.031744
v -0.132248 0.129219 0.030922
v -0.127911 0.146420 0.012603
v -0.131939 0.105572 0.010552
v -0.152841 0.112696 -0.003358
v -0.129603 0.146778 -0.022757
v -0.148384 0.160469 0.003447
v 0.109985 -1.351010 -0.042270
v 0.145081 -1.354151 0.035022
v 0.113213 -1.354151 0.111957
v 0.036277 -1.354151 0.143824
v -0.074097 -1.389587 0.075151
v -0.098662 -1.370444 0.034464
v -0.071706 -1.388015 -0.002011
v 0.036277 -1.354151 -0.073780
v 0.111996 -1.434898 -0.033094
v 0.145642 -1.436468 0.044423
v 0.113610 -1.436468 0.121755
v 0.036277 -1.436468 0.153787
v -0.074390 -1.431365 0.098719
v -0.073195 -1.430202 -0.015963
v 0.036277 -1.436468 -0.064941
v -0.389348 -1.365571 0.005260
v -0.389445 -1.379252 0.000758
v -0.397187 -1.365571 -0.013439
v -0.397324 -1.385715 -0.011218
v -0.388953 -1.365186 -0.032448
v -0.389445 -1.379252 -0.024821
v -0.397050 -1.345426 -0.015640
v -0.388461 -1.351504 -0.027753
v -0.389251 -1.352023 -0.002359
v -0.252350 -1.373858 0.046889
v -0.255836 -1.373079 -0.005155
v -0.253977 -1.402021 -0.011361
v -0.248945 -1.433567 0.005973
v -0.251322 -1.402721 0.062593
v -0.291153 -1.363083 0.006338
v -0.244712 -1.435077 0.061185
v -0.273961 -1.439551 0.027574
vn 0.1916 0.0777 -0.9784
vn 0.9741 0.1900 -0.1225
vn 0.9603 0.2292 0.1590
vn 0.1144 0.3323 0.9362
vn -0.0673 0.3307 0.9413
vn -0.9719 0.2186 0.0871
vn -0.0095 0.9987 -0.0506
vn -0.9686 0.1844 -0.1668
vn -0.2089 0.0773 -0.9749
vn -0.0764 0.3362 -0.9387
vn -0.0795 0.2207 -0.9721
vn 0.0367 -0.9989 -0.0302
vn -0.9561 0.2700 -0.1139
vn -0.9703 0.2184 -0.1043
vn -0.9589 0.2533 0.1278
vn -0.9714 0.2131 0.1044
vn -0.1952 0.1913 0.9619
vn -0.1393 0.2060 0.9686
vn 0.1108 0.1916 0.9752
vn 0.0971 0.2125 0.9723
vn 0.9562 0.2616 0.1317
vn 0.9680 0.2203 0.1200
vn 0.9538 0.2824 -0.1025
vn 0.9708 0.2133 -0.1094
vn 0.1276 0.3356 -0.9333
vn 0.1340 0.2159 -0.9672
vn -0.5907 -0.6518 0.4757
vn 0.5746 -0.6385 -0.5120
vn 0.5175 -0.5200 0.6796
vn -0.6452 -0.6111 -0.4586
vn 0.5816 -0.7000 -0.4144
vn -0.4610 -0.6364 0.6184
vn -0.3890 -0.6589 -0.6438
vn 0.7077 -0.6496 0.2780
vn 0.5031 -0.7583 0.4145
vn -0.3901 -0.7219 -0.5716
vn -0.4197 -0.7297 0.5398
vn 0.5363 -0.6927 -0.4823
vn -0.5371 -0.7381 -0.4083
vn 0.2879 -0.7763 0.5608
vn 0.3954 -0.6935 -0.6023
vn -0.5607 -0.7296 0.3915
vn 0.4323 -0.9002 0.0520
vn -0.0441 -0.9007 -0.4322
vn -0.1037 -0.9360 0.3364
vn 0.3955 -0.9041 -0.1616
vn -0.3754 -0.9078 -0.1871
vn 0.1768 -0.9041 0.3890
vn 0.1706 -0.9051 -0.3894
vn -0.3326 -0.9415 0.0535
vn 0.3822 0.0485 -0.9228
vn 0.9230 0.0432 -0.3823
vn 0.9233 0.0357 0.3824
vn 0.3825 0.0304 0.9235
vn -0.3825 0.0304 0.9235
vn -0.9233 0.0357 0.3824
vn 0.0000 1.0000 0.0000
vn -0.9230 0.0432 -0.3823
vn -0.3822 0.0485 -0.9228
vn 0.0000 -1.0000 0.0000
vn -0.3787 0.0880 -0.9213
vn -0.4376 0.0405 -0.8983
vn -0.4381 -0.0517 -0.8974
vn -0.5511 0.0393 -0.8335
vn -0.3827 0.0110 -0.9238
vn -0.9211 0.0624 -0.3842
vn -0.9048 -0.0086 -0.4258
vn -0.8709 -0.0432 -0.4896
vn -0.8739 0.0403 -0.4845
vn -0.9237 0.0214 -0.3826
vn -0.9245 0.0257 0.3803
vn -0.9002 -0.0072 0.4355
vn -0.9228 0.0437 0.3827
vn -0.8722 -0.0052 0.4890
vn -0.9233 0.0361 0.3824
vn -0.3850 -0.0002 0.9229
vn -0.4977 0.0324 0.8667
vn -0.3773 0.0857 0.9221
vn -0.5340 -0.0423 0.8444
vn -0.3823 0.0465 0.9229
vn 0.3827 -0.0002 0.9239
vn 0.3826 0.0129 0.9238
vn 0.3890 0.0853 0.9173
vn 0.3825 -0.0296 0.9235
vn 0.3823 0.0465 0.9229
vn 0.9236 0.0257 0.3826
vn 0.9237 0.0182 0.3826
vn 0.9237 0.0435 0.3807
vn 0.9239 -0.0027 0.3827
vn 0.9233 0.0361 0.3824
vn 0.9221 0.0623 -0.3820
vn 0.9236 0.0258 -0.3826
vn 0.8644 -0.0455 -0.5007
vn 0.9233 0.0354 -0.3824
vn 0.9237 0.0214 -0.3826
vn 0.3812 0.0879 -0.9203
vn 0.3825 0.0312 -0.9234
vn 0.4269 -0.0537 -0.9027
vn 0.3819 0.0623 -0.9221
vn 0.3827 0.0110 -0.9238
vn 0.3785 0.1479 -0.9137
vn 0.9141 0.1449 -0.3787
vn 0.9147 0.1407 0.3789
vn 0.3790 0.1377 0.9151
vn -0.3800 0.1382 0.9146
vn -0.9150 0.1416 0.3778
vn -0.9138 0.1440 -0.3797
vn -0.3774 0.1474 -0.9142
vn 0.3800 0.1171 -0.9175
vn 0.9207 0.0830 -0.3814
vn 0.9233 0.0342 0.3825
vn 0.3827 -0.0004 0.9239
vn -0.3850 -0.0004 0.9229
vn -0.9243 0.0343 0.3802
vn -0.9197 0.0833 -0.3836
vn -0.3775 0.1172 -0.9186
vn 0.4313 -0.0790 -0.8987
vn 0.7562 -0.2299 -0.6127
vn 0.8632 -0.0063 -0.5049
vn 0.8349 0.1266 -0.5357
vn 0.9226 0.0582 0.3814
vn 0.9214 0.0826 0.3796
vn 0.3839 0.1127 0.9165
vn 0.3869 0.1305 0.9128
vn -0.4832 0.0746 0.8724
vn -0.3753 0.1312 0.9176
vn -0.8870 0.1148 0.4472
vn -0.9206 0.0830 0.3816
vn -0.8227 0.0259 -0.5678
vn -0.8453 0.1282 -0.5187
vn -0.5229 -0.0913 -0.8475
vn 0.5336 -0.5700 -0.6248
vn -0.2029 0.8892 0.4100
vn -0.8453 -0.1276 -0.5188
vn -0.9205 0.0842 0.3815
vn -0.3750 0.1340 0.9173
vn 0.3867 0.1333 0.9125
vn 0.9212 0.0841 0.3798
vn 0.8350 -0.1292 -0.5349
vn 0.8527 0.3313 -0.4039
vn 0.5857 0.0470 -0.8091
vn -0.5980 0.0465 -0.8001
vn -0.5824 -0.0899 -0.8079
vn 0.5696 -0.0909 -0.8169
vn -0.4561 -0.8461 -0.2758
vn -0.8500 0.3203 0.4182
vn 0.3362 0.9277 0.1625
vn -0.9387 -0.3058 0.1592
vn -0.9314 -0.3636 -0.0196
vn 0.2914 0.9474 0.1325
vn -0.9199 0.3751 0.1142
vn -0.3657 -0.9197 -0.1432
vn 0.9110 0.4107 -0.0372
vn -0.2989 0.9298 0.2147
vn 0.3574 -0.9144 -0.1902
vn 0.9425 -0.3094 -0.1263
vn 0.3795 0.0344 -0.9245
vn 0.3771 0.1701 -0.9104
vn 0.9235 0.0241 -0.3829
vn 0.9154 0.1349 -0.3792
vn 0.9242 0.0088 0.3818
vn 0.9206 0.0843 0.3813
vn 0.3869 -0.0011 0.9221
vn 0.3822 0.0481 0.9228
vn -0.5173 0.0195 0.8556
vn -0.5105 0.3226 0.7970
vn -0.8841 0.0067 0.4672
vn -0.1261 -0.6406 0.7574
vn -0.8846 0.0277 -0.4656
vn -0.4106 -0.8442 0.3445
vn -0.5441 0.0538 -0.8373
vn -0.5211 0.4074 -0.7500
vn -0.5842 -0.1355 -0.8002
vn -0.6854 -0.3694 -0.6275
vn 0.5235 0.5751 0.6287
vn -0.5454 -0.2383 0.8036
vn 0.3822 0.0523 0.9226
vn 0.9205 0.0860 0.3813
vn 0.9156 0.1332 -0.3793
vn 0.3774 0.1661 -0.9110
vn -0.8093 0.2955 0.5076
vn -0.7957 0.3571 -0.4893
vn -0.8745 -0.0351 -0.4837
vn -0.8664 -0.1073 0.4877
vn 0.2368 0.9169 -0.3214
vn 0.4680 0.8586 0.2090
vn -0.0037 0.7887 -0.6148
vn -0.6739 -0.5861 -0.4498
vn -0.3904 -0.9051 -0.1685
vn 0.0724 0.7466 -0.6613
vn 0.3357 0.9062 0.2572
vn 0.2189 0.9384 -0.2674
vn 0.3081 0.6293 0.7134
vn -0.3716 -0.5505 -0.7476
vn -0.3278 -0.9309 0.1614
vn -0.1355 -0.6684 0.7313
vn -0.4891 0.0416 -0.8713
vn 0.2042 0.9431 -0.2624
vn -0.2316 0.4649 0.8546
vn -0.4993 0.2271 0.8362
vn 0.3803 0.1111 0.9182
vn 0.9227 0.0499 0.3822
vn 0.9131 -0.0313 -0.4064
vn 0.3911 -0.0945 -0.9155
vn 0.3841 -0.0985 -0.9180
vn 0.9201 -0.0309 -0.3905
vn 0.9227 0.0514 0.3822
vn 0.3802 0.1146 0.9178
vn -0.5222 -0.0237 0.8525
vn 0.2087 0.2486 -0.9459
vn 0.0066 -0.4795 -0.8775
vn -0.4824 -0.2144 -0.8493
vn -0.8745 0.0518 -0.4822
vn -0.8779 0.1396 0.4581
vn -0.8876 -0.0249 0.4600
vn -0.8806 -0.1161 -0.4594
vn -0.4269 -0.1743 0.8874
vn -0.2137 -0.8410 -0.4970
vn 0.0882 0.9678 0.2360
vn -0.4826 -0.6772 0.5555
vn -0.2772 -0.8204 0.5001
vn 0.0067 0.9400 0.3410
vn -0.1890 -0.8449 -0.5004
vn -0.2055 -0.2177 0.9541
vn -0.0993 -0.4834 -0.8697
vn 0.0284 0.2727 -0.9617
vn -0.0974 0.4828 0.8703
vn 0.0877 0.9086 -0.4083
usemtl Material.007
s off
f 33//1 1//1 2//1 34//1
f 34//2 2//2 3//2 35//2
f 35//3 3//3 4//3 36//3
f 36//4 4//4 5//4 37//4
f 37//5 5//5 6//5 38//5
f 38//6 6//6 7//6 39//6
f 2//7 1//7 8//7 7//7 6//7 5//7 4//7 3//7
f 39//8 7//8 8//8 40//8
f 40//9 8//9 1//9 33//9
f 56//10 31//10 10//10 49//10
f 48//11 30//11 11//11 41//11
f 32//12 9//12 14//12 17//12 20//12 23//12 26//12 29//12
f 55//13 28//13 31//13 56//13
f 47//14 27//14 30//14 48//14
f 54//15 25//15 28//15 55//15
f 46//16 24//16 27//16 47//16
f 53//17 22//17 25//17 54//17
f 45//18 21//18 24//18 46//18
f 52//19 19//19 22//19 53//19
f 44//20 18//20 21//20 45//20
f 51//21 16//21 19//21 52//21
f 43//22 15//22 18//22 44//22
f 50//23 13//23 16//23 51//23
f 42//24 12//24 15//24 43//24
f 49//25 10//25 13//25 50//25
f 41//26 11//26 12//26 42//26
f 30//27 40//27 33//27 11//27
f 27//28 39//28 40//28 30//28
f 24//29 38//29 39//29 27//29
f 21//30 37//30 38//30 24//30
f 18//31 36//31 37//31 21//31
f 15//32 35//32 36//32 18//32
f 12//33 34//33 35//33 15//33
f 11//34 33//34 34//34 12//34
f 10//35 41//35 42//35 13//35
f 13//36 42//36 43//36 16//36
f 16//37 43//37 44//37 19//37
f 19//38 44//38 45//38 22//38
f 22//39 45//39 46//39 25//39
f 25//40 46//40 47//40 28//40
f 28//41 47//41 48//41 31//41
f 31//42 48//42 41//42 10//42
f 9//43 49//43 50//43 14//43
f 14//44 50//44 51//44 17//44
f 17//45 51//45 52//45 20//45
f 20//46 52//46 53//46 23//46
f 23//47 53//47 54//47 26//47
f 26//48 54//48 55//48 29//48
f 29//49 55//49 56//49 32//49
f 32//50 56//50 49//50 9//50
usemtl Material.000
f 89//1 57//1 58//1 90//1
f 90//2 58//2 59//2 91//2
f 91//3 59//3 60//3 92//3
f 92//4 60//4 61//4 93//4
f 93//5 61//5 62//5 94//5
f 94//6 62//6 63//6 95//6
f 58//7 57//7 64//7 63//7 62//7 61//7 60//7 59//7
f 95//8 63//8 64//8 96//8
f 96//9 64//9 57//9 89//9
f 112//10 87//10 66//10 105//10
f 104//11 86//11 67//11 97//11
f 88//12 65//12 70//12 73//12 76//12 79//12 82//12 85//12
f 111//13 84//13 87//13 112//13
f 103//14 83//14 86//14 104//14
f 110//15 81//15 84//15 111//15
f 102//16 80//16 83//16 103//16
f 109//17 78//17 81//17 110//17
f 101//18 77//18 80//18 102//18
f 108//19 75//19 78//19 109//19
f 100//20 74//20 77//20 101//20
f 107//21 72//21 75//21 108//21
f 99//22 71//22 74//22 100//22
f 106//23 69//23 72//23 107//23
f 98//24 68//24 71//24 99//24
f 105//25 66//25 69//25 106//25
f 97//26 67//26 68//26 98//26
f 86//27 96//27 89//27 67//27
f 83//28 95//28 96//28 86//28
f 80//29 94//29 95//29 83//29
f 77//30 93//30 94//30 80//30
f 74//31 92//31 93//31 77//31
f 71//32 91//32 92//32 74//32
f 68//33 90//33 91//33 71//33
f 67//34 89//34 90//34 68//34
f 66//35 97//35 98//35 69//35
f 69//36 98//36 99//36 72//36
f 72//37 99//37 100//37 75//37
f 75//38 100//38 101//38 78//38
f 78//39 101//39 102//39 81//39
f 81//40 102//40 103//40 84//40
f 84//41 103//41 104//41 87//41
f 87//42 104//42 97//42 66//42
f 65//43 105//43 106//43 70//43
f 70//44 106//44 107//44 73//44
f 73//45 107//45 108//45 76//45
f 76//46 108//46 109//46 79//46
f 79//47 109//47 110//47 82//47
f 82//48 110//48 111//48 85//48
f 85//49 111//49 112//49 88//49
f 88//50 112//50 105//50 65//50
usemtl Material.008
f 133//51 114//51 116//51 134//51
f 134//52 116//52 118//52 139//52
f 139//53 118//53 120//53 144//53
f 144//54 120//54 122//54 149//54
f 149//55 122//55 124//55 154//55
f 154//56 124//56 126//56 159//56
f 116//57 114//57 128//57 126//57 124//57 122//57 120//57 118//57
f 159//58 126//58 128//58 164//58
f 164//59 128//59 114//59 133//59
f 113//60 115//60 117//60 119//60 121//60 123//60 125//60 127//60
f 184//61 168//61 129//61 177//61
f 168//62 167//62 130//62 129//62
f 199//63 166//63 131//63 186//63
f 239//64 165//64 132//64 226//64
f 165//65 164//65 133//65 132//65
f 183//66 163//66 168//66 184//66
f 163//67 162//67 167//67 168//67
f 197//68 161//68 166//68 199//68
f 237//69 160//69 165//69 239//69
f 160//70 159//70 164//70 165//70
f 182//71 158//71 163//71 183//71
f 158//72 157//72 162//72 163//72
f 195//73 156//73 161//73 197//73
f 235//74 155//74 160//74 237//74
f 155//75 154//75 159//75 160//75
f 181//76 153//76 158//76 182//76
f 153//77 152//77 157//77 158//77
f 193//78 151//78 156//78 195//78
f 233//79 150//79 155//79 235//79
f 150//80 149//80 154//80 155//80
f 180//81 148//81 153//81 181//81
f 148//82 147//82 152//82 153//82
f 191//83 146//83 151//83 193//83
f 231//84 145//84 150//84 233//84
f 145//85 144//85 149//85 150//85
f 179//86 143//86 148//86 180//86
f 143//87 142//87 147//87 148//87
f 189//88 141//88 146//88 191//88
f 229//89 140//89 145//89 231//89
f 140//90 139//90 144//90 145//90
f 178//91 138//91 143//91 179//91
f 138//92 137//92 142//92 143//92
f 187//93 136//93 141//93 189//93
f 227//94 135//94 140//94 229//94
f 135//95 134//95 139//95 140//95
f 177//96 129//96 138//96 178//96
f 129//97 130//97 137//97 138//97
f 186//98 131//98 136//98 187//98
f 226//99 132//99 135//99 227//99
f 132//100 133//100 134//100 135//100
f 113//101 176//101 169//101 115//101
f 115//102 169//102 170//102 117//102
f 117//103 170//103 171//103 119//103
f 119//104 171//104 172//104 121//104
f 121//105 172//105 173//105 123//105
f 123//106 173//106 174//106 125//106
f 125//107 174//107 175//107 127//107
f 127//108 175//108 176//108 113//108
f 176//109 177//109 178//109 169//109
f 169//110 178//110 179//110 170//110
f 170//111 179//111 180//111 171//111
f 171//112 180//112 181//112 172//112
f 172//113 181//113 182//113 173//113
f 173//114 182//114 183//114 174//114
f 174//115 183//115 184//115 175//115
f 175//116 184//116 177//116 176//116
f 272//117 185//117 188//117 265//117
f 220//118 222//118 211//118 210//118
f 265//119 188//119 190//119 266//119
f 201//120 187//120 189//120 202//120
f 266//121 190//121 192//121 267//121
f 202//122 189//122 191//122 203//122
f 267//123 192//123 194//123 268//123
f 203//124 191//124 193//124 204//124
f 268//125 194//125 196//125 269//125
f 204//126 193//126 195//126 205//126
f 269//127 196//127 198//127 270//127
f 205//128 195//128 197//128 206//128
f 270//129 198//129 200//129 271//129
f 206//130 197//130 199//130 207//130
f 271//131 200//131 185//131 272//131
f 222//132 221//132 214//132 211//132
f 217//133 218//133 209//133 216//133
f 198//134 206//134 207//134 200//134
f 196//135 205//135 206//135 198//135
f 194//136 204//136 205//136 196//136
f 192//137 203//137 204//137 194//137
f 190//138 202//138 203//138 192//138
f 188//139 201//139 202//139 190//139
f 219//140 220//140 210//140 215//140
f 208//141 209//141 215//141 210//141
f 212//142 216//142 209//142 208//142
f 213//143 212//143 208//143 214//143
f 214//144 208//144 210//144 211//144
f 221//145 223//145 213//145 214//145
f 224//146 217//146 216//146 212//146
f 218//147 219//147 215//147 209//147
f 223//148 224//148 212//148 213//148
f 200//149 207//149 224//149 223//149
f 186//150 187//150 219//150 218//150
f 207//151 199//151 217//151 224//151
f 185//152 200//152 223//152 221//152
f 187//153 201//153 220//153 219//153
f 199//154 186//154 218//154 217//154
f 188//155 185//155 221//155 222//155
f 201//156 188//156 222//156 220//156
f 131//157 225//157 228//157 136//157
f 241//158 226//158 227//158 242//158
f 136//159 228//159 230//159 141//159
f 242//160 227//160 229//160 243//160
f 141//161 230//161 232//161 146//161
f 243//162 229//162 231//162 244//162
f 146//163 232//163 234//163 151//163
f 244//164 231//164 233//164 245//164
f 151//165 234//165 236//165 156//165
f 245//166 233//166 235//166 246//166
f 156//167 236//167 238//167 161//167
f 261//168 259//168 248//168 249//168
f 161//169 238//169 240//169 166//169
f 262//170 261//170 249//170 251//170
f 166//171 240//171 225//171 131//171
f 247//172 239//172 226//172 241//172
f 240//173 247//173 241//173 225//173
f 257//174 258//174 253//174 252//174
f 259//175 260//175 254//175 248//175
f 234//176 245//176 246//176 236//176
f 232//177 244//177 245//177 234//177
f 230//178 243//178 244//178 232//178
f 228//179 242//179 243//179 230//179
f 225//180 241//180 242//180 228//180
f 248//181 254//181 255//181 250//181
f 250//182 255//182 256//182 252//182
f 251//183 250//183 252//183 253//183
f 249//184 248//184 250//184 251//184
f 264//185 263//185 256//185 255//185
f 260//186 264//186 255//186 254//186
f 263//187 257//187 252//187 256//187
f 258//188 262//188 251//188 253//188
f 240//189 238//189 262//189 258//189
f 239//190 247//190 257//190 263//190
f 235//191 237//191 264//191 260//191
f 237//192 239//192 263//192 264//192
f 246//193 235//193 260//193 259//193
f 247//194 240//194 258//194 257//194
f 238//195 236//195 261//195 262//195
f 236//196 246//196 259//196 261//196
f 278//197 271//197 272//197 279//197
f 294//198 290//198 287//198 286//198
f 293//199 289//199 288//199 280//199
f 276//200 268//200 269//200 277//200
f 275//201 267//201 268//201 276//201
f 274//202 266//202 267//202 275//202
f 273//203 265//203 266//203 274//203
f 279//204 272//204 265//204 273//204
f 130//205 279//205 273//205 137//205
f 137//206 273//206 274//206 142//206
f 142//207 274//207 275//207 147//207
f 147//208 275//208 276//208 152//208
f 152//209 276//209 277//209 157//209
f 290//210 291//210 284//210 287//210
f 291//211 292//211 285//211 284//211
f 167//212 278//212 279//212 130//212
f 282//213 286//213 287//213 284//213
f 280//214 288//214 286//214 282//214
f 281//215 280//215 282//215 283//215
f 283//216 282//216 284//216 285//216
f 295//217 293//217 280//217 281//217
f 292//218 296//218 283//218 285//218
f 289//219 294//219 286//219 288//219
f 296//220 295//220 281//220 283//220
f 162//221 157//221 295//221 296//221
f 269//222 270//222 294//222 289//222
f 167//223 162//223 296//223 292//223
f 157//224 277//224 293//224 295//224
f 278//225 167//225 292//225 291//225
f 271//226 278//226 291//226 290//226
f 277//227 269//227 289//227 293//227
f 270//228 271//228 290//228 294//228
