# Blender v2.79 (sub 0) OBJ File: ''
# www.blender.org
mtllib Plank_2.mtl
o Cube_Cube.002
v -0.846041 -0.037915 -0.167591
v -0.845341 -0.034317 0.176877
v -0.845640 0.037247 0.177136
v -0.845865 0.035941 -0.167591
v 0.717785 -0.032939 0.160968
v 0.719273 -0.033356 -0.167591
v 0.717840 0.038342 -0.167591
v 0.717736 0.039932 0.163149
v -0.446854 0.032914 -0.169288
v -0.446854 0.027131 0.193496
v -0.446854 -0.036853 -0.176074
v -0.446854 -0.042891 0.185878
v -0.049220 0.030353 -0.147878
v 0.099086 0.032550 0.175671
v -0.049724 -0.028860 -0.146386
v 0.094858 -0.034640 0.140598
v 0.550111 0.035406 -0.160410
v 0.551114 0.037219 0.134435
v 0.551561 -0.031704 -0.159957
v 0.549883 -0.033564 0.122149
vn 0.0164 0.9998 0.0063
vn -0.0028 -1.0000 -0.0024
vn 0.9999 0.0102 0.0024
vn -1.0000 -0.0009 0.0013
vn -0.0441 -0.0042 -0.9990
vn -0.1960 -0.0967 0.9758
vn -0.0330 -0.0556 0.9979
vn -0.0126 0.0472 -0.9988
vn -0.0094 -0.9999 -0.0034
vn -0.0031 1.0000 0.0059
vn -0.0095 0.9999 -0.0042
vn 0.0590 -0.2982 0.9527
vn 0.0638 0.0407 -0.9971
vn 0.0169 -0.9996 -0.0220
vn -0.0165 0.9998 -0.0054
vn 0.0641 -0.3263 0.9431
vn -0.0217 -0.0156 -0.9996
vn -0.0021 -0.9999 -0.0129
usemtl Material.001
s off
f 9//1 4//1 3//1 10//1
f 19//2 6//2 5//2 20//2
f 6//3 7//3 8//3 5//3
f 2//4 3//4 4//4 1//4
f 17//5 7//5 6//5 19//5
f 18//6 20//6 5//6 8//6
f 3//7 2//7 12//7 10//7
f 4//8 9//8 11//8 1//8
f 1//9 11//9 12//9 2//9
f 13//10 9//10 10//10 14//10
f 17//11 13//11 14//11 18//11
f 10//12 12//12 16//12 14//12
f 9//13 13//13 15//13 11//13
f 11//14 15//14 16//14 12//14
f 7//15 17//15 18//15 8//15
f 14//16 16//16 20//16 18//16
f 13//17 17//17 19//17 15//17
f 15//18 19//18 20//18 16//18
