# Blender v2.79 (sub 0) OBJ File: ''
# www.blender.org
mtllib Rock_2.mtl
o Cube.007_Cube.008
v 0.357928 -0.732996 -0.381301
v 0.726744 -0.105699 -0.167344
v 0.224022 0.348172 -0.541989
v -0.008732 0.264505 -0.647046
v -0.366433 0.383820 -0.611077
v -0.384693 -0.522559 -0.613973
v 0.167422 -0.800299 -0.544285
v -0.023405 -0.527732 -0.657985
v -0.131379 -0.665093 -0.643810
v 0.047158 -0.888600 -0.557878
v 0.798154 -0.046002 0.124768
v 0.527039 0.248897 0.485808
v 0.547979 -0.414235 0.490425
v -0.653411 -0.713435 -0.348403
v -0.086590 -0.884286 -0.522052
v -0.234887 -0.734061 0.798943
v -1.135054 -0.596784 0.035228
v -0.536291 0.718213 -0.203450
v -0.808783 0.411891 0.160646
v -0.322810 0.479154 0.770716
v 0.368100 -0.734681 0.571866
v 0.385249 -0.850884 -0.208480
v 0.124781 -0.808772 0.696955
v 0.247375 -0.904090 -0.268227
v 0.199658 0.626747 0.588266
v -0.201308 0.464098 0.740828
v 0.018736 0.745504 0.455152
v 0.806027 0.014671 0.112759
v 0.734617 -0.045026 -0.179352
v 0.231894 0.408844 -0.553998
v -0.191035 0.971834 -0.013473
v -0.000860 0.325178 -0.659055
v -0.528418 0.778886 -0.215459
v -0.358561 0.444493 -0.623086
v 0.534911 0.309569 0.473799
v 0.207531 0.687420 0.576257
v -0.800911 0.472564 0.148637
v -0.314937 0.539827 0.758708
v -0.193436 0.524770 0.728819
v 0.026608 0.806176 0.443143
vn 0.3351 -0.9318 0.1397
vn 0.2165 -0.2214 -0.9508
vn -0.3694 -0.5132 -0.7747
vn -0.1097 0.0089 -0.9939
vn 0.5487 -0.0332 -0.8354
vn 0.8108 0.0297 0.5846
vn -0.7021 0.0442 0.7107
vn -0.7652 0.1543 -0.6251
vn -0.0316 0.7241 0.6890
vn -0.2031 -0.9763 0.0742
vn 0.4422 -0.8164 -0.3715
vn 0.3400 0.0411 0.9395
vn 0.8889 -0.4578 -0.0154
vn -0.1553 -0.1724 -0.9727
vn -0.4744 0.2298 0.8498
vn 0.8047 0.0131 0.5936
vn 0.0734 0.7341 -0.6751
vn -0.4613 0.8064 0.3700
vn 0.7028 0.6948 -0.1529
vn 0.2541 0.1559 0.9545
vn -0.7749 0.2180 0.5933
vn 0.9653 -0.1653 -0.2022
vn 0.4678 -0.2296 -0.8535
vn -0.7934 -0.0175 -0.6085
vn 0.7814 0.0220 0.6236
vn -0.9113 0.0371 -0.4101
vn 0.4403 -0.2290 -0.8682
vn 0.4228 0.1228 0.8979
usemtl Material.022
s off
f 22//1 21//1 23//1 24//1
f 8//2 7//2 10//2 9//2
f 15//3 14//3 6//3 9//3 10//3
f 6//4 5//4 4//4 8//4 9//4
f 4//5 3//5 2//5 1//5 7//5 8//5
f 12//6 13//6 11//6
f 20//7 19//7 17//7 16//7
f 19//8 18//8 5//8 6//8 14//8 17//8
f 27//9 26//9 25//9
f 17//10 14//10 15//10 24//10 23//10 16//10
f 7//11 1//11 22//11 24//11 15//11 10//11
f 26//12 20//12 16//12 23//12 21//12 13//12 12//12 25//12
f 11//13 13//13 21//13 22//13 1//13 2//13
usemtl Material.002
f 4//14 5//14 34//14 32//14
f 27//15 25//15 36//15 40//15
f 12//16 11//16 28//16 35//16
f 34//17 33//17 31//17 30//17 32//17
f 31//18 33//18 37//18 38//18 39//18 40//18
f 30//19 31//19 40//19 36//19 35//19 28//19 29//19
f 20//20 26//20 39//20 38//20
f 19//21 20//21 38//21 37//21
f 11//22 2//22 29//22 28//22
f 3//23 4//23 32//23 30//23
f 18//24 19//24 37//24 33//24
f 26//25 27//25 40//25 39//25
f 5//26 18//26 33//26 34//26
f 2//27 3//27 30//27 29//27
f 25//28 12//28 35//28 36//28
