# Blender v2.79 (sub 0) OBJ File: ''
# www.blender.org
mtllib Rock_1.mtl
o Cube.003
v -0.757966 -0.035583 0.244690
v -0.530930 -0.793645 -0.117470
v -0.067734 -0.379154 -0.830698
v -0.048678 -0.156459 -0.857206
v 0.059947 0.130273 -0.877662
v -0.326102 0.700963 -0.140039
v -0.685002 0.326534 0.135627
v -0.477654 0.331999 -0.185354
v -0.418600 0.617411 -0.035364
v -0.585811 0.504922 0.193629
v -0.344698 -0.982374 0.091294
v 0.266128 -1.168787 0.107779
v -0.167046 -0.863774 0.667850
v -0.084248 0.920850 0.206623
v -0.563446 0.515340 0.245278
v 0.462650 -0.267789 1.144923
v 0.417450 0.766775 0.412852
v 0.798328 -0.657462 -0.775289
v 0.683451 -0.148286 -0.833388
v 0.982343 0.065832 -0.294901
v 1.169248 -0.814796 0.146562
v -0.162606 -0.619169 0.995895
v -0.667664 -0.017403 0.481167
v 0.128774 -0.409864 1.144269
v -0.589288 0.258223 0.478393
v 0.762296 -1.160634 -0.092389
v 1.121912 -0.884142 0.083268
v 0.899955 -1.017473 -0.328723
v 0.658238 -0.102372 -0.855108
v 0.034735 0.176187 -0.899382
v -0.351315 0.746878 -0.161759
v -0.443813 0.663325 -0.057084
v -0.588658 0.561255 0.223558
v -0.611023 0.550836 0.171909
v -0.502866 0.377913 -0.207074
v -0.710214 0.372449 0.113907
v -0.109460 0.966765 0.184903
v 0.392237 0.812690 0.391132
v 0.957131 0.111746 -0.316621
vn -0.5693 0.1943 0.7988
vn -0.7175 0.3119 -0.6228
vn -0.8405 0.0070 -0.5418
vn -0.2873 -0.9169 0.2771
vn 0.8560 0.3415 0.3881
vn 0.0313 -0.1036 -0.9941
vn 0.6353 -0.7665 -0.0942
vn -0.2421 0.5491 0.7999
vn -0.8983 0.3051 0.3161
vn 0.2686 -0.7542 0.5992
vn -0.8383 -0.4222 0.3450
vn 0.9090 -0.0169 -0.4165
vn -0.2125 -0.7850 -0.5819
vn -0.3552 -0.5519 -0.7544
vn 0.7882 0.1505 -0.5967
vn -0.2016 0.3262 0.9236
vn -0.7772 0.4585 -0.4310
vn -0.6473 0.7614 -0.0350
vn 0.3510 0.7850 -0.5104
vn -0.2930 0.2726 0.9164
vn -0.8621 -0.5028 -0.0622
vn -0.6775 -0.5837 -0.4476
vn 0.8215 0.1981 -0.5347
vn -0.8622 -0.2710 0.4280
vn -0.5844 0.0619 0.8091
vn -0.1591 -0.4922 -0.8558
vn 0.8368 0.5280 0.1449
usemtl Material.017
s off
f 23//1 22//1 24//1 25//1
f 6//2 5//2 4//2 8//2 9//2
f 4//3 3//3 2//3 1//3 7//3 8//3
f 12//4 13//4 11//4
f 21//5 20//5 17//5 16//5
f 5//6 19//6 18//6 3//6 4//6
f 28//7 27//7 26//7
f 17//8 14//8 15//8 25//8 24//8 16//8
f 7//9 1//9 23//9 25//9 15//9 10//9
f 27//10 21//10 16//10 24//10 22//10 13//10 12//10 26//10
f 11//11 13//11 22//11 23//11 1//11 2//11
f 18//12 19//12 20//12 21//12 27//12 28//12
f 3//13 18//13 28//13 26//13 12//13 11//13 2//13
usemtl Material.003
f 6//14 9//14 32//14 31//14
f 9//15 8//15 35//15 32//15
f 15//16 14//16 37//16 33//16
f 35//17 36//17 34//17 32//17
f 33//18 37//18 31//18 32//18 34//18
f 39//19 29//19 30//19 31//19 37//19 38//19
f 14//20 17//20 38//20 37//20
f 5//21 6//21 31//21 30//21
f 8//22 7//22 36//22 35//22
f 20//23 19//23 29//23 39//23
f 10//24 15//24 33//24 34//24
f 7//25 10//25 34//25 36//25
f 19//26 5//26 30//26 29//26
f 17//27 20//27 39//27 38//27
