# Blender v2.79 (sub 0) OBJ File: ''
# www.blender.org
mtllib Rock_11.mtl
o Cube.007_Cube.008
v 0.318334 -1.079680 0.660086
v 0.300589 -0.306580 1.125278
v 1.147296 -0.002619 0.449037
v 1.368695 -0.135869 0.067999
v 1.327899 0.048333 -0.481472
v 0.878688 -0.927493 -0.527280
v 0.559321 -1.235101 0.339367
v 0.987556 -0.994127 0.028604
v 0.884608 -1.123119 -0.139948
v 0.537290 -1.327301 0.148075
v -0.059471 -0.068089 1.108301
v -0.439624 0.547948 0.741395
v -0.776225 -0.214158 0.757391
v 0.171682 -0.943539 -0.922107
v 0.505387 -1.287969 -0.054503
v -1.603335 -0.295127 -0.134969
v -0.637314 -0.535550 -1.657556
v 0.460529 1.016670 -0.120481
v 0.640243 0.678337 -0.698922
v -0.254302 0.599986 -1.109929
v -0.975082 1.138813 -0.252438
v -1.083224 -0.492870 0.658977
v -0.020002 -1.102251 0.720641
v -1.355713 -0.472465 0.373738
v 0.047121 -1.183570 0.504929
v -0.457530 1.181744 0.500761
v -0.885886 1.138573 -0.069194
v -0.256634 1.244200 0.242786
v -0.245020 0.670530 -1.130208
v -0.952928 1.183975 -0.291471
v 0.588014 0.747364 -0.739304
v 0.430249 1.078183 -0.171449
v -0.886297 1.174863 -0.118659
v -0.264913 1.277960 0.192526
vn -0.4690 -0.8330 0.2936
vn 0.6179 -0.7472 0.2447
vn 0.2770 -0.8643 -0.4198
vn 0.8933 -0.3965 -0.2116
vn 0.6745 -0.3729 0.6371
vn -0.4649 0.2233 0.8567
vn -0.6936 0.3758 -0.6146
vn 0.4914 0.0143 -0.8708
vn 0.7502 0.6578 0.0675
vn -0.2027 0.9761 0.0784
vn -0.4054 -0.9027 -0.1443
vn -0.0440 -0.9514 0.3047
vn -0.7224 0.3472 0.5980
vn -0.2157 -0.3334 0.9178
vn 0.3984 0.5743 0.7152
vn -0.3969 0.7345 0.5505
vn 0.1026 0.9058 -0.4110
vn 0.4262 -0.2471 -0.8703
vn -0.7467 0.5707 0.3418
vn 0.8585 0.5108 -0.0454
vn 0.4762 0.7236 0.4996
vn -0.7898 -0.0959 -0.6058
usemtl Material.022
s off
f 23//1 22//1 24//1 25//1
f 8//2 7//2 10//2 9//2
f 15//3 14//3 6//3 9//3 10//3
f 6//4 5//4 4//4 8//4 9//4
f 4//5 3//5 2//5 1//5 7//5 8//5
f 12//6 13//6 11//6
f 21//7 20//7 17//7 16//7
f 20//8 19//8 5//8 6//8 14//8 17//8
f 5//9 19//9 18//9 3//9 4//9
f 28//10 27//10 26//10
f 17//11 14//11 15//11 25//11 24//11 16//11
f 7//12 1//12 23//12 25//12 15//12 10//12
f 27//13 21//13 16//13 24//13 22//13 13//13 12//13 26//13
f 11//14 13//14 22//14 23//14 1//14 2//14
f 3//15 18//15 28//15 26//15 12//15 11//15 2//15
usemtl Material.028
f 27//16 28//16 34//16 33//16
f 32//17 31//17 29//17 30//17 33//17 34//17
f 19//18 20//18 29//18 31//18
f 21//19 27//19 33//19 30//19
f 18//20 19//20 31//20 32//20
f 28//21 18//21 32//21 34//21
f 20//22 21//22 30//22 29//22
