# Blender v2.79 (sub 0) OBJ File: ''
# www.blender.org
mtllib Rock_10.mtl
o Cube.008_Cube.009
v 0.552898 -0.336884 -0.290191
v 0.150327 -0.102096 -0.427714
v -0.001990 -0.162697 -0.411394
v -0.199699 -0.077396 -0.316021
v 0.664021 -0.242125 -0.159781
v 0.587808 -0.012230 0.062781
v -0.231224 -0.666973 0.061690
v -0.409381 -0.549224 0.377530
v -0.495217 0.272099 0.176249
v -0.071402 0.402456 0.368965
v 0.166021 0.456197 0.112337
v -0.010197 0.387427 0.323296
v 0.024105 0.508282 0.070288
v 0.651669 -0.309853 -0.008398
v 0.618822 -0.248299 0.120821
v 0.250830 -0.269086 0.512188
v -0.049818 -0.521399 0.478113
v 0.439358 -0.516645 -0.253518
v -0.178909 -0.364628 -0.245838
v 0.003890 -0.247773 -0.391556
v -0.229828 -0.665987 0.056994
v -0.227885 -0.668253 0.059129
v 0.108547 -0.718090 0.025213
v 0.413701 -0.601937 -0.156035
v -0.135253 0.250025 -0.360244
v -0.446874 0.230961 -0.269590
v -0.466477 0.355724 -0.036593
v 0.004908 0.510593 0.053697
v -0.501035 0.331438 0.179491
v -0.077220 0.461795 0.372207
v -0.472296 0.415063 -0.033351
v -0.016015 0.446765 0.326538
v -0.000910 0.569932 0.056939
v 0.018286 0.567621 0.073530
v 0.160203 0.515536 0.115579
v -0.452692 0.290300 -0.266348
v -0.141071 0.309364 -0.357002
vn -0.5452 -0.7730 -0.3243
vn -0.5059 -0.2368 -0.8294
vn -0.1708 -0.6806 -0.7124
vn -0.3259 0.1324 0.9361
vn 0.6109 0.4112 0.6766
vn 0.9723 0.1703 0.1604
vn 0.5416 -0.6910 0.4787
vn -0.0636 -0.9331 0.3538
vn 0.1156 -0.3052 -0.9453
vn 0.7970 -0.5573 -0.2328
vn -0.9056 -0.2605 -0.3348
vn -0.2912 -0.0194 -0.9565
vn 0.5316 0.5922 -0.6056
vn -0.2806 0.0249 -0.9595
vn 0.6003 0.0152 0.7996
vn 0.3107 0.0822 -0.9469
vn -0.1909 0.8586 -0.4758
vn 0.1898 0.8757 0.4440
vn -0.3145 0.9099 0.2705
vn 0.7606 0.0392 0.6481
vn 0.6575 0.1052 -0.7461
vn 0.9181 0.1108 -0.3806
vn -0.3897 -0.0883 0.9167
vn -0.9821 -0.0872 -0.1669
vn -0.9949 -0.0958 -0.0324
usemtl Material.023
s off
f 22//1 7//1 21//1
f 19//2 4//2 3//2 20//2
f 22//3 21//3 19//3 20//3 18//3 24//3 23//3
f 10//4 9//4 8//4 17//4 16//4
f 12//5 10//5 16//5 15//5 6//5 11//5
f 6//6 15//6 14//6 5//6
f 15//7 16//7 17//7 23//7 24//7 14//7
f 8//8 7//8 22//8 23//8 17//8
f 3//9 2//9 1//9 18//9 20//9
f 5//10 14//10 24//10 18//10 1//10
f 9//11 27//11 26//11 4//11 19//11 21//11 7//11 8//11
f 4//12 26//12 25//12 2//12 3//12
f 2//13 25//13 28//13 13//13 11//13 6//13 5//13 1//13
usemtl Material.004
f 25//14 26//14 36//14 37//14
f 10//15 12//15 32//15 30//15
f 11//16 13//16 34//16 35//16
f 33//17 37//17 36//17 31//17
f 34//18 32//18 35//18
f 33//19 31//19 29//19 30//19 32//19 34//19
f 12//20 11//20 35//20 32//20
f 13//21 28//21 33//21 34//21
f 28//22 25//22 37//22 33//22
f 9//23 10//23 30//23 29//23
f 27//24 9//24 29//24 31//24
f 26//25 27//25 31//25 36//25
