# Blender v2.79 (sub 0) OBJ File: ''
# www.blender.org
mtllib Rock_6.mtl
o Cube.002_Cube.011
v -0.010919 -0.699899 -0.100966
v -0.280594 -0.106100 0.637048
v 0.114396 -0.632951 -0.340424
v 0.481592 -0.309187 -0.256654
v -0.095373 0.188221 0.648888
v 0.625093 0.357472 -0.102717
v -0.097296 0.658427 0.450255
v 0.674278 -0.140653 -0.079138
v 0.711481 0.079428 -0.077193
v 0.090640 -0.594534 0.219564
v -0.238026 -0.370639 0.560220
v -0.232862 -0.164274 0.657156
v -0.067341 0.108488 0.660251
v 0.583328 -0.061019 0.105199
v 0.594123 -0.219928 0.057589
v -0.508803 0.482644 -0.198393
v -0.576343 -0.542935 -0.026132
v -0.479217 -0.130499 0.454219
v -0.531156 -0.392502 0.260013
v -0.614041 0.342543 -0.189620
v -0.673186 -0.251941 -0.446503
v 0.075715 -0.381652 -0.582052
v 0.170308 -0.318308 -0.555373
v 0.547011 0.353641 -0.161776
v -0.266759 0.424773 -0.411525
v -0.329388 -0.204734 -0.683543
v 0.520712 0.410391 -0.171393
v 0.593487 0.413961 -0.116349
v -0.079795 0.694457 0.399034
v -0.463329 0.530624 -0.205521
v -0.237738 0.476687 -0.404165
vn 0.8677 -0.1234 0.4814
vn -0.2118 0.1054 0.9716
vn 0.5874 -0.5251 -0.6158
vn 0.6498 0.0329 -0.7594
vn 0.6593 0.2903 0.6936
vn 0.5433 -0.3393 0.7680
vn -0.2409 -0.8875 0.3928
vn 0.6267 -0.7779 0.0465
vn 0.3028 0.3377 -0.8912
vn -0.7533 0.3974 0.5240
vn -0.6434 -0.3392 0.6863
vn -0.9789 0.0044 0.2045
vn -0.5606 0.3748 -0.7384
vn -0.2858 -0.7956 -0.5342
vn 0.6479 0.5010 0.5738
vn 0.1300 0.9502 -0.2831
vn -0.6844 0.6855 0.2484
vn -0.5461 0.4089 -0.7312
vn 0.5929 0.1404 -0.7930
vn 0.2911 -0.0271 -0.9563
usemtl Material.025
s off
f 15//1 8//1 9//1 14//1
f 13//2 5//2 2//2 12//2
f 23//3 4//3 3//3 22//3
f 23//4 24//4 6//4 9//4 8//4 4//4
f 7//5 5//5 13//5 14//5 9//5 6//5
f 13//6 12//6 11//6 10//6 15//6 14//6
f 19//7 17//7 1//7 10//7 11//7
f 3//8 4//8 8//8 15//8 10//8 1//8
f 22//9 26//9 25//9 24//9 23//9
f 16//10 20//10 18//10 2//10 5//10 7//10
f 2//11 18//11 19//11 11//11 12//11
f 17//12 19//12 18//12 20//12 21//12
f 20//13 16//13 25//13 26//13 21//13
f 17//14 21//14 26//14 22//14 3//14 1//14
usemtl Material.030
f 7//15 6//15 28//15 29//15
f 31//16 30//16 29//16 28//16 27//16
f 16//17 7//17 29//17 30//17
f 25//18 16//18 30//18 31//18
f 6//19 24//19 27//19 28//19
f 24//20 25//20 31//20 27//20
