# Blender v2.79 (sub 0) OBJ File: ''
# www.blender.org
mtllib Rock_8.mtl
o Cube.001
v -1.208444 -0.126275 -0.023368
v -0.476546 0.757154 -0.482333
v 0.302890 0.926405 -0.407328
v -1.281629 -0.744927 -0.026704
v -0.859344 -1.275425 -0.182583
v 0.484673 0.570997 0.868301
v 1.150995 -0.377320 0.950566
v 1.419767 -0.597344 -0.475384
v 0.814125 -1.509602 -0.496516
v 0.149743 -1.325941 -0.812150
v 0.650872 -1.474629 -0.515167
v 0.404931 -1.153431 -0.930348
v -1.151681 -0.941702 0.227891
v -0.951887 -1.202378 0.241525
v 0.094043 -1.530052 0.628036
v 0.549138 -0.929289 1.022113
v -1.026782 0.196393 0.319552
v 0.228489 1.018323 0.082565
v 0.478338 0.581827 0.861960
v 0.475439 0.575453 0.868410
v -0.222041 0.232801 0.918738
v -0.927628 0.060864 0.566517
v 0.248280 0.564323 -0.930913
v 0.922840 0.657460 -0.819999
v 1.206923 -0.090317 -0.797169
v 0.428306 -1.106251 -0.949088
v -1.049589 0.259782 0.314662
v -1.231251 -0.062885 -0.028258
v -0.499353 0.820544 -0.487224
v 0.225473 0.627712 -0.935803
v -0.212749 1.035897 -0.375552
v 0.900034 0.720850 -0.824889
v 0.280083 0.989795 -0.412218
v 0.205682 1.081712 0.077675
v -0.235020 1.064975 -0.231582
v -0.244848 0.296190 0.913848
v -0.950434 0.124253 0.561627
v 0.452632 0.638842 0.863520
v 0.455532 0.645216 0.857070
vn 0.3015 0.6069 0.7353
vn 0.1570 0.0282 -0.9872
vn 0.1803 -0.7234 -0.6665
vn 0.5108 -0.3475 -0.7863
vn 0.7058 -0.6319 0.3202
vn -0.1932 -0.9756 -0.1039
vn -0.7902 -0.6092 -0.0675
vn -0.4082 -0.2212 0.8857
vn 0.0227 0.1028 0.9944
vn -0.8986 0.0732 0.4325
vn 0.8116 0.5626 0.1573
vn -0.5038 -0.0248 -0.8635
vn -0.5573 -0.2613 -0.7881
vn -0.9272 -0.3183 0.1976
vn 0.1645 -0.0169 -0.9862
vn 0.7176 0.3064 0.6254
vn 0.0819 0.9812 -0.1748
vn -0.3901 0.7595 0.5205
vn -0.7441 0.6646 -0.0683
vn -0.0704 0.7891 -0.6102
vn 0.9362 0.3428 0.0779
vn -0.4284 -0.0847 0.8996
vn 0.9374 0.3283 -0.1167
vn -0.7573 -0.2252 0.6130
vn 0.0290 0.0872 0.9958
vn 0.6129 0.2776 0.7398
vn -0.3423 -0.1941 -0.9193
usemtl Material.006
s off
f 20//1 6//1 19//1
f 26//2 23//2 24//2 25//2
f 12//3 11//3 10//3
f 26//4 25//4 8//4 9//4 11//4 12//4
f 9//5 8//5 7//5 16//5 15//5
f 11//6 9//6 15//6 14//6 5//6 10//6
f 5//7 14//7 13//7 4//7
f 14//8 15//8 16//8 21//8 22//8 13//8
f 7//9 6//9 20//9 21//9 16//9
f 4//10 13//10 22//10 17//10 1//10
f 8//11 25//11 24//11 3//11 18//11 19//11 6//11 7//11
f 2//12 23//12 26//12 12//12 10//12 5//12 4//12 1//12
usemtl Material.005
f 23//13 2//13 29//13 30//13
f 17//14 22//14 37//14 27//14
f 24//15 23//15 30//15 32//15
f 20//16 19//16 39//16 38//16
f 34//17 33//17 31//17 35//17
f 38//18 39//18 34//18 35//18 27//18 37//18 36//18
f 31//19 29//19 28//19 27//19 35//19
f 33//20 32//20 30//20 29//20 31//20
f 18//21 3//21 33//21 34//21
f 22//22 21//22 36//22 37//22
f 19//23 18//23 34//23 39//23
f 1//24 17//24 27//24 28//24
f 21//25 20//25 38//25 36//25
f 3//26 24//26 32//26 33//26
f 2//27 1//27 28//27 29//27
