# Blender v2.79 (sub 0) OBJ File: ''
# www.blender.org
mtllib Rock_5.mtl
o Cube.007_Cube.008
v 0.480307 -0.915851 0.406033
v 0.965100 -0.224272 0.437111
v 0.494121 0.073497 -0.257453
v 0.225714 -0.042862 -0.380146
v -0.183979 0.116919 -0.467434
v -0.327489 -0.770105 -0.083246
v 0.272754 -1.047392 0.223899
v 0.103097 -0.822363 -0.052941
v -0.044522 -0.942173 -0.000998
v 0.121647 -1.131824 0.222860
v 1.011626 -0.028861 0.734153
v 0.676825 0.454678 0.931804
v 0.611076 -0.193464 1.227062
v -0.710283 -0.808521 0.223772
v -0.040468 -1.100630 0.231207
v -0.399846 -0.300471 1.528998
v -1.320018 -0.473385 0.478737
v -0.010710 0.917516 -0.017464
v -0.401730 0.654539 -0.216811
v -0.819887 0.551352 0.243142
v -0.334765 0.879241 0.957727
v 0.343776 -0.454576 1.414104
v 0.469589 -0.949093 0.644785
v 0.028455 -0.448861 1.527824
v 0.309716 -1.020378 0.576300
v 0.327355 0.897623 0.809359
v -0.189412 0.841296 0.957752
v 0.151564 0.961992 0.580439
v -0.842253 0.643409 0.238329
v -0.367446 0.964325 0.937718
v -0.432987 0.744402 -0.211843
v -0.050283 1.001786 -0.016736
v -0.225184 0.927188 0.937742
v 0.108541 1.045317 0.568453
vn 0.1653 -0.8204 0.5473
vn 0.3037 -0.6237 -0.7202
vn -0.3166 -0.7898 -0.5254
vn 0.0273 -0.3975 -0.9172
vn 0.6390 -0.4141 -0.6482
vn 0.7172 0.2273 0.6587
vn -0.7725 0.3834 0.5063
vn -0.6396 -0.0630 -0.7662
vn 0.2485 0.4199 -0.8729
vn -0.0222 0.9579 0.2864
vn -0.3130 -0.8507 0.4224
vn 0.3453 -0.9341 0.0906
vn 0.2092 0.4115 0.8871
vn 0.7936 -0.5082 0.3344
vn 0.7667 0.5620 -0.3105
vn 0.6070 0.4112 0.6801
vn -0.3644 0.9268 -0.0910
vn -0.7006 -0.2059 -0.6832
vn 0.0657 0.2523 0.9654
vn 0.3523 0.1734 -0.9197
vn 0.8714 0.4115 -0.2671
vn -0.7816 -0.1584 0.6033
usemtl Material.022
s off
f 23//1 22//1 24//1 25//1
f 8//2 7//2 10//2 9//2
f 15//3 14//3 6//3 9//3 10//3
f 6//4 5//4 4//4 8//4 9//4
f 4//5 3//5 2//5 1//5 7//5 8//5
f 12//6 13//6 11//6
f 21//7 20//7 17//7 16//7
f 20//8 19//8 5//8 6//8 14//8 17//8
f 5//9 19//9 18//9 3//9 4//9
f 28//10 27//10 26//10
f 17//11 14//11 15//11 25//11 24//11 16//11
f 7//12 1//12 23//12 25//12 15//12 10//12
f 27//13 21//13 16//13 24//13 22//13 13//13 12//13 26//13
f 11//14 13//14 22//14 23//14 1//14 2//14
f 3//15 18//15 28//15 26//15 12//15 11//15 2//15
usemtl Material.028
f 27//16 28//16 34//16 33//16
f 32//17 31//17 29//17 30//17 33//17 34//17
f 19//18 20//18 29//18 31//18
f 21//19 27//19 33//19 30//19
f 18//20 19//20 31//20 32//20
f 28//21 18//21 32//21 34//21
f 20//22 21//22 30//22 29//22
