# Blender v2.79 (sub 0) OBJ File: 'newtank uv final.blend'
# www.blender.org
mtllib Narushat-C_gun1.mtl
o Cylinder.002
v -0.012126 0.300799 0.343573
v -0.004559 0.282529 0.709956
v 0.012126 0.300799 0.343573
v 0.004559 0.282529 0.709956
v 0.029275 0.283650 0.343573
v 0.011006 0.276082 0.709956
v 0.029275 0.259397 0.343573
v 0.011006 0.266965 0.709956
v 0.012126 0.242248 0.343573
v 0.004559 0.260518 0.709956
v -0.012126 0.242248 0.343573
v -0.004559 0.260518 0.709956
v -0.029275 0.259397 0.343573
v -0.011006 0.266965 0.709956
v -0.029275 0.283650 0.343573
v -0.011006 0.276082 0.709956
v -0.009512 0.294487 0.615741
v 0.009512 0.294487 0.615741
v 0.022964 0.281035 0.615741
v 0.022964 0.262011 0.615741
v 0.009512 0.248560 0.615741
v -0.009512 0.248560 0.615741
v -0.022964 0.262011 0.615741
v -0.022964 0.281035 0.615741
v -0.006643 0.287560 0.615740
v 0.006642 0.287560 0.615740
v 0.016036 0.278166 0.615740
v 0.016036 0.264881 0.615740
v 0.006642 0.255487 0.615740
v -0.006643 0.255487 0.615740
v -0.016036 0.264881 0.615740
v -0.016036 0.278166 0.615740
v 0.012126 0.300799 0.500755
v 0.029275 0.283650 0.500755
v 0.029275 0.259397 0.500755
v 0.012126 0.242248 0.500755
v -0.012126 0.242248 0.500755
v -0.029275 0.259397 0.500755
v -0.029275 0.283650 0.500755
v -0.012126 0.300799 0.500755
v 0.006642 0.287560 0.709956
v -0.006643 0.287560 0.709956
v 0.016036 0.278166 0.709956
v 0.016036 0.264881 0.709956
v 0.006642 0.255487 0.709956
v -0.006643 0.255487 0.709956
v -0.016036 0.264881 0.709956
v -0.016036 0.278166 0.709956
v 0.004559 0.282529 0.494271
v -0.004559 0.282529 0.494271
v 0.011006 0.276082 0.494271
v 0.011006 0.266965 0.494271
v 0.004559 0.260518 0.494271
v -0.004559 0.260518 0.494271
v -0.011006 0.266965 0.494271
v -0.011006 0.276082 0.494271
vt 0.708946 0.551194
vt 0.708946 0.442010
vt 0.719469 0.441861
vt 0.719468 0.551045
vt 0.619015 0.509719
vt 0.619015 0.618903
vt 0.604134 0.618903
vt 0.604134 0.509719
vt 0.593611 0.619053
vt 0.593611 0.509868
vt 0.694065 0.660528
vt 0.694065 0.551344
vt 0.708946 0.551344
vt 0.708946 0.660528
vt 0.719468 0.551194
vt 0.719469 0.660379
vt 0.619015 0.619053
vt 0.619015 0.728237
vt 0.604134 0.728237
vt 0.604134 0.619053
vt 0.646663 0.728386
vt 0.636450 0.728386
vt 0.636450 0.478436
vt 0.646663 0.478436
vt 0.593611 0.728386
vt 0.593611 0.619202
vt 0.694065 0.551194
vt 0.694065 0.442010
vt 0.690528 0.660528
vt 0.717694 0.660528
vt 0.736903 0.680403
vt 0.736903 0.708511
vt 0.717694 0.728386
vt 0.690528 0.728386
vt 0.671319 0.708511
vt 0.671319 0.680403
vt 0.829654 0.546234
vt 0.832582 0.412881
vt 0.853891 0.412881
vt 0.856819 0.546234
vt 0.810444 0.546235
vt 0.807516 0.412881
vt 0.822584 0.412668
vt 0.829653 0.545962
vt 0.783278 0.546235
vt 0.786207 0.412881
vt 0.756112 0.594819
vt 0.759040 0.728172
vt 0.743972 0.728386
vt 0.736903 0.595092
vt 0.783278 0.594819
vt 0.780350 0.728172
vt 0.903195 0.546235
vt 0.900266 0.412881
vt 0.915335 0.412668
vt 0.922404 0.545962
vt 0.876029 0.546235
vt 0.878957 0.412881
vt 0.868959 0.412668
vt 0.876029 0.545962
vt 0.671319 0.462743
vt 0.663559 0.459417
vt 0.663559 0.444020
vt 0.671319 0.440695
vt 0.656250 0.478333
vt 0.653036 0.470305
vt 0.634941 0.478333
vt 0.638155 0.470305
vt 0.619873 0.462743
vt 0.627633 0.459417
vt 0.619873 0.440695
vt 0.627633 0.444020
vt 0.634941 0.425104
vt 0.638155 0.433133
vt 0.656250 0.425104
vt 0.653036 0.433133
vt 0.856819 0.728386
vt 0.876029 0.728114
vt 0.876029 0.728386
vt 0.903195 0.728386
vt 0.922404 0.728114
vt 0.783278 0.412668
vt 0.756112 0.412668
vt 0.736903 0.412940
vt 0.783278 0.728386
vt 0.810444 0.728386
vt 0.829653 0.728114
vt 0.829653 0.728386
vt 0.706612 0.410520
vt 0.696399 0.410520
vt 0.694065 0.404689
vt 0.708946 0.404689
vt 0.689178 0.417992
vt 0.683542 0.415577
vt 0.689178 0.428558
vt 0.683542 0.430974
vt 0.696399 0.436031
vt 0.694065 0.441861
vt 0.706612 0.436031
vt 0.708946 0.441861
vt 0.713833 0.428558
vt 0.719469 0.430974
vt 0.713833 0.417992
vt 0.719469 0.415577
vt 0.671319 0.417633
vt 0.664097 0.425104
vt 0.653884 0.425104
vt 0.646663 0.417633
vt 0.646663 0.407065
vt 0.653884 0.399594
vt 0.664097 0.399594
vt 0.671319 0.407065
vt 0.629228 0.728386
vt 0.619015 0.728386
vt 0.619015 0.478436
vt 0.629228 0.478436
vt 0.661106 0.478333
vt 0.671319 0.478333
vt 0.671319 0.728284
vt 0.661106 0.728284
vt 0.726690 0.410475
vt 0.736903 0.410475
vt 0.736903 0.660425
vt 0.726690 0.660425
vt 0.636450 0.728284
vt 0.636450 0.478333
vt 0.653884 0.478436
vt 0.653884 0.728386
vt 0.719469 0.410578
vt 0.719469 0.660528
vt 0.653884 0.728284
vt 0.653884 0.478333
vn 0.0000 1.0000 0.0000
vn 0.7071 0.7071 0.0000
vn 1.0000 0.0000 0.0000
vn 0.7071 -0.7071 0.0000
vn 0.0000 -1.0000 0.0000
vn -0.7071 -0.7071 0.0000
vn -1.0000 -0.0000 0.0000
vn -0.7071 0.7071 0.0000
vn 0.0000 0.0000 -1.0000
vn -0.7060 0.7060 0.0548
vn -0.9985 -0.0000 0.0548
vn -0.7060 -0.7060 0.0548
vn 0.0000 -0.9985 0.0548
vn 0.7060 -0.7060 0.0548
vn 0.9985 0.0000 0.0548
vn 0.7060 0.7060 0.0548
vn 0.0000 0.9985 0.0548
vn 0.0001 -0.0001 1.0000
vn 0.0001 0.0000 1.0000
vn 0.0001 0.0001 1.0000
vn 0.0000 0.0001 1.0000
vn -0.0001 0.0001 1.0000
vn -0.0001 -0.0000 1.0000
vn -0.0001 -0.0001 1.0000
vn 0.0000 -0.0001 1.0000
vn 0.0000 0.0000 1.0000
usemtl Material.003
s off
f 25/1/1 42/2/1 41/3/1 26/4/1
f 26/5/2 41/6/2 43/7/2 27/8/2
f 27/8/3 43/7/3 44/9/3 28/10/3
f 28/11/4 44/12/4 45/13/4 29/14/4
f 29/14/5 45/13/5 46/15/5 30/16/5
f 30/17/6 46/18/6 47/19/6 31/20/6
f 2/21/4 16/22/4 56/23/4 50/24/4
f 31/20/7 47/19/7 48/25/7 32/26/7
f 32/27/8 48/28/8 42/2/8 25/1/8
f 1/29/9 3/30/9 5/31/9 7/32/9 9/33/9 11/34/9 13/35/9 15/36/9
f 39/37/10 24/38/10 17/39/10 40/40/10
f 38/41/11 23/42/11 24/43/11 39/44/11
f 37/45/12 22/46/12 23/42/12 38/41/12
f 36/47/13 21/48/13 22/49/13 37/50/13
f 35/51/14 20/52/14 21/48/14 36/47/14
f 34/53/15 19/54/15 20/55/15 35/56/15
f 33/57/16 18/58/16 19/54/16 34/53/16
f 40/40/17 17/39/17 18/59/17 33/60/17
f 24/61/18 32/62/18 25/63/18 17/64/18
f 23/65/19 31/66/19 32/62/19 24/61/19
f 22/67/20 30/68/20 31/66/20 23/65/20
f 21/69/21 29/70/21 30/68/21 22/67/21
f 20/71/22 28/72/22 29/70/22 21/69/22
f 19/73/23 27/74/23 28/72/23 20/71/23
f 18/75/24 26/76/24 27/74/24 19/73/24
f 17/64/25 25/63/25 26/76/25 18/75/25
f 1/77/1 40/40/1 33/60/1 3/78/1
f 3/79/2 33/57/2 34/53/2 5/80/2
f 5/80/3 34/53/3 35/56/3 7/81/3
f 7/82/4 35/51/4 36/47/4 9/83/4
f 9/83/5 36/47/5 37/50/5 11/84/5
f 11/85/6 37/45/6 38/41/6 13/86/6
f 13/86/7 38/41/7 39/44/7 15/87/7
f 15/88/8 39/37/8 40/40/8 1/77/8
f 2/89/26 4/90/26 41/91/26 42/92/26
f 4/90/26 6/93/26 43/94/26 41/91/26
f 6/93/26 8/95/26 44/96/26 43/94/26
f 8/95/26 10/97/26 45/98/26 44/96/26
f 10/97/26 12/99/26 46/100/26 45/98/26
f 12/99/26 14/101/26 47/102/26 46/100/26
f 14/101/26 16/103/26 48/104/26 47/102/26
f 16/103/26 2/89/26 42/92/26 48/104/26
f 49/105/26 50/106/26 56/107/26 55/108/26 54/109/26 53/110/26 52/111/26 51/112/26
f 14/113/2 12/114/2 54/115/2 55/116/2
f 10/117/8 8/118/8 52/119/8 53/120/8
f 6/121/6 4/122/6 49/123/6 51/124/6
f 16/125/3 14/113/3 55/116/3 56/126/3
f 12/127/1 10/117/1 53/120/1 54/128/1
f 8/129/7 6/121/7 51/124/7 52/130/7
f 4/131/5 2/21/5 50/24/5 49/132/5
