# Blender v2.79 (sub 0) OBJ File: 'newtank uv final.blend'
# www.blender.org
mtllib Narushat-C_wheel.mtl
o Cylinder.004_Cylinder.011
v -0.035760 0.000000 -0.075879
v 0.010333 -0.000000 -0.059055
v -0.035760 -0.053655 -0.053655
v 0.010333 -0.041758 -0.041758
v -0.035760 -0.075879 0.000000
v 0.010333 -0.059055 -0.000000
v -0.035760 -0.053655 0.053655
v 0.010333 -0.041758 0.041758
v -0.035760 0.000000 0.075879
v 0.010333 0.000000 0.059055
v -0.035760 0.053655 0.053655
v 0.010333 0.041758 0.041758
v -0.035760 0.075879 -0.000000
v 0.010333 0.059055 -0.000000
v -0.035760 0.053655 -0.053655
v 0.010333 0.041758 -0.041758
v 0.010333 -0.053655 -0.053655
v 0.010333 -0.000000 -0.075879
v 0.010333 -0.075879 0.000000
v 0.010333 -0.053655 0.053655
v 0.010333 0.000000 0.075879
v 0.010333 0.053655 0.053655
v 0.010333 0.075879 -0.000000
v 0.010333 0.053655 -0.053655
v 0.003062 -0.015489 -0.015489
v 0.003062 -0.000000 -0.021904
v 0.003062 -0.021904 -0.000000
v 0.003062 -0.015489 0.015489
v 0.003062 -0.000000 0.021904
v 0.003062 0.015489 0.015489
v 0.003062 0.021904 -0.000000
v 0.003062 0.015489 -0.015489
v 0.003062 -0.041758 -0.041758
v 0.003062 -0.000000 -0.059055
v 0.003062 -0.059055 -0.000000
v 0.003062 -0.041758 0.041758
v 0.003062 0.000000 0.059055
v 0.003062 0.041758 0.041758
v 0.003062 0.059055 -0.000000
v 0.003062 0.041758 -0.041758
v 0.008970 -0.015489 -0.015489
v 0.008970 -0.000000 -0.021904
v 0.008970 -0.021904 -0.000000
v 0.008970 -0.015489 0.015489
v 0.008970 -0.000000 0.021904
v 0.008970 0.015489 0.015489
v 0.008970 0.021904 -0.000000
v 0.008970 0.015489 -0.015489
vt 0.501091 0.576627
vt 0.553351 0.576627
vt 0.553351 0.622866
vt 0.501091 0.622866
vt 0.605611 0.622866
vt 0.553351 0.576627
vt 0.605611 0.576627
vt 0.553351 0.511235
vt 0.605611 0.511235
vt 0.553351 0.464995
vt 0.605611 0.464995
vt 0.657871 0.464995
vt 0.657871 0.530387
vt 0.605611 0.530387
vt 0.657871 0.576627
vt 0.605611 0.576627
vt 0.624807 0.464995
vt 0.624807 0.429009
vt 0.633051 0.429009
vt 0.633051 0.464995
vt 0.501091 0.464995
vt 0.553351 0.464995
vt 0.553351 0.511234
vt 0.501091 0.511235
vt 0.501091 0.611631
vt 0.454533 0.657871
vt 0.388688 0.657871
vt 0.342129 0.611631
vt 0.342129 0.546239
vt 0.388688 0.500000
vt 0.454533 0.500000
vt 0.501091 0.546239
vt 0.483468 0.446511
vt 0.483468 0.395618
vt 0.501091 0.388369
vt 0.501091 0.453761
vt 0.447233 0.359632
vt 0.454533 0.342129
vt 0.395988 0.359632
vt 0.388688 0.342129
vt 0.359753 0.395618
vt 0.342129 0.388369
vt 0.359753 0.446511
vt 0.342129 0.453761
vt 0.395988 0.482498
vt 0.388688 0.500000
vt 0.447233 0.482498
vt 0.454533 0.500000
vt 0.647993 0.429009
vt 0.647993 0.442357
vt 0.641295 0.442357
vt 0.641295 0.429009
vt 0.624807 0.378116
vt 0.624807 0.342129
vt 0.633051 0.342129
vt 0.633051 0.378116
vt 0.633051 0.429009
vt 0.633051 0.378116
vt 0.641295 0.378116
vt 0.641295 0.429009
vt 0.633051 0.342129
vt 0.641295 0.342129
vt 0.641295 0.378116
vt 0.641295 0.342129
vt 0.649539 0.342129
vt 0.649539 0.378116
vt 0.633051 0.464995
vt 0.641295 0.464995
vt 0.641295 0.429009
vt 0.649539 0.429009
vt 0.540005 0.394124
vt 0.540005 0.413001
vt 0.501091 0.429009
vt 0.501091 0.378116
vt 0.553445 0.426349
vt 0.537327 0.464995
vt 0.572453 0.426349
vt 0.588571 0.464995
vt 0.585893 0.413001
vt 0.624807 0.429009
vt 0.585893 0.394124
vt 0.624807 0.378116
vt 0.572453 0.380776
vt 0.588571 0.342129
vt 0.553445 0.380776
vt 0.537327 0.342129
vt 0.638059 0.576627
vt 0.651499 0.589975
vt 0.651499 0.608852
vt 0.638059 0.622200
vt 0.619051 0.622200
vt 0.605611 0.608852
vt 0.605611 0.589975
vt 0.619051 0.576627
vt 0.656237 0.342129
vt 0.656237 0.355478
vt 0.649539 0.355478
vt 0.649539 0.342129
vt 0.656237 0.374354
vt 0.656237 0.387703
vt 0.649539 0.387703
vt 0.649539 0.374354
vt 0.649539 0.401051
vt 0.649539 0.387703
vt 0.656237 0.387703
vt 0.656237 0.401051
vt 0.647993 0.461234
vt 0.641295 0.461234
vt 0.649539 0.433276
vt 0.649539 0.419928
vt 0.656237 0.419928
vt 0.656237 0.433276
vn -0.0000 -0.3827 -0.9239
vn -0.0000 -0.9239 -0.3827
vn -0.0000 -0.9239 0.3827
vn -0.0000 -0.3827 0.9239
vn 0.0000 0.3827 0.9239
vn 0.0000 0.9239 0.3827
vn 0.0000 0.9239 -0.3827
vn 0.0000 0.3827 -0.9239
vn -1.0000 -0.0000 0.0000
vn 1.0000 0.0000 0.0000
usemtl None
s off
f 1/1/1 18/2/1 17/3/1 3/4/1
f 3/5/2 17/3/2 19/6/2 5/7/2
f 5/7/3 19/6/3 20/8/3 7/9/3
f 7/9/4 20/8/4 21/10/4 9/11/4
f 9/11/5 21/12/5 22/13/5 11/14/5
f 11/14/6 22/13/6 23/15/6 13/16/6
f 12/17/1 10/18/1 37/19/1 38/20/1
f 13/21/7 23/22/7 24/23/7 15/24/7
f 15/24/8 24/23/8 18/2/8 1/1/8
f 1/25/9 3/26/9 5/27/9 7/28/9 9/29/9 11/30/9 13/31/9 15/32/9
f 2/33/10 4/34/10 17/35/10 18/36/10
f 4/34/10 6/37/10 19/38/10 17/35/10
f 6/37/10 8/39/10 20/40/10 19/38/10
f 8/39/10 10/41/10 21/42/10 20/40/10
f 10/41/10 12/43/10 22/44/10 21/42/10
f 12/43/10 14/45/10 23/46/10 22/44/10
f 14/45/10 16/47/10 24/48/10 23/46/10
f 16/47/10 2/33/10 18/36/10 24/48/10
f 31/49/6 30/50/6 46/51/6 47/52/6
f 8/53/7 6/54/7 35/55/7 36/56/7
f 4/57/5 2/58/5 34/59/5 33/60/5
f 2/58/4 16/61/4 40/62/4 34/59/4
f 14/63/2 12/64/2 38/65/2 39/66/2
f 10/18/8 8/53/8 36/56/8 37/19/8
f 6/67/6 4/57/6 33/60/6 35/68/6
f 16/69/3 14/63/3 39/66/3 40/70/3
f 26/71/10 25/72/10 33/73/10 34/74/10
f 25/72/10 27/75/10 35/76/10 33/73/10
f 27/75/10 28/77/10 36/78/10 35/76/10
f 28/77/10 29/79/10 37/80/10 36/78/10
f 29/79/10 30/81/10 38/82/10 37/80/10
f 30/81/10 31/83/10 39/84/10 38/82/10
f 31/83/10 32/85/10 40/86/10 39/84/10
f 32/85/10 26/71/10 34/74/10 40/86/10
f 41/87/10 42/88/10 48/89/10 47/90/10 46/91/10 45/92/10 44/93/10 43/94/10
f 29/95/4 28/96/4 44/97/4 45/98/4
f 27/99/2 25/100/2 41/101/2 43/102/2
f 32/103/7 31/104/7 47/105/7 48/106/7
f 30/50/5 29/107/5 45/108/5 46/51/5
f 28/96/3 27/99/3 43/102/3 44/97/3
f 25/109/1 26/110/1 42/111/1 41/112/1
f 26/110/8 32/103/8 48/106/8 42/111/8
