# Blender v2.79 (sub 0) OBJ File: ''
# www.blender.org
mtllib Drum_2.mtl
o Cylinder.003
v -0.002056 -0.673500 -0.412755
v -0.002056 0.059929 -0.412755
v 0.286949 -0.673500 -0.293045
v 0.286949 0.059929 -0.293045
v 0.406659 -0.673500 -0.004039
v 0.406659 0.059929 -0.004039
v 0.286949 -0.673500 0.284966
v 0.286949 0.059929 0.284966
v -0.002056 -0.673500 0.404676
v -0.002056 0.059929 0.404676
v -0.291062 -0.673500 0.284966
v -0.291062 0.059929 0.284966
v -0.410772 -0.673500 -0.004039
v -0.410772 0.059929 -0.004039
v -0.291062 -0.673500 -0.293045
v -0.291062 0.059929 -0.293045
v -0.002056 -0.155154 -0.412755
v -0.002056 -0.077869 -0.412755
v 0.286949 -0.077869 -0.293045
v 0.286949 -0.155154 -0.293045
v 0.406659 -0.077869 -0.004039
v 0.406659 -0.155154 -0.004039
v 0.286949 -0.077869 0.284966
v 0.286949 -0.155154 0.284966
v -0.002056 -0.077869 0.404676
v -0.002056 -0.155154 0.404676
v -0.291062 -0.077869 0.284966
v -0.291062 -0.155154 0.284966
v -0.410772 -0.077869 -0.004039
v -0.410772 -0.155154 -0.004039
v -0.291062 -0.077869 -0.293045
v -0.291062 -0.155154 -0.293045
v -0.002056 -0.077869 -0.474923
v 0.330908 -0.077869 -0.337004
v 0.468827 -0.077869 -0.004039
v 0.330908 -0.077869 0.328925
v -0.002057 -0.077869 0.466844
v -0.335021 -0.077869 0.328925
v -0.472940 -0.077869 -0.004039
v -0.335021 -0.077869 -0.337004
v 0.330908 -0.155154 -0.337004
v 0.468827 -0.155154 -0.004039
v 0.330908 -0.155154 0.328925
v -0.002057 -0.155154 0.466844
v -0.335021 -0.155154 0.328925
v -0.472940 -0.155154 -0.004039
v -0.335021 -0.155154 -0.337004
v -0.002056 -0.155154 -0.474923
v -0.042663 0.199108 -0.151956
v -0.042663 0.177621 -0.151956
v -0.021650 0.199108 -0.156447
v -0.021650 0.177621 -0.156447
v 0.024392 0.199108 0.161833
v 0.024392 0.177621 0.161833
v 0.045405 0.199108 0.157342
v 0.045405 0.177621 0.157342
v 0.161287 0.196282 -0.039577
v 0.161287 0.180447 -0.039577
v 0.164596 0.196282 -0.024091
v 0.164596 0.180447 -0.024091
v -0.161854 0.196282 0.029477
v -0.161854 0.180447 0.029477
v -0.158545 0.196282 0.044963
v -0.158545 0.180447 0.044963
v -0.030316 0.172424 0.009464
v -0.030316 0.204305 0.009464
v -0.025823 0.172424 -0.014925
v -0.025823 0.204305 -0.014925
v -0.005400 0.172424 -0.028994
v -0.005400 0.204305 -0.028994
v 0.018989 0.172424 -0.024501
v 0.018989 0.204305 -0.024501
v 0.033058 0.172424 -0.004078
v 0.033058 0.204305 -0.004078
v 0.028565 0.172424 0.020311
v 0.028565 0.204305 0.020311
v 0.008142 0.172424 0.034380
v 0.008142 0.204305 0.034380
v -0.016247 0.172424 0.029887
v -0.016247 0.204305 0.029887
v -0.016397 0.172424 0.006490
v -0.013878 0.172424 -0.007186
v -0.002426 0.172424 -0.015075
v 0.011250 0.172424 -0.012556
v 0.019139 0.172424 -0.001104
v 0.016619 0.172424 0.012572
v 0.005168 0.172424 0.020461
v -0.008508 0.172424 0.017941
v -0.016397 0.087522 0.006490
v -0.013878 0.087522 -0.007186
v -0.008508 0.087522 0.017941
v -0.002426 0.087522 -0.015075
v 0.011250 0.087522 -0.012556
v 0.019139 0.087522 -0.001104
v 0.016619 0.087522 0.012572
v 0.005168 0.087522 0.020461
v -0.091524 0.087522 0.022544
v -0.078353 0.087522 -0.048957
v -0.018480 0.087522 -0.090202
v 0.053021 0.087522 -0.077031
v 0.094266 0.087522 -0.017158
v 0.081095 0.087522 0.054343
v 0.021222 0.087522 0.095588
v -0.050279 0.087522 0.082417
v -0.113600 0.053888 0.027262
v -0.097299 0.053888 -0.061231
v -0.062553 0.053888 0.101363
v -0.023198 0.053888 -0.112278
v 0.065295 0.053888 -0.095977
v 0.116342 0.053888 -0.021876
v 0.100041 0.053888 0.066617
v 0.025940 0.053888 0.117664
v -0.176637 0.207500 0.040733
v -0.176637 0.169229 0.040733
v -0.151398 0.207500 -0.096279
v -0.151398 0.169229 -0.096279
v -0.036669 0.207500 -0.175315
v -0.036669 0.169229 -0.175315
v 0.100343 0.207500 -0.150076
v 0.100343 0.169229 -0.150076
v 0.179379 0.207500 -0.035347
v 0.179379 0.169229 -0.035347
v 0.154140 0.207500 0.101665
v 0.154140 0.169229 0.101665
v 0.039411 0.207500 0.180701
v 0.039411 0.169229 0.180701
v -0.097601 0.207500 0.155462
v -0.097601 0.169229 0.155462
v 0.133615 0.169229 -0.025567
v 0.133615 0.207500 -0.025567
v 0.074899 0.169229 -0.110801
v 0.074899 0.207500 -0.110801
v -0.112123 0.169229 -0.070835
v -0.112123 0.207500 -0.070835
v -0.130873 0.169229 0.030953
v -0.130873 0.207500 0.030953
v 0.114865 0.169229 0.076221
v 0.114865 0.207500 0.076221
v -0.072157 0.169229 0.116187
v -0.072157 0.207500 0.116187
v 0.029631 0.169229 0.134937
v 0.029631 0.207500 0.134937
v -0.026889 0.169229 -0.129551
v -0.026889 0.207500 -0.129551
v 0.303331 -0.323039 -0.309427
v 0.303331 -0.505615 -0.309427
v 0.429827 -0.323039 -0.004039
v 0.429827 -0.505615 -0.004039
v 0.303331 -0.323039 0.301348
v 0.303331 -0.505615 0.301348
v -0.002057 -0.323039 0.427844
v -0.002057 -0.505615 0.427844
v -0.307444 -0.323039 0.301348
v -0.307444 -0.505615 0.301348
v -0.433940 -0.323039 -0.004039
v -0.433940 -0.505615 -0.004039
v -0.307444 -0.323039 -0.309427
v -0.307444 -0.505615 -0.309427
v -0.002056 -0.505615 -0.435923
v -0.002056 -0.323039 -0.435923
vn 0.3827 0.0000 -0.9239
vn 0.9239 0.0000 -0.3827
vn 0.9239 0.0000 0.3827
vn 0.3827 0.0000 0.9239
vn -0.3827 0.0000 0.9239
vn -0.9239 0.0000 0.3827
vn 0.0000 1.0000 0.0000
vn -0.9239 0.0000 -0.3827
vn -0.3827 0.0000 -0.9239
vn 0.0000 -1.0000 -0.0000
vn -0.3796 0.1265 -0.9165
vn -0.9165 0.1265 -0.3796
vn -0.9165 0.1265 0.3796
vn -0.3796 0.1265 0.9165
vn 0.3796 0.1265 0.9165
vn 0.9165 0.1265 0.3796
vn 0.9165 0.1265 -0.3796
vn 0.3796 0.1265 -0.9165
vn 0.3796 -0.1265 -0.9165
vn 0.9165 -0.1265 -0.3796
vn 0.9165 -0.1265 0.3796
vn 0.3796 -0.1265 0.9165
vn -0.3796 -0.1265 0.9165
vn -0.9165 -0.1265 0.3796
vn -0.9165 -0.1265 -0.3796
vn -0.3796 -0.1265 -0.9165
vn 0.2090 0.0000 0.9779
vn -0.9779 0.0000 0.2090
vn -0.2090 0.0000 -0.9779
vn 0.9779 0.0000 -0.2090
vn -0.9835 -0.0000 -0.1812
vn -0.5673 0.0000 -0.8235
vn 0.1812 0.0000 -0.9835
vn 0.8235 0.0000 -0.5673
vn 0.9835 -0.0000 0.1812
vn 0.5673 -0.0000 0.8235
vn -0.1812 -0.0000 0.9835
vn -0.8235 -0.0000 0.5673
vn 0.8358 0.5270 0.1540
vn 0.1540 0.5270 -0.8358
vn -0.6999 0.5270 0.4821
vn 0.4821 0.5270 0.6999
vn 0.6999 0.5270 -0.4821
vn -0.4821 0.5270 -0.6999
vn -0.8358 0.5270 -0.1540
vn -0.1540 0.5270 0.8358
usemtl Material.103
s off
f 18//1 2//1 4//1 19//1
f 19//2 4//2 6//2 21//2
f 21//3 6//3 8//3 23//3
f 23//4 8//4 10//4 25//4
f 25//5 10//5 12//5 27//5
f 27//6 12//6 14//6 29//6
f 4//7 2//7 16//7 14//7 12//7 10//7 8//7 6//7
f 29//8 14//8 16//8 31//8
f 31//9 16//9 2//9 18//9
f 1//10 3//10 5//10 7//10 9//10 11//10 13//10 15//10
f 157//11 32//11 17//11 160//11
f 155//12 30//12 32//12 157//12
f 153//13 28//13 30//13 155//13
f 151//14 26//14 28//14 153//14
f 149//15 24//15 26//15 151//15
f 147//16 22//16 24//16 149//16
f 145//17 20//17 22//17 147//17
f 160//18 17//18 20//18 145//18
f 1//19 159//19 146//19 3//19
f 159//1 160//1 145//1 146//1
f 3//20 146//20 148//20 5//20
f 146//2 145//2 147//2 148//2
f 5//21 148//21 150//21 7//21
f 148//3 147//3 149//3 150//3
f 7//22 150//22 152//22 9//22
f 150//4 149//4 151//4 152//4
f 9//23 152//23 154//23 11//23
f 152//5 151//5 153//5 154//5
f 11//24 154//24 156//24 13//24
f 154//6 153//6 155//6 156//6
f 13//25 156//25 158//25 15//25
f 156//8 155//8 157//8 158//8
f 15//26 158//26 159//26 1//26
f 158//9 157//9 160//9 159//9
usemtl Material.104
f 40//7 31//7 18//7 33//7
f 39//7 29//7 31//7 40//7
f 38//7 27//7 29//7 39//7
f 37//7 25//7 27//7 38//7
f 36//7 23//7 25//7 37//7
f 35//7 21//7 23//7 36//7
f 34//7 19//7 21//7 35//7
f 33//7 18//7 19//7 34//7
f 48//1 33//1 34//1 41//1
f 41//2 34//2 35//2 42//2
f 42//3 35//3 36//3 43//3
f 43//4 36//4 37//4 44//4
f 44//5 37//5 38//5 45//5
f 45//6 38//6 39//6 46//6
f 46//8 39//8 40//8 47//8
f 47//9 40//9 33//9 48//9
f 32//10 47//10 48//10 17//10
f 30//10 46//10 47//10 32//10
f 28//10 45//10 46//10 30//10
f 26//10 44//10 45//10 28//10
f 24//10 43//10 44//10 26//10
f 22//10 42//10 43//10 24//10
f 20//10 41//10 42//10 22//10
f 17//10 48//10 41//10 20//10
usemtl Material.107
f 49//27 50//27 52//27 51//27
f 51//28 52//28 56//28 55//28
f 55//29 56//29 54//29 53//29
f 53//30 54//30 50//30 49//30
f 51//10 55//10 53//10 49//10
f 56//7 52//7 50//7 54//7
usemtl Material.108
f 57//28 58//28 60//28 59//28
f 59//29 60//29 64//29 63//29
f 63//30 64//30 62//30 61//30
f 61//27 62//27 58//27 57//27
f 59//10 63//10 61//10 57//10
f 64//7 60//7 58//7 62//7
usemtl Material.105
f 65//31 66//31 68//31 67//31
f 67//32 68//32 70//32 69//32
f 69//33 70//33 72//33 71//33
f 71//34 72//34 74//34 73//34
f 73//35 74//35 76//35 75//35
f 75//36 76//36 78//36 77//36
f 68//7 66//7 80//7 78//7 76//7 74//7 72//7 70//7
f 77//37 78//37 80//37 79//37
f 79//38 80//38 66//38 65//38
f 84//34 85//34 94//34 93//34
f 65//10 67//10 82//10 81//10
f 67//10 69//10 83//10 82//10
f 69//10 71//10 84//10 83//10
f 71//10 73//10 85//10 84//10
f 73//10 75//10 86//10 85//10
f 75//10 77//10 87//10 86//10
f 77//10 79//10 88//10 87//10
f 79//10 65//10 81//10 88//10
f 101//39 102//39 111//39 110//39
f 82//32 83//32 92//32 90//32
f 81//31 82//31 90//31 89//31
f 87//37 88//37 91//37 96//37
f 85//35 86//35 95//35 94//35
f 83//33 84//33 93//33 92//33
f 88//38 81//38 89//38 91//38
f 86//36 87//36 96//36 95//36
f 89//7 90//7 98//7 97//7
f 90//7 92//7 99//7 98//7
f 92//7 93//7 100//7 99//7
f 93//7 94//7 101//7 100//7
f 94//7 95//7 102//7 101//7
f 95//7 96//7 103//7 102//7
f 96//7 91//7 104//7 103//7
f 91//7 89//7 97//7 104//7
f 105//10 106//10 108//10 109//10 110//10 111//10 112//10 107//10
f 99//40 100//40 109//40 108//40
f 104//41 97//41 105//41 107//41
f 102//42 103//42 112//42 111//42
f 100//43 101//43 110//43 109//43
f 98//44 99//44 108//44 106//44
f 97//45 98//45 106//45 105//45
f 103//46 104//46 107//46 112//46
usemtl Material.106
f 113//35 114//35 116//35 115//35
f 115//36 116//36 118//36 117//36
f 117//37 118//37 120//37 119//37
f 119//38 120//38 122//38 121//38
f 121//31 122//31 124//31 123//31
f 123//32 124//32 126//32 125//32
f 116//7 114//7 128//7 126//7 141//7 139//7 135//7 133//7 143//7 118//7
f 125//33 126//33 128//33 127//33
f 127//34 128//34 114//34 113//34
f 113//10 115//10 117//10 144//10 134//10 136//10 140//10 142//10 125//10 127//10
f 140//37 139//37 141//37 142//37
f 118//7 143//7 131//7 129//7 137//7 141//7 126//7 124//7 122//7 120//7
f 144//32 143//32 133//32 134//32
f 142//36 141//36 137//36 138//36
f 132//33 131//33 143//33 144//33
f 130//34 129//34 131//34 132//34
f 136//38 135//38 139//38 140//38
f 134//31 133//31 135//31 136//31
f 138//35 137//35 129//35 130//35
f 125//10 142//10 138//10 130//10 132//10 144//10 117//10 119//10 121//10 123//10
