# Blender v2.79 (sub 0) OBJ File: ''
# www.blender.org
mtllib Drum_1.mtl
o Cylinder.003
v -0.002285 -0.402412 -0.413204
v -0.002285 -0.004761 -0.413204
v 0.286720 -0.402412 -0.293494
v 0.286720 -0.004761 -0.293494
v 0.406430 -0.402412 -0.004488
v 0.406430 -0.004761 -0.004488
v 0.286720 -0.402412 0.284517
v 0.286720 -0.004761 0.284517
v -0.002285 -0.402412 0.404227
v -0.002285 -0.004761 0.404227
v -0.291290 -0.402412 0.284517
v -0.291290 -0.004761 0.284517
v -0.411000 -0.402412 -0.004488
v -0.411000 -0.004761 -0.004488
v -0.291290 -0.402412 -0.293494
v -0.291290 -0.004761 -0.293494
v -0.002285 -0.219845 -0.413204
v -0.002285 -0.142560 -0.413204
v 0.286720 -0.142560 -0.293494
v 0.286720 -0.219845 -0.293494
v 0.406430 -0.142560 -0.004488
v 0.406430 -0.219845 -0.004488
v 0.286720 -0.142560 0.284517
v 0.286720 -0.219845 0.284517
v -0.002285 -0.142560 0.404227
v -0.002285 -0.219845 0.404227
v -0.291290 -0.142560 0.284517
v -0.291290 -0.219845 0.284517
v -0.411000 -0.142560 -0.004488
v -0.411000 -0.219845 -0.004488
v -0.291290 -0.142560 -0.293494
v -0.291290 -0.219845 -0.293494
v -0.002285 -0.142560 -0.475372
v 0.330680 -0.142560 -0.337453
v 0.468598 -0.142560 -0.004488
v 0.330680 -0.142560 0.328477
v -0.002285 -0.142560 0.466395
v -0.335250 -0.142560 0.328476
v -0.473168 -0.142560 -0.004488
v -0.335250 -0.142560 -0.337453
v 0.330680 -0.219845 -0.337453
v 0.468598 -0.219845 -0.004488
v 0.330680 -0.219845 0.328477
v -0.002285 -0.219845 0.466395
v -0.335250 -0.219845 0.328476
v -0.473168 -0.219845 -0.004488
v -0.335250 -0.219845 -0.337453
v -0.002285 -0.219845 -0.475372
v -0.042892 0.134417 -0.152405
v -0.042892 0.112930 -0.152405
v -0.021879 0.134417 -0.156896
v -0.021879 0.112930 -0.156896
v 0.024164 0.134417 0.161384
v 0.024164 0.112930 0.161384
v 0.045177 0.134417 0.156893
v 0.045177 0.112930 0.156893
v 0.161058 0.131592 -0.040026
v 0.161058 0.115756 -0.040026
v 0.164368 0.131592 -0.024540
v 0.164368 0.115756 -0.024540
v -0.162083 0.131592 0.029028
v -0.162083 0.115756 0.029028
v -0.158773 0.131592 0.044514
v -0.158773 0.115756 0.044514
v -0.030544 0.107733 0.009015
v -0.030544 0.139615 0.009015
v -0.026052 0.107733 -0.015374
v -0.026052 0.139615 -0.015374
v -0.005629 0.107733 -0.029443
v -0.005629 0.139614 -0.029443
v 0.018760 0.107733 -0.024950
v 0.018760 0.139614 -0.024950
v 0.032829 0.107733 -0.004527
v 0.032829 0.139614 -0.004527
v 0.028336 0.107733 0.019862
v 0.028336 0.139614 0.019862
v 0.007914 0.107733 0.033931
v 0.007914 0.139614 0.033931
v -0.016475 0.107733 0.029438
v -0.016475 0.139615 0.029438
v -0.016625 0.107733 0.006041
v -0.014106 0.107733 -0.007635
v -0.002654 0.107733 -0.015524
v 0.011021 0.107733 -0.013004
v 0.018910 0.107733 -0.001553
v 0.016391 0.107733 0.012123
v 0.004939 0.107733 0.020012
v -0.008736 0.107733 0.017493
v -0.016625 0.022831 0.006041
v -0.014106 0.022831 -0.007635
v -0.008736 0.022831 0.017493
v -0.002654 0.022831 -0.015524
v 0.011021 0.022831 -0.013004
v 0.018910 0.022831 -0.001553
v 0.016391 0.022831 0.012123
v 0.004939 0.022831 0.020012
v -0.091753 0.022831 0.022095
v -0.078581 0.022831 -0.049406
v -0.018709 0.022831 -0.090651
v 0.052792 0.022831 -0.077480
v 0.094038 0.022831 -0.017607
v 0.080866 0.022831 0.053894
v 0.020994 0.022831 0.095139
v -0.050507 0.022831 0.081968
v -0.113828 -0.010803 0.026813
v -0.097527 -0.010803 -0.061680
v -0.062781 -0.010803 0.100914
v -0.023426 -0.010803 -0.112727
v 0.065066 -0.010803 -0.096425
v 0.116113 -0.010803 -0.022325
v 0.099812 -0.010803 0.066168
v 0.025711 -0.010803 0.117215
v -0.176865 0.142809 0.040284
v -0.176865 0.104538 0.040284
v -0.151626 0.142809 -0.096728
v -0.151626 0.104538 -0.096728
v -0.036897 0.142809 -0.175764
v -0.036897 0.104538 -0.175764
v 0.100115 0.142809 -0.150524
v 0.100115 0.104538 -0.150524
v 0.179150 0.142809 -0.035796
v 0.179150 0.104538 -0.035796
v 0.153911 0.142809 0.101217
v 0.153911 0.104538 0.101217
v 0.039182 0.142809 0.180252
v 0.039182 0.104538 0.180252
v -0.097830 0.142809 0.155013
v -0.097830 0.104538 0.155013
v 0.133387 0.104538 -0.026016
v 0.133387 0.142809 -0.026016
v 0.074670 0.104538 -0.111249
v 0.074670 0.142809 -0.111249
v -0.112351 0.104538 -0.071284
v -0.112351 0.142809 -0.071284
v -0.131102 0.104538 0.030504
v -0.131102 0.142809 0.030504
v 0.114636 0.104538 0.075772
v 0.114636 0.142809 0.075772
v -0.072385 0.104538 0.115738
v -0.072385 0.142809 0.115738
v 0.029403 0.104538 0.134488
v 0.029403 0.142809 0.134488
v -0.027118 0.104538 -0.130000
v -0.027118 0.142809 -0.130000
vn 0.3827 0.0000 -0.9239
vn 0.9239 -0.0000 -0.3827
vn 0.9239 -0.0000 0.3827
vn 0.3827 0.0000 0.9239
vn -0.3827 0.0000 0.9239
vn -0.9239 0.0000 0.3827
vn 0.0000 1.0000 0.0000
vn -0.9239 0.0000 -0.3827
vn -0.3827 0.0000 -0.9239
vn 0.0000 -1.0000 -0.0000
vn 0.2090 0.0000 0.9779
vn -0.9779 0.0000 0.2090
vn -0.2090 0.0000 -0.9779
vn 0.9779 0.0000 -0.2090
vn -0.9835 0.0000 -0.1812
vn -0.5673 0.0000 -0.8235
vn 0.1812 0.0000 -0.9835
vn 0.8235 0.0000 -0.5673
vn 0.9835 -0.0000 0.1812
vn 0.5673 -0.0000 0.8235
vn -0.1812 -0.0000 0.9835
vn -0.8235 -0.0000 0.5673
vn 0.8358 0.5270 0.1540
vn 0.1540 0.5270 -0.8358
vn -0.6999 0.5270 0.4821
vn 0.4821 0.5270 0.6999
vn 0.6999 0.5270 -0.4821
vn -0.4821 0.5270 -0.6999
vn -0.8358 0.5270 -0.1540
vn -0.1540 0.5270 0.8358
usemtl Material.103
s off
f 18//1 2//1 4//1 19//1
f 19//2 4//2 6//2 21//2
f 21//3 6//3 8//3 23//3
f 23//4 8//4 10//4 25//4
f 25//5 10//5 12//5 27//5
f 27//6 12//6 14//6 29//6
f 4//7 2//7 16//7 14//7 12//7 10//7 8//7 6//7
f 29//8 14//8 16//8 31//8
f 31//9 16//9 2//9 18//9
f 1//10 3//10 5//10 7//10 9//10 11//10 13//10 15//10
f 15//9 32//9 17//9 1//9
f 13//8 30//8 32//8 15//8
f 11//6 28//6 30//6 13//6
f 9//5 26//5 28//5 11//5
f 7//4 24//4 26//4 9//4
f 5//3 22//3 24//3 7//3
f 3//2 20//2 22//2 5//2
f 1//1 17//1 20//1 3//1
usemtl Material.104
f 40//7 31//7 18//7 33//7
f 39//7 29//7 31//7 40//7
f 38//7 27//7 29//7 39//7
f 37//7 25//7 27//7 38//7
f 36//7 23//7 25//7 37//7
f 35//7 21//7 23//7 36//7
f 34//7 19//7 21//7 35//7
f 33//7 18//7 19//7 34//7
f 48//1 33//1 34//1 41//1
f 41//2 34//2 35//2 42//2
f 42//3 35//3 36//3 43//3
f 43//4 36//4 37//4 44//4
f 44//5 37//5 38//5 45//5
f 45//6 38//6 39//6 46//6
f 46//8 39//8 40//8 47//8
f 47//9 40//9 33//9 48//9
f 32//10 47//10 48//10 17//10
f 30//10 46//10 47//10 32//10
f 28//10 45//10 46//10 30//10
f 26//10 44//10 45//10 28//10
f 24//10 43//10 44//10 26//10
f 22//10 42//10 43//10 24//10
f 20//10 41//10 42//10 22//10
f 17//10 48//10 41//10 20//10
usemtl Material.107
f 49//11 50//11 52//11 51//11
f 51//12 52//12 56//12 55//12
f 55//13 56//13 54//13 53//13
f 53//14 54//14 50//14 49//14
f 51//10 55//10 53//10 49//10
f 56//7 52//7 50//7 54//7
usemtl Material.108
f 57//12 58//12 60//12 59//12
f 59//13 60//13 64//13 63//13
f 63//14 64//14 62//14 61//14
f 61//11 62//11 58//11 57//11
f 59//10 63//10 61//10 57//10
f 64//7 60//7 58//7 62//7
usemtl Material.105
f 65//15 66//15 68//15 67//15
f 67//16 68//16 70//16 69//16
f 69//17 70//17 72//17 71//17
f 71//18 72//18 74//18 73//18
f 73//19 74//19 76//19 75//19
f 75//20 76//20 78//20 77//20
f 68//7 66//7 80//7 78//7 76//7 74//7 72//7 70//7
f 77//21 78//21 80//21 79//21
f 79//22 80//22 66//22 65//22
f 84//18 85//18 94//18 93//18
f 65//10 67//10 82//10 81//10
f 67//10 69//10 83//10 82//10
f 69//10 71//10 84//10 83//10
f 71//10 73//10 85//10 84//10
f 73//10 75//10 86//10 85//10
f 75//10 77//10 87//10 86//10
f 77//10 79//10 88//10 87//10
f 79//10 65//10 81//10 88//10
f 101//23 102//23 111//23 110//23
f 82//16 83//16 92//16 90//16
f 81//15 82//15 90//15 89//15
f 87//21 88//21 91//21 96//21
f 85//19 86//19 95//19 94//19
f 83//17 84//17 93//17 92//17
f 88//22 81//22 89//22 91//22
f 86//20 87//20 96//20 95//20
f 89//7 90//7 98//7 97//7
f 90//7 92//7 99//7 98//7
f 92//7 93//7 100//7 99//7
f 93//7 94//7 101//7 100//7
f 94//7 95//7 102//7 101//7
f 95//7 96//7 103//7 102//7
f 96//7 91//7 104//7 103//7
f 91//7 89//7 97//7 104//7
f 105//10 106//10 108//10 109//10 110//10 111//10 112//10 107//10
f 99//24 100//24 109//24 108//24
f 104//25 97//25 105//25 107//25
f 102//26 103//26 112//26 111//26
f 100//27 101//27 110//27 109//27
f 98//28 99//28 108//28 106//28
f 97//29 98//29 106//29 105//29
f 103//30 104//30 107//30 112//30
usemtl Material.106
f 113//19 114//19 116//19 115//19
f 115//20 116//20 118//20 117//20
f 117//21 118//21 120//21 119//21
f 119//22 120//22 122//22 121//22
f 121//15 122//15 124//15 123//15
f 123//16 124//16 126//16 125//16
f 116//7 114//7 128//7 126//7 141//7 139//7 135//7 133//7 143//7 118//7
f 125//17 126//17 128//17 127//17
f 127//18 128//18 114//18 113//18
f 113//10 115//10 117//10 144//10 134//10 136//10 140//10 142//10 125//10 127//10
f 140//21 139//21 141//21 142//21
f 118//7 143//7 131//7 129//7 137//7 141//7 126//7 124//7 122//7 120//7
f 144//16 143//16 133//16 134//16
f 142//20 141//20 137//20 138//20
f 132//17 131//17 143//17 144//17
f 130//18 129//18 131//18 132//18
f 136//22 135//22 139//22 140//22
f 134//15 133//15 135//15 136//15
f 138//19 137//19 129//19 130//19
f 125//10 142//10 138//10 130//10 132//10 144//10 117//10 119//10 121//10 123//10
