# Blender v2.79 (sub 0) OBJ File: 'TANKGAME-tiledebugging.blend'
# www.blender.org
mtllib Tile_Debug.mtl
o Cube
v 1.499999 -0.500000 -1.499999
v 1.499999 -0.500000 1.499999
v -1.499999 -0.500000 1.499999
v -1.499999 -0.500000 -1.500000
v 1.500000 0.500000 -1.499998
v 1.499998 0.500000 1.500000
v -1.500000 0.500000 1.499999
v -1.499999 0.500000 -1.499999
v -0.940342 -0.500000 0.701850
v -0.940342 0.500000 0.701850
v -0.701850 -0.500000 0.940342
v -0.701850 0.500000 0.940342
v 0.701850 -0.500000 -0.940342
v 0.701850 0.500000 -0.940342
v 0.940342 -0.500000 -0.701850
v 0.940342 0.500000 -0.701850
v 0.701850 0.500000 0.940342
v 0.701850 -0.500000 0.940342
v 0.940342 0.500000 0.701850
v 0.940342 -0.500000 0.701850
v -0.238491 -0.500000 0.000000
v 0.000000 -0.500000 0.238491
v -0.940342 -0.500000 -0.701850
v -0.940342 0.500000 -0.701850
v -0.238491 0.500000 0.000000
v 0.000000 0.500000 0.238491
v 0.000000 0.500000 -0.238491
v 0.238491 0.500000 0.000000
v -0.701850 -0.500000 -0.940342
v 0.000000 -0.500000 -0.238491
v -0.701850 0.500000 -0.940342
v 0.238491 -0.500000 0.000000
vn -0.0000 -1.0000 -0.0000
vn 0.0000 1.0000 0.0000
vn 1.0000 0.0000 0.0000
vn -0.0000 -0.0000 1.0000
vn -1.0000 -0.0000 -0.0000
vn 0.0000 0.0000 -1.0000
vn -0.7071 0.0000 -0.7071
vn -0.7071 0.0000 0.7071
vn 0.7071 0.0000 0.7071
vn 0.7071 0.0000 -0.7071
usemtl Material
s off
f 1//1 15//1 13//1 30//1 29//1 23//1 21//1 9//1 3//1 4//1
f 5//2 8//2 7//2 10//2 25//2 24//2 31//2 27//2 14//2 16//2
f 1//3 5//3 6//3 2//3
f 2//4 6//4 7//4 3//4
f 3//5 7//5 8//5 4//5
f 5//6 1//6 4//6 8//6
f 11//7 12//7 26//7 22//7
f 15//8 16//8 14//8 13//8
f 13//9 14//9 27//9 30//9
f 16//2 28//2 19//2 17//2 26//2 12//2 10//2 7//2 6//2 5//2
f 3//1 9//1 11//1 22//1 18//1 20//1 32//1 15//1 1//1 2//1
f 9//10 10//10 12//10 11//10
f 32//7 28//7 16//7 15//7
f 29//9 31//9 24//9 23//9
f 20//8 19//8 28//8 32//8
f 31//8 29//8 30//8 27//8
f 21//9 25//9 10//9 9//9
f 18//7 17//7 19//7 20//7
f 23//10 24//10 25//10 21//10
f 17//10 18//10 22//10 26//10
