# Blender v2.79 (sub 0) OBJ File: 'TANKGAME-tile_mega.blend'
# www.blender.org
mtllib Tile_Mega.mtl
o Cube_Cube.001
v 13.499993 -0.500000 -13.499992
v 13.499993 -0.500000 13.499993
v -13.499995 -0.500000 13.499990
v -13.499989 -0.500000 -13.499998
v 13.500000 0.500000 -13.499986
v 13.499985 0.500000 13.500001
v -13.499998 0.500000 13.499989
v -13.499992 0.500000 -13.499993
vn 0.0000 -1.0000 -0.0000
vn 0.0000 1.0000 0.0000
vn 1.0000 0.0000 0.0000
vn -0.0000 -0.0000 1.0000
vn -1.0000 -0.0000 -0.0000
vn 0.0000 0.0000 -1.0000
usemtl Material.001
s off
f 1//1 2//1 3//1 4//1
f 5//2 8//2 7//2 6//2
f 1//3 5//3 6//3 2//3
f 2//4 6//4 7//4 3//4
f 3//5 7//5 8//5 4//5
f 5//6 1//6 4//6 8//6
